<svg width="20" height="14" viewBox="0 0 20 14" fill="none" xmlns="http://www.w3.org/2000/svg">
<path fill-rule="evenodd" clip-rule="evenodd" d="M8.10033 0.399357C8.39322 0.692251 8.39322 1.16712 8.10033 1.46002L3.31066 6.24969H18.5C18.9142 6.24969 19.25 6.58547 19.25 6.99969C19.25 7.4139 18.9142 7.74969 18.5 7.74969H3.31066L8.10033 12.5394C8.39322 12.8322 8.39322 13.3071 8.10033 13.6C7.80744 13.8929 7.33256 13.8929 7.03967 13.6L0.96967 7.53002C0.829018 7.38937 0.75 7.1986 0.75 6.99969C0.75 6.80078 0.829018 6.61001 0.96967 6.46936L7.03967 0.399357C7.33256 0.106464 7.80744 0.106464 8.10033 0.399357Z" fill="#737D87"/>
</svg>
