<svg width="19" height="25" viewBox="0 0 19 25" fill="none" xmlns="http://www.w3.org/2000/svg">
<path d="M17.6091 7.62356C15.6091 6.05056 13.6341 4.47956 11.6391 2.90656C11.2216 2.62778 10.8943 2.23346 10.6972 1.77175C10.5 1.31003 10.4416 0.800917 10.5291 0.306563C10.5591 0.0345627 10.4071 -0.0574372 10.1081 0.0345628C9.77316 0.121287 9.45957 0.275698 9.18662 0.488274C8.91368 0.70085 8.68717 0.967086 8.52107 1.27056C8.34875 1.66454 8.05617 1.99388 7.68523 2.21141C7.3143 2.42895 6.88404 2.52351 6.45607 2.48156C5.86307 2.47066 5.27856 2.6236 4.76689 2.92354C4.25522 3.22349 3.83624 3.6588 3.55608 4.18156C2.8357 5.28548 2.33928 6.52021 2.09507 7.81556C1.7802 9.16671 1.60065 10.5458 1.55907 11.9326C1.49707 12.9946 1.52907 14.0246 1.49707 15.0806V18.0206H14.7211V15.8956C14.7428 15.6129 14.7046 15.3289 14.6092 15.062C14.5137 14.7951 14.3631 14.5513 14.1671 14.3466C13.5061 13.6916 12.8051 13.0786 12.8051 13.0786C12.4667 12.8021 12.1607 12.488 11.8931 12.1426L9.45107 8.99056L9.90207 9.35456C10.2384 9.64338 10.6396 9.84645 11.0715 9.94641C11.5034 10.0464 11.9531 10.0402 12.3821 9.92856C12.644 9.86135 12.9169 9.84797 13.1842 9.88922C13.4514 9.93048 13.7076 10.0255 13.9371 10.1686C14.2134 10.3453 14.4992 10.5069 14.7931 10.6526C15.1302 10.8287 15.5174 10.8845 15.8905 10.8106C16.2637 10.7368 16.6004 10.5378 16.8451 10.2466C17.1531 9.87656 17.4611 9.50756 17.7691 9.14656C17.8625 9.03778 17.9327 8.91107 17.9754 8.77419C18.0181 8.63732 18.0324 8.49317 18.0174 8.35057C18.0024 8.20797 17.9585 8.06994 17.8883 7.94493C17.8181 7.81991 17.723 7.71056 17.6091 7.62356Z" fill="#737D87"/>
<path d="M16.4412 22.9435L14.9412 19.9375C14.8788 19.8129 14.783 19.7082 14.6645 19.6349C14.5461 19.5616 14.4095 19.5227 14.2702 19.5225H2.25024C2.11093 19.5227 1.97443 19.5616 1.85595 19.6349C1.73747 19.7082 1.64167 19.8129 1.57924 19.9375L0.0792429 22.9375C0.0220486 23.052 -0.00497021 23.1792 0.000751714 23.3071C0.00647364 23.4349 0.0447413 23.5593 0.111935 23.6682C0.179128 23.7772 0.273024 23.8671 0.384724 23.9297C0.496424 23.9922 0.622235 24.0252 0.750241 24.0255H15.7692C15.8973 24.0252 16.0233 23.9924 16.1352 23.9301C16.2472 23.8678 16.3415 23.7782 16.4092 23.6695C16.4758 23.5611 16.5137 23.4376 16.5193 23.3106C16.5249 23.1836 16.4981 23.0572 16.4412 22.9435Z" fill="#737D87"/>
</svg>
