<svg width="22" height="22" viewBox="0 0 22 22" fill="none" xmlns="http://www.w3.org/2000/svg">
<path d="M18.7317 2.95408C16.9718 1.486 14.3077 0 10.75 0C4.77383 0 0 4.81774 0 10.75C0 15.7394 3.39811 19.9307 8.00896 21.1453C8.40951 21.2508 8.81976 21.0116 8.92526 20.611C9.03077 20.2105 8.79159 19.8002 8.39104 19.6947C4.42189 18.6493 1.5 15.0406 1.5 10.75C1.5 5.64226 5.60617 1.5 10.75 1.5C13.8623 1.5 16.1982 2.794 17.7708 4.10592C18.3829 4.61656 18.876 5.12739 19.2493 5.56H16.31C15.8958 5.56 15.56 5.89579 15.56 6.31C15.56 6.72421 15.8958 7.06 16.31 7.06H20.75C21.1642 7.06 21.5 6.72421 21.5 6.31V1.75C21.5 1.33579 21.1642 1 20.75 1C20.3358 1 20 1.33579 20 1.75V4.15201C19.6457 3.77385 19.2231 3.36401 18.7317 2.95408Z" fill="white"/>
<path d="M20.75 10C20.3358 10 20 10.3358 20 10.75C20 11.16 19.9733 11.5635 19.9217 11.9588C19.868 12.3696 20.1575 12.746 20.5682 12.7997C20.979 12.8533 21.3554 12.5638 21.409 12.1531C21.4691 11.6935 21.5 11.2252 21.5 10.75C21.5 10.3358 21.1642 10 20.75 10Z" fill="white"/>
<path d="M20.278 13.8847C19.8954 13.7259 19.4566 13.9073 19.2978 14.2899C18.986 15.0413 18.5777 15.7431 18.0883 16.3798C17.8359 16.7082 17.8974 17.1791 18.2259 17.4315C18.5543 17.684 19.0251 17.6224 19.2776 17.294C19.8459 16.5546 20.3205 15.7389 20.6832 14.8649C20.842 14.4823 20.6606 14.0434 20.278 13.8847Z" fill="white"/>
<path d="M17.4315 18.2259C17.1791 17.8974 16.7082 17.8359 16.3798 18.0883C15.7431 18.5777 15.0413 18.986 14.2899 19.2978C13.9073 19.4566 13.7259 19.8954 13.8847 20.278C14.0434 20.6606 14.4823 20.842 14.8649 20.6832C15.7389 20.3205 16.5546 19.8459 17.294 19.2776C17.6224 19.0251 17.684 18.5543 17.4315 18.2259Z" fill="white"/>
<path d="M12.7997 20.5682C12.746 20.1575 12.3696 19.868 11.9588 19.9217C11.5635 19.9733 11.16 20 10.75 20C10.3358 20 10 20.3358 10 20.75C10 21.1642 10.3358 21.5 10.75 21.5C11.2252 21.5 11.6935 21.4691 12.1531 21.409C12.5638 21.3554 12.8533 20.979 12.7997 20.5682Z" fill="white"/>
<path d="M10.5 6.75C10.5 6.33579 10.1642 6 9.75 6C9.33579 6 9 6.33579 9 6.75V10.85C9 11.3265 9.16137 11.8039 9.38599 12.1978C9.6104 12.5913 9.93844 12.9724 10.3466 13.2146L10.3476 13.2152L13.4457 15.064C13.8013 15.2763 14.2618 15.16 14.474 14.8043C14.6863 14.4487 14.57 13.9882 14.2143 13.776L11.1143 11.926L11.1124 11.9248C10.981 11.8469 10.8194 11.6834 10.689 11.4547C10.5586 11.2261 10.5 11.0035 10.5 10.85V6.75Z" fill="white"/>
</svg>
