<svg width="44" height="44" viewBox="0 0 44 44" fill="none" xmlns="http://www.w3.org/2000/svg">
<path d="M21.9652 44.0003C17.6208 44.0001 13.3741 42.7116 9.76195 40.2979C6.14982 37.8842 3.33452 34.4536 1.67203 30.4399C0.00954865 26.4263 -0.425456 22.0097 0.422023 17.7488C1.2695 13.4879 3.36141 9.57401 6.43322 6.50197C8.46973 4.44754 10.892 2.81559 13.5609 1.69981C16.2298 0.584027 19.0928 0.0063871 21.9855 5.26694e-05C24.8783 -0.00628176 27.7438 0.558814 30.4176 1.6629C33.0914 2.76698 35.5207 4.38831 37.5662 6.4338C39.6117 8.47928 41.233 10.9086 42.3371 13.5824C43.4412 16.2562 44.0063 19.1217 43.9999 22.0145C43.9936 24.9072 43.416 27.7702 42.3002 30.4391C41.1844 33.108 39.5525 35.5303 37.498 37.5668C35.4629 39.6129 33.0422 41.235 30.376 42.3393C27.7098 43.4436 24.851 44.0082 21.9652 44.0003ZM19.8801 25.6294H24.675L26.6221 31.6192H31.4872L33.4483 25.6285H38.5041V23.6322H34.1003L37.889 12.0507H33.5555L29.7492 23.6322H28.2607L24.5247 12.0507H20.3318L16.4481 23.6322H15.0238L11.3027 12.0507H6.60456L10.4109 23.6322H5.9895V25.6294H11.0699L13.0381 31.6201H17.8707L19.8793 25.6311L19.8801 25.6294ZM24.0265 23.6322H20.5506L22.3166 18.3699L24.0265 23.6296V23.6322Z" fill="#0F6BB1"/>
</svg>
