<svg width="54" height="54" viewBox="0 0 54 54" fill="none" xmlns="http://www.w3.org/2000/svg">
<path d="M38.1735 0H15.8268C6.12016 0 0.333496 5.78667 0.333496 15.4933V37.8133C0.333496 47.5467 6.12016 53.3333 15.8268 53.3333H38.1468C47.8535 53.3333 53.6402 47.5467 53.6402 37.84V15.4933C53.6668 5.78667 47.8802 0 38.1735 0ZM37.8268 24.4533L28.4135 33.8667C28.0135 34.2667 27.5068 34.4533 27.0002 34.4533C26.4935 34.4533 25.9868 34.2667 25.5868 33.8667L16.1735 24.4533C15.4002 23.68 15.4002 22.4 16.1735 21.6267C16.9468 20.8533 18.2268 20.8533 19.0002 21.6267L27.0002 29.6267L35.0002 21.6267C35.7735 20.8533 37.0535 20.8533 37.8268 21.6267C38.6002 22.4 38.6002 23.6533 37.8268 24.4533Z" fill="#1281D6"/>
</svg>
