<svg width="54" height="54" viewBox="0 0 54 54" fill="none" xmlns="http://www.w3.org/2000/svg">
<path d="M38.1735 0H15.8268C6.12016 0 0.333496 5.78667 0.333496 15.4933V37.8133C0.333496 47.5467 6.12016 53.3333 15.8268 53.3333H38.1468C47.8535 53.3333 53.6402 47.5467 53.6402 37.84V15.4933C53.6668 5.78667 47.8802 0 38.1735 0ZM34.4402 28.08L25.0268 37.4933C24.6268 37.8933 24.1202 38.08 23.6135 38.08C23.1068 38.08 22.6002 37.8933 22.2002 37.4933C21.4268 36.72 21.4268 35.44 22.2002 34.6667L30.2002 26.6667L22.2002 18.6667C21.4268 17.8933 21.4268 16.6133 22.2002 15.84C22.9735 15.0667 24.2535 15.0667 25.0268 15.84L34.4402 25.2533C35.2402 26.0267 35.2402 27.3067 34.4402 28.08Z" fill="#1281D6"/>
</svg>
