<svg width="21" height="37" viewBox="0 0 21 37" fill="none" xmlns="http://www.w3.org/2000/svg">
<path d="M18.75 31.502H2.25C1.65326 31.502 1.08097 31.739 0.659012 32.1609C0.237055 32.5829 0 33.1552 0 33.752C0 34.3487 0.237055 34.921 0.659012 35.343C1.08097 35.7649 1.65326 36.002 2.25 36.002H18.75C19.3467 36.002 19.919 35.7649 20.341 35.343C20.7629 34.921 21 34.3487 21 33.752C21 33.1552 20.7629 32.5829 20.341 32.1609C19.919 31.739 19.3467 31.502 18.75 31.502Z" fill="#0F6BB1"/>
<path d="M7.45299 16.307L4.79199 13.979C4.22965 13.4866 3.77883 12.88 3.46964 12.1995C3.16044 11.519 2.99999 10.7804 2.99899 10.033V3.75C2.99899 3.55109 2.91998 3.36032 2.77933 3.21967C2.63868 3.07902 2.44791 3 2.24899 3C2.05008 3 1.85931 3.07902 1.71866 3.21967C1.57801 3.36032 1.49899 3.55109 1.49899 3.75V10.028C1.49914 10.9903 1.70497 11.9415 2.10268 12.8178C2.50038 13.6941 3.08078 14.4753 3.80499 15.109L6.465 17.437C6.5453 17.5074 6.60965 17.5941 6.65373 17.6914C6.69782 17.7887 6.72063 17.8942 6.72063 18.001C6.72063 18.1078 6.69782 18.2133 6.65373 18.3106C6.60965 18.4079 6.5453 18.4946 6.465 18.565L3.80399 20.893C3.07996 21.5268 2.49975 22.308 2.10222 23.1843C1.70469 24.0606 1.49902 25.0117 1.49899 25.974V32.252C1.49899 32.4509 1.57801 32.6417 1.71866 32.7823C1.85931 32.923 2.05008 33.002 2.24899 33.002C2.44791 33.002 2.63868 32.923 2.77933 32.7823C2.91998 32.6417 2.99899 32.4509 2.99899 32.252V25.974C2.99927 25.2257 3.15938 24.4862 3.4686 23.8048C3.77782 23.1234 4.22902 22.5159 4.79199 22.023L7.45299 19.693C7.69424 19.4818 7.88758 19.2215 8.02003 18.9295C8.15249 18.6375 8.22102 18.3206 8.22102 18C8.22102 17.6794 8.15249 17.3625 8.02003 17.0705C7.88758 16.7785 7.69424 16.5182 7.45299 16.307Z" fill="#0F6BB1"/>
<path d="M14.533 17.434L17.194 15.106C17.9182 14.4723 18.4986 13.6911 18.8963 12.8148C19.294 11.9385 19.4999 10.9873 19.5 10.025V3.75C19.5 3.55109 19.421 3.36032 19.2803 3.21967C19.1397 3.07902 18.9489 3 18.75 3C18.5511 3 18.3603 3.07902 18.2197 3.21967C18.079 3.36032 18 3.55109 18 3.75V10.028C17.9997 10.7763 17.8396 11.5158 17.5304 12.1972C17.2212 12.8786 16.77 13.4861 16.207 13.979L13.546 16.309C13.3048 16.5202 13.1114 16.7805 12.979 17.0725C12.8465 17.3645 12.778 17.6814 12.778 18.002C12.778 18.3226 12.8465 18.6395 12.979 18.9315C13.1114 19.2235 13.3048 19.4838 13.546 19.695L16.207 22.023C16.7699 22.516 17.2211 23.1234 17.5303 23.8048C17.8395 24.4862 17.9997 25.2257 18 25.974V32.252C18 32.4509 18.079 32.6417 18.2197 32.7823C18.3603 32.923 18.5511 33.002 18.75 33.002C18.9489 33.002 19.1397 32.923 19.2803 32.7823C19.421 32.6417 19.5 32.4509 19.5 32.252V25.974C19.4999 25.0117 19.294 24.0605 18.8963 23.1842C18.4986 22.3079 17.9182 21.5267 17.194 20.893L14.534 18.565C14.4537 18.4946 14.3893 18.4079 14.3453 18.3106C14.3012 18.2133 14.2784 18.1078 14.2784 18.001C14.2784 17.8942 14.3012 17.7887 14.3453 17.6914C14.3893 17.5941 14.4537 17.5074 14.534 17.437L14.533 17.434Z" fill="#0F6BB1"/>
<path d="M18.75 0H2.25C1.65326 0 1.08097 0.237053 0.659012 0.65901C0.237055 1.08097 0 1.65326 0 2.25C0 2.84674 0.237055 3.41903 0.659012 3.84099C1.08097 4.26295 1.65326 4.5 2.25 4.5H18.75C19.3467 4.5 19.919 4.26295 20.341 3.84099C20.7629 3.41903 21 2.84674 21 2.25C21 1.65326 20.7629 1.08097 20.341 0.65901C19.919 0.237053 19.3467 0 18.75 0V0Z" fill="#0F6BB1"/>
<path d="M14.943 12.465C14.8864 12.3277 14.7903 12.2104 14.6669 12.1278C14.5436 12.0452 14.3985 12.001 14.25 12.001H6.75002C6.6017 12.0012 6.45676 12.0453 6.33348 12.1278C6.21021 12.2102 6.11413 12.3274 6.05733 12.4644C6.00054 12.6014 5.98559 12.7522 6.01436 12.8977C6.04314 13.0432 6.11434 13.1769 6.21901 13.282L9.96901 17.032C10.1101 17.1723 10.301 17.2511 10.5 17.2511C10.699 17.2511 10.8899 17.1723 11.031 17.032L14.781 13.282C14.886 13.1772 14.9574 13.0436 14.9863 12.8981C15.0151 12.7526 15 12.6019 14.943 12.465Z" fill="#0F6BB1"/>
<path d="M19.253 30.9458L11.004 23.4458C10.8613 23.3161 10.6741 23.2464 10.4813 23.2512C10.2885 23.2561 10.105 23.3351 9.96899 23.4718L2.46899 30.9718C2.3283 31.1125 2.24925 31.3034 2.24925 31.5023C2.24925 31.7013 2.3283 31.8921 2.46899 32.0328C2.60969 32.1735 2.80052 32.2526 2.9995 32.2526C3.19847 32.2526 3.3893 32.1735 3.53 32.0328L4.061 31.5018H17.635L18.246 32.0568C18.319 32.123 18.4043 32.1742 18.4971 32.2074C18.5899 32.2406 18.6883 32.2552 18.7868 32.2504C18.8852 32.2455 18.9817 32.2214 19.0708 32.1793C19.1599 32.1371 19.2398 32.0779 19.306 32.0048C19.3722 31.9318 19.4233 31.8465 19.4565 31.7537C19.4897 31.6609 19.5044 31.5625 19.4995 31.4641C19.4947 31.3656 19.4705 31.2691 19.4284 31.18C19.3863 31.091 19.327 31.011 19.254 30.9448L19.253 30.9458Z" fill="#0F6BB1"/>
</svg>
