<svg width="29" height="29" viewBox="0 0 29 29" fill="none" xmlns="http://www.w3.org/2000/svg">
<path fill-rule="evenodd" clip-rule="evenodd" d="M14.7978 0.00239217C14.6986 0.000583622 14.5994 -0.000200375 14.5001 4.33573e-05C13.425 0.000360562 12.3538 0.118671 11.3046 0.352867C11.3056 0.354918 11.3067 0.356969 11.3077 0.359021C8.65598 0.959903 6.20338 2.29895 4.25058 4.25175C2.70652 5.79581 1.54655 7.65196 0.831747 9.672C0.829066 9.67024 0.826386 9.66847 0.823706 9.66671C0.277046 11.2195 -0.00118573 12.8539 5.6778e-05 14.5C-0.00528442 16.4047 0.366261 18.2911 1.09511 20.0508C1.78859 21.7251 2.79206 23.2534 4.05111 24.5547C4.11594 24.6217 4.18144 24.6881 4.24762 24.7539C5.59034 26.1043 7.18759 27.1749 8.94691 27.9038C10.6157 28.5952 12.3992 28.9658 14.2036 28.9978C14.3024 28.9996 14.4013 29.0004 14.5002 29.0002C15.5752 28.9998 16.6464 28.8815 17.6956 28.6473C17.6946 28.6453 17.6936 28.6432 17.6925 28.6412C20.3443 28.0403 22.7968 26.7013 24.7496 24.7485C26.2937 23.2044 27.4537 21.3482 28.1685 19.3282C28.1712 19.33 28.1738 19.3317 28.1765 19.3335C28.7232 17.7807 29.0014 16.1463 29.0002 14.5002C29.0055 12.5955 28.634 10.7091 27.9051 8.94938C27.2109 7.27337 26.2061 5.74365 24.9452 4.44153C24.8817 4.37588 24.8175 4.31081 24.7526 4.24632C23.4099 2.89592 21.8126 1.82533 20.0533 1.0964C18.3849 0.405118 16.6018 0.0345273 14.7978 0.00239217ZM14.4489 1.20847C14.466 1.20844 14.4831 1.20846 14.5002 1.2085C16.2461 1.20338 17.9756 1.54512 19.5884 2.21387C21.2011 2.88262 22.6655 3.86461 23.8954 5.10372C24.5246 5.72811 25.0876 6.4128 25.577 7.14666C26.0505 7.85831 26.4551 8.61594 26.784 9.40947C27.4529 11.023 27.7953 12.7534 27.7917 14.5C27.796 16.2461 27.4529 17.9754 26.784 19.5883C26.1151 21.2011 25.1341 22.6659 23.8953 23.8965C22.6648 25.1349 21.2009 26.1165 19.5883 26.7852C18.7595 27.1288 17.8999 27.3862 17.023 27.5546C16.2072 27.7092 15.3792 27.7888 14.5487 27.7917C14.5325 27.7918 14.5163 27.7917 14.5001 27.7917C12.7541 27.7968 11.0246 27.4551 9.41184 26.7863C7.79908 26.1176 6.33477 25.1356 5.10479 23.8965C4.47571 23.2722 3.91279 22.5876 3.42347 21.8539C2.94985 21.1421 2.54522 20.3844 2.21623 19.5907C1.54737 17.9772 1.20488 16.2469 1.2085 14.5002C1.20425 12.7541 1.54732 11.0248 2.21623 9.41195C2.88515 7.79909 3.86614 6.33426 5.10491 5.10372C6.33541 3.86532 7.79931 2.88375 9.41195 2.21505C10.2407 1.87142 11.1003 1.61403 11.9771 1.44557C12.792 1.29118 13.6192 1.21153 14.4489 1.20847Z" fill="white"/>
<path d="M15.536 10.512C15.3333 10.512 15.088 10.432 14.8 10.272C14.5227 10.1013 14.2827 9.904 14.08 9.68C13.8773 9.44533 13.776 9.23733 13.776 9.056C13.776 8.768 13.8507 8.48 14 8.192C14.1493 7.904 14.336 7.696 14.56 7.568C14.6667 7.51467 14.8373 7.488 15.072 7.488C15.456 7.488 15.84 7.57333 16.224 7.744C16.6187 7.91467 16.8587 8.128 16.944 8.384C16.9653 8.43733 16.976 8.51733 16.976 8.624C16.976 8.86933 16.9013 9.14133 16.752 9.44C16.6027 9.73867 16.416 9.99467 16.192 10.208C15.968 10.4107 15.7493 10.512 15.536 10.512ZM14.448 20C14.1707 20 13.856 19.9093 13.504 19.728C13.1627 19.536 12.864 19.3173 12.608 19.072C12.3627 18.816 12.24 18.6027 12.24 18.432C12.24 18.24 12.3093 17.9573 12.448 17.584C12.5867 17.2107 12.7947 16.6987 13.072 16.048C13.2853 15.5467 13.4453 15.1573 13.552 14.88C13.6587 14.592 13.712 14.3893 13.712 14.272C13.712 14.1867 13.6587 14.096 13.552 14C13.456 13.8933 13.3067 13.7653 13.104 13.616C12.8693 13.4347 12.6933 13.2907 12.576 13.184C12.4693 13.0773 12.416 12.9653 12.416 12.848C12.416 12.624 12.5173 12.3627 12.72 12.064C12.9333 11.7653 13.1787 11.5093 13.456 11.296C13.744 11.0827 13.9893 10.976 14.192 10.976C14.4373 10.976 14.704 11.0827 14.992 11.296C15.2907 11.5093 15.5413 11.7653 15.744 12.064C15.9573 12.352 16.064 12.5867 16.064 12.768C16.064 13.2373 15.9413 13.9093 15.696 14.784C15.4613 15.648 15.1573 16.5813 14.784 17.584C15.04 17.4667 15.264 17.344 15.456 17.216C15.648 17.088 15.9147 16.8907 16.256 16.624C16.736 16.784 17.088 17.0133 17.312 17.312C17.536 17.6 17.648 17.9147 17.648 18.256C17.648 18.5333 17.4667 18.8053 17.104 19.072C16.752 19.3387 16.32 19.5627 15.808 19.744C15.296 19.9147 14.8427 20 14.448 20Z" fill="white"/>
</svg>
