<svg width="22" height="22" viewBox="0 0 22 22" fill="none" xmlns="http://www.w3.org/2000/svg">
<path d="M13.655 11.838C13.4137 11.838 13.1822 11.9339 13.0115 12.1045C12.8409 12.2752 12.745 12.5067 12.745 12.748V16.389C12.7447 16.6303 12.6488 16.8616 12.4782 17.0322C12.3076 17.2028 12.0763 17.2987 11.835 17.299H9.1V3.645C9.09899 3.26335 8.97901 2.89151 8.75675 2.58125C8.5345 2.27099 8.22103 2.03775 7.86 1.914L7.59 1.824H11.83C12.0713 1.82426 12.3026 1.92022 12.4732 2.09083C12.6438 2.26143 12.7397 2.49273 12.74 2.734V5.466C12.74 5.70748 12.8359 5.93907 13.0067 6.10982C13.1774 6.28057 13.409 6.3765 13.6505 6.3765C13.892 6.3765 14.1236 6.28057 14.2943 6.10982C14.4651 5.93907 14.561 5.70748 14.561 5.466V2.735C14.5613 2.01094 14.2743 1.31633 13.7631 0.803595C13.2518 0.290855 12.5581 0.00185381 11.834 0L2.048 0C2.01423 0.00427797 1.98082 0.0109616 1.948 0.02C1.907 0.02 1.865 0 1.821 0C1.58165 0.000131224 1.34467 0.0474218 1.1236 0.13917C0.902527 0.230918 0.7017 0.365325 0.532591 0.534712C0.363483 0.704099 0.229406 0.905147 0.138023 1.12637C0.0466387 1.34759 -0.000261674 1.58465 1.0981e-06 1.824V18.21C0.00121942 18.5915 0.1213 18.9631 0.34354 19.2732C0.56578 19.5832 0.87913 19.8163 1.24 19.94L6.718 21.766C6.9006 21.8228 7.09078 21.8514 7.282 21.851C7.76419 21.8499 8.22629 21.6578 8.56706 21.3166C8.90783 20.9755 9.09947 20.5132 9.1 20.031V19.121H11.831C12.5551 19.1202 13.2492 18.8322 13.7612 18.3202C14.2732 17.8082 14.5612 17.1141 14.562 16.39V12.748C14.562 12.5067 14.4661 12.2752 14.2955 12.1045C14.1248 11.9339 13.8933 11.838 13.652 11.838H13.655Z" fill="#737D87"/>
<path d="M21.5815 8.46373L17.9405 4.82273C17.8132 4.69525 17.651 4.60841 17.4743 4.57321C17.2976 4.53801 17.1145 4.55603 16.9481 4.62499C16.7817 4.69395 16.6395 4.81075 16.5395 4.9606C16.4395 5.11044 16.3863 5.2866 16.3865 5.46673V8.19773H12.7455C12.504 8.19773 12.2724 8.29365 12.1017 8.46441C11.9309 8.63516 11.835 8.86675 11.835 9.10823C11.835 9.34971 11.9309 9.5813 12.1017 9.75205C12.2724 9.9228 12.504 10.0187 12.7455 10.0187H16.3865V12.7497C16.3863 12.9299 16.4395 13.106 16.5395 13.2559C16.6395 13.4057 16.7817 13.5225 16.9481 13.5915C17.1145 13.6604 17.2976 13.6785 17.4743 13.6433C17.651 13.6081 17.8132 13.5212 17.9405 13.3937L21.5815 9.75273C21.6661 9.66829 21.7332 9.56799 21.7791 9.45757C21.8249 9.34715 21.8484 9.22878 21.8484 9.10923C21.8484 8.98968 21.8249 8.87131 21.7791 8.76089C21.7332 8.65046 21.6661 8.55016 21.5815 8.46573V8.46373Z" fill="#737D87"/>
</svg>
