<svg width="22" height="15" viewBox="0 0 22 15" fill="none" xmlns="http://www.w3.org/2000/svg">
<path d="M14.2207 7.48366L21.4527 12.0557V2.72266L14.2207 7.48366Z" fill="#737D87"/>
<path d="M0 2.72266V12.0597L7.232 7.48766L0 2.72266Z" fill="#737D87"/>
<path d="M20.112 0H1.34102C1.02352 0.00270957 0.717569 0.119429 0.478938 0.328873C0.240308 0.538317 0.0848892 0.826537 0.0410156 1.141L10.727 8.182L21.413 1.141C21.3691 0.826368 21.2136 0.53801 20.9747 0.328545C20.7359 0.119079 20.4297 0.00247082 20.112 0Z" fill="#737D87"/>
<path d="M12.9931 8.29395L11.0931 9.54395C10.9836 9.61562 10.8555 9.65381 10.7246 9.65381C10.5937 9.65381 10.4656 9.61562 10.3561 9.54395L8.45609 8.29297L0.0380859 13.6169C0.0835355 13.9299 0.239691 14.2163 0.478213 14.424C0.716735 14.6317 1.02182 14.747 1.33809 14.749H20.1121C20.4284 14.747 20.7334 14.6317 20.972 14.424C21.2105 14.2163 21.3666 13.9299 21.4121 13.6169L12.9931 8.29395Z" fill="#737D87"/>
</svg>
