<svg width="32" height="30" viewBox="0 0 32 30" fill="none" xmlns="http://www.w3.org/2000/svg">
<path d="M32 30H20C20.0014 28.4233 20.6228 26.9102 21.73 25.7876C22.8372 24.665 24.3414 24.0231 25.918 24C25.1364 23.9789 24.3938 23.6536 23.8486 23.0933C23.3034 22.5329 22.9987 21.7818 22.999 21C22.999 20.2044 23.3148 19.4415 23.8774 18.8789C24.4401 18.3163 25.2034 18 25.999 18C26.7947 18 27.5575 18.3163 28.1201 18.8789C28.6827 19.4415 28.999 20.2044 28.999 21C28.9993 21.7815 28.6947 22.532 28.1499 23.0923C27.6051 23.6526 26.8632 23.9784 26.082 24C27.6584 24.0236 29.1624 24.6661 30.2695 25.7886C31.3766 26.911 31.9981 28.4234 32 30ZM12 30H0C0.0014059 28.4233 0.622767 26.9102 1.72998 25.7876C2.83719 24.665 4.34142 24.0231 5.91797 24C5.13644 23.9789 4.39384 23.6536 3.84863 23.0933C3.30342 22.5329 2.99874 21.7818 2.99902 21C2.99902 20.2044 3.31483 19.4415 3.87744 18.8789C4.44005 18.3163 5.20337 18 5.99902 18C6.79467 18 7.55751 18.3163 8.12012 18.8789C8.68273 19.4415 8.99902 20.2044 8.99902 21C8.99932 21.7816 8.69441 22.5325 8.14941 23.0928C7.60442 23.6531 6.86241 23.9786 6.08105 24C7.65753 24.0234 9.1614 24.6656 10.2686 25.7881C11.3757 26.9106 11.9974 28.4234 11.999 30H12ZM11.5 24.4292V22.7642C12.89 23.4867 14.4335 23.8636 16 23.8638C17.5666 23.8641 19.1102 23.4872 20.5 22.7642V24.4312C19.0813 25.0525 17.5488 25.3719 16 25.3691C14.4511 25.372 12.9185 25.0523 11.5 24.4302V24.4292ZM27.2368 14.5H25.7368C25.7418 14.381 25.7441 14.2541 25.7441 14.1201C25.7463 12.4848 25.3358 10.8755 24.5508 9.44092C23.7658 8.00636 22.6314 6.7929 21.2529 5.91309V4.17383C23.0629 5.12857 24.5774 6.55961 25.6333 8.3125C26.6892 10.0654 27.2464 12.0738 27.2441 14.1201C27.2441 14.2561 27.2441 14.38 27.2441 14.498L27.2368 14.5ZM6.25781 14.5H4.75781C4.75781 14.353 4.75098 14.2321 4.75098 14.1201C4.74995 12.1387 5.27308 10.1921 6.26709 8.47803C7.23294 6.81841 8.60474 5.43184 10.2539 4.44824V6.24805C9.01786 7.15559 8.01211 8.34048 7.31738 9.70752C6.62266 11.0746 6.25835 12.5857 6.25391 14.1191C6.25391 14.2461 6.25421 14.3731 6.26221 14.4971L6.25781 14.5ZM22 12H10C10.0019 10.4236 10.6231 8.91099 11.73 7.78857C12.8369 6.66616 14.3408 6.02388 15.917 6C15.1358 5.97838 14.3939 5.65257 13.8491 5.09229C13.3043 4.532 12.9997 3.78148 13 3C13 2.20435 13.3163 1.44152 13.8789 0.878906C14.4415 0.316297 15.2044 0 16 0C16.7956 0 17.5585 0.316297 18.1211 0.878906C18.6837 1.44152 19 2.20435 19 3C19.0003 3.78148 18.6957 4.532 18.1509 5.09229C17.6061 5.65257 16.8642 5.97838 16.083 6C17.6592 6.02413 19.163 6.66673 20.27 7.78906C21.377 8.91139 21.9985 10.4236 22.001 12H22Z" fill="#737D87"/>
</svg>
