<svg width="18" height="24" viewBox="0 0 18 24" fill="none" xmlns="http://www.w3.org/2000/svg">
<path d="M9 0C10.1867 0 11.3467 0.351894 12.3334 1.01118C13.3201 1.67047 14.0892 2.60754 14.5433 3.7039C14.9974 4.80026 15.1162 6.00666 14.8847 7.17054C14.6532 8.33443 14.0818 9.40352 13.2426 10.2426C12.4035 11.0818 11.3344 11.6532 10.1705 11.8847C9.00666 12.1162 7.80026 11.9974 6.7039 11.5433C5.60755 11.0892 4.67047 10.3201 4.01118 9.33342C3.3519 8.34673 3 7.18669 3 6C3.00159 4.40919 3.63424 2.88399 4.75912 1.75911C5.88399 0.634239 7.40919 0.00158843 9 0ZM16.5 24H1.5C1.10218 24 0.720651 23.842 0.439346 23.5607C0.158042 23.2794 0 22.8978 0 22.5C0.00238179 20.5116 0.793326 18.6053 2.19933 17.1993C3.60534 15.7933 5.51161 15.0024 7.5 15H10.5C12.4886 15.0019 14.3951 15.7926 15.8013 17.1987C17.2074 18.6049 17.9981 20.5114 18 22.5C18 22.8978 17.842 23.2794 17.5607 23.5607C17.2794 23.842 16.8978 24 16.5 24Z" fill="#737D87"/>
</svg>
