<svg width="11" height="10" viewBox="0 0 11 10" fill="none" xmlns="http://www.w3.org/2000/svg">
<path d="M10.3171 8.18167H8.72609C8.24393 8.18167 7.78151 7.99014 7.44057 7.6492C7.09963 7.30825 6.90809 6.84584 6.90809 6.36368C6.90809 5.88151 7.09963 5.4191 7.44057 5.07816C7.78151 4.73721 8.24393 4.54568 8.72609 4.54568H10.3171C10.3773 4.54568 10.435 4.52176 10.4776 4.47919C10.5202 4.43662 10.5441 4.37888 10.5441 4.31868V3.63668C10.543 3.40898 10.4563 3.19003 10.3013 3.02329C10.1462 2.85656 9.93411 2.75425 9.70709 2.73668L8.40209 0.454675C8.3433 0.351414 8.26463 0.260817 8.17064 0.188114C8.07665 0.115411 7.96919 0.0620407 7.85447 0.031082C7.73975 0.000123283 7.62003 -0.00781051 7.50222 0.00773839C7.38442 0.0232873 7.27086 0.062011 7.16809 0.121675L2.69609 2.72668H1.90809C1.78842 2.72641 1.66987 2.74976 1.55924 2.79537C1.4486 2.84098 1.34805 2.90797 1.26333 2.9925C1.17862 3.07703 1.11141 3.17743 1.06555 3.28797C1.0197 3.39851 0.996093 3.517 0.996094 3.63668L0.996094 9.09067C0.996225 9.21026 1.01993 9.32865 1.06584 9.43907C1.11176 9.54949 1.17899 9.64978 1.26369 9.7342C1.34839 9.81862 1.4489 9.88552 1.55947 9.93108C1.67004 9.97663 1.78851 9.99994 1.90809 9.99967H9.63509C9.87609 9.99941 10.1071 9.90356 10.2776 9.73314C10.448 9.56273 10.5438 9.33167 10.5441 9.09067V8.40868C10.5441 8.34847 10.5202 8.29073 10.4776 8.24816C10.435 8.20559 10.3773 8.18167 10.3171 8.18167ZM8.68409 1.86168L9.18409 2.72668H7.19609L8.68409 1.86168ZM3.59609 2.72668L7.39609 0.514675C7.44674 0.484929 7.50282 0.465622 7.56104 0.457894C7.61927 0.450165 7.67844 0.454171 7.73509 0.469675C7.79233 0.484952 7.84595 0.511479 7.89282 0.547706C7.9397 0.583934 7.97888 0.629137 8.00809 0.680675L4.49609 2.72668H3.59609Z" fill="white"/>
<path d="M10.3185 5H8.72745C8.37222 5.00962 8.03478 5.1575 7.78693 5.41216C7.53907 5.66681 7.40039 6.00815 7.40039 6.36351C7.40039 6.71887 7.53907 7.06019 7.78693 7.31485C8.03478 7.56951 8.37222 7.71738 8.72745 7.72701H10.3185C10.4992 7.72674 10.6726 7.6548 10.8004 7.52696C10.9283 7.39912 11.0002 7.22579 11.0005 7.045V5.681C10.9999 5.50038 10.9279 5.32732 10.8 5.19969C10.6722 5.07207 10.4991 5.00026 10.3185 5ZM8.72745 6.81801C8.63746 6.81801 8.54949 6.79131 8.47467 6.74132C8.39985 6.69132 8.34154 6.62027 8.3071 6.53712C8.27266 6.45398 8.26363 6.36249 8.28119 6.27423C8.29875 6.18597 8.3421 6.10491 8.40573 6.04128C8.46936 5.97764 8.55041 5.9343 8.63867 5.91675C8.72693 5.89919 8.81844 5.9082 8.90158 5.94264C8.98472 5.97708 9.05578 6.03539 9.10577 6.11021C9.15577 6.18504 9.18246 6.27302 9.18246 6.36301C9.18246 6.48368 9.13452 6.59941 9.04919 6.68474C8.96387 6.77007 8.84812 6.81801 8.72745 6.81801Z" fill="white"/>
</svg>
