<svg width="25" height="26" viewBox="0 0 25 26" fill="none" xmlns="http://www.w3.org/2000/svg">
<path fill-rule="evenodd" clip-rule="evenodd" d="M12 24C10.4239 24.0039 8.86251 23.695 7.4063 23.0918C5.95008 22.4887 4.62751 21.6036 3.51567 20.4864C2.39745 19.3748 1.51178 18.0524 0.908249 16.5958C0.304714 15.1391 -0.00432209 13.5768 4.56597e-05 12C0.00348674 8.81851 1.26793 5.76829 3.51762 3.5186C5.76731 1.26891 8.8185 0.0034892 12 4.81168e-05C13.5768 -0.00443018 15.1391 0.303734 16.5957 0.907275C18.0524 1.51082 19.3748 2.39736 20.4864 3.51567C21.604 4.62717 22.4906 5.95001 23.0938 7.4063C23.697 8.86259 24.0045 10.4238 24 12C24.0011 13.3624 23.7708 14.715 23.3184 16C23.0359 15.8139 22.7389 15.651 22.4297 15.5137C22.8107 14.3814 23.0029 13.1947 23 12C23.0043 10.5549 22.7216 9.12302 22.168 7.78813C21.6144 6.45325 20.8012 5.24163 19.7754 4.22368C18.7575 3.19821 17.5457 2.38553 16.211 1.83208C14.8763 1.27863 13.4449 0.995812 12 1.00005C10.5553 0.996531 9.12371 1.27965 7.78911 1.83306C6.45451 2.38646 5.243 3.1988 4.22466 4.22368C3.19947 5.24206 2.38761 6.45433 1.83403 7.78911C1.28045 9.12389 0.996527 10.555 1.00005 12C0.997046 13.4456 1.28049 14.8776 1.83403 16.2129C2.38757 17.5483 3.19984 18.7608 4.22466 19.7803C5.24316 20.8047 6.45449 21.6163 7.78911 22.169C9.12373 22.7217 10.5555 23.0044 12 23C12.7613 23.0001 13.5201 22.9223 14.2657 22.7686C14.3642 23.0921 14.4909 23.4068 14.6446 23.7081C13.7762 23.9019 12.8897 23.9998 12 24ZM20 26C18.6746 25.9979 17.404 25.4704 16.4668 24.5332C15.5296 23.596 15.0021 22.3254 15 21C15.0026 19.6747 15.5297 18.4049 16.4668 17.4678C17.4039 16.5307 18.6747 16.0026 20 16C21.3256 16.0016 22.5959 16.5285 23.5332 17.4658C24.4705 18.4032 24.9984 19.6744 25 21C25 22.3261 24.4728 23.5975 23.5352 24.5352C22.5975 25.4728 21.3261 26 20 26ZM17.7129 20.0117C17.6197 20.0118 17.5273 20.0312 17.4414 20.0674C17.3555 20.1036 17.278 20.156 17.2129 20.2227C17.1462 20.2878 17.0929 20.3663 17.0566 20.4521C17.0204 20.538 17.0021 20.6295 17.002 20.7227C17.0013 20.8177 17.0204 20.9121 17.0566 21C17.0929 21.0879 17.1454 21.1684 17.2129 21.2354L18.7266 22.75C18.7925 22.8173 18.8721 22.8708 18.959 22.9072C19.0459 22.9436 19.1382 22.9621 19.2324 22.9619C19.327 22.9627 19.4205 22.9446 19.5078 22.9082C19.5951 22.8718 19.6743 22.8178 19.7402 22.75L22.2715 20.2227C22.404 20.0873 22.4785 19.9062 22.4785 19.7168C22.4785 19.5274 22.404 19.3453 22.2715 19.21C22.205 19.1429 22.1263 19.0899 22.0391 19.0537C21.9519 19.0175 21.8581 18.9988 21.7637 18.999C21.6695 18.9983 21.5772 19.0165 21.4902 19.0527C21.4033 19.089 21.3236 19.1426 21.2578 19.21L19.2324 21.2314L18.2246 20.2227C18.1579 20.1554 18.0798 20.1026 17.9922 20.0664C17.9046 20.0302 17.8096 20.0112 17.7148 20.0117H17.7129ZM13.183 13.643L13.827 15.691H15.44L16.089 13.643H17.763V12.96H16.305L17.559 9H16.125L14.865 12.96H14.373L13.136 9H11.748L10.462 12.96H9.98998L8.75898 9H7.20398L8.46398 12.96H7.00098V13.643H8.68198L9.33398 15.691H10.934L11.599 13.643H13.183ZM14.644 13.641L14.613 13.741L14.582 13.641H14.644ZM10.232 13.642L10.213 13.702L10.202 13.642H10.232ZM12.397 11.16L12.963 12.96H11.813L12.397 11.16Z" fill="#737D87"/>
</svg>
