<svg width="54" height="54" viewBox="0 0 54 54" fill="none" xmlns="http://www.w3.org/2000/svg">
<path d="M38.1735 0H15.8268C6.12016 0 0.333496 5.78667 0.333496 15.4933V37.8133C0.333496 47.5467 6.12016 53.3333 15.8268 53.3333H38.1468C47.8535 53.3333 53.6402 47.5467 53.6402 37.84V15.4933C53.6668 5.78667 47.8802 0 38.1735 0ZM31.7735 34.6667C32.5468 35.44 32.5468 36.72 31.7735 37.4933C31.3735 37.8933 30.8668 38.08 30.3602 38.08C29.8535 38.08 29.3468 37.8933 28.9468 37.4933L19.5335 28.08C18.7602 27.3067 18.7602 26.0267 19.5335 25.2533L28.9468 15.84C29.7202 15.0667 31.0002 15.0667 31.7735 15.84C32.5468 16.6133 32.5468 17.8933 31.7735 18.6667L23.7735 26.6667L31.7735 34.6667Z" fill="#1281D6"/>
</svg>
