<svg width="19" height="18" viewBox="0 0 19 18" fill="none" xmlns="http://www.w3.org/2000/svg">
<path d="M1.18164 9.42773V16.5178C1.18191 16.8312 1.30652 17.1316 1.52813 17.3532C1.74974 17.5749 2.05024 17.6995 2.36364 17.6997H8.27164V9.42874L1.18164 9.42773Z" fill="white"/>
<path d="M17.725 4.70214H13.986C14.2214 4.54675 14.442 4.37001 14.645 4.17414C15.103 3.71163 15.3599 3.08704 15.3599 2.43614C15.3599 1.78523 15.103 1.16064 14.645 0.698135C14.1793 0.250201 13.5582 0 12.912 0C12.2658 0 11.6447 0.250201 11.179 0.698135C10.666 1.21214 9.307 3.30514 9.495 4.69814H9.411C9.598 3.29814 8.239 1.20714 7.727 0.698135C7.26127 0.250201 6.64018 0 5.994 0C5.34782 0 4.72673 0.250201 4.261 0.698135C3.80372 1.16102 3.54729 1.78547 3.54729 2.43614C3.54729 3.0868 3.80372 3.71125 4.261 4.17414C4.46493 4.36975 4.68617 4.54647 4.922 4.70214H1.182C0.868849 4.70266 0.568661 4.82723 0.347136 5.04856C0.125611 5.2699 0.000793012 5.56999 0 5.88314L0 7.65514C0 7.73275 0.0152867 7.8096 0.0449872 7.8813C0.0746877 7.95301 0.11822 8.01816 0.1731 8.07304C0.227979 8.12792 0.293131 8.17145 0.364834 8.20115C0.436538 8.23085 0.513389 8.24614 0.591 8.24614H8.271V5.88314H10.634V8.24614H18.315C18.3926 8.24614 18.4695 8.23085 18.5412 8.20115C18.6129 8.17145 18.678 8.12792 18.7329 8.07304C18.7878 8.01816 18.8313 7.95301 18.861 7.8813C18.8907 7.8096 18.906 7.73275 18.906 7.65514V5.88314C18.9055 5.57008 18.7809 5.26999 18.5595 5.04863C18.3381 4.82726 18.0381 4.70266 17.725 4.70214ZM8.2 4.66314C8.13233 4.69712 8.05624 4.71067 7.981 4.70214C6.9126 4.52581 5.91474 4.05441 5.1 3.34114C4.86219 3.09995 4.72888 2.77485 4.72888 2.43614C4.72888 2.09743 4.86219 1.77233 5.1 1.53114C5.21715 1.41292 5.35655 1.31908 5.51017 1.25504C5.66379 1.191 5.82857 1.15803 5.995 1.15803C6.16143 1.15803 6.32621 1.191 6.47983 1.25504C6.63345 1.31908 6.77285 1.41292 6.89 1.53114C7.685 2.33114 8.477 4.37814 8.2 4.66314ZM10.92 4.70214C10.752 4.70214 10.703 4.66414 10.703 4.66314C10.428 4.37814 11.219 2.33214 12.016 1.53014C12.2574 1.29951 12.5797 1.17293 12.9135 1.17765C13.2473 1.18238 13.5658 1.31803 13.8006 1.55539C14.0353 1.79275 14.1674 2.11282 14.1684 2.44665C14.1694 2.78048 14.0393 3.10135 13.806 3.34014C12.9905 4.05428 11.9916 4.52606 10.922 4.70214H10.92Z" fill="white"/>
<path d="M10.6348 9.42773V17.6988H16.5428C16.8562 17.6988 17.1569 17.5742 17.3786 17.3525C17.6002 17.1309 17.7248 16.8302 17.7248 16.5168V9.42676L10.6348 9.42773Z" fill="white"/>
</svg>
