<svg width="34" height="34" viewBox="0 0 34 34" fill="none" xmlns="http://www.w3.org/2000/svg">
<path d="M16.5467 9.02568C19.0391 9.02568 21.0596 7.00521 21.0596 4.51284C21.0596 2.02047 19.0391 0 16.5467 0C14.0543 0 12.0339 2.02047 12.0339 4.51284C12.0339 7.00521 14.0543 9.02568 16.5467 9.02568Z" fill="#0F6BB1"/>
<path d="M22.7437 20.265L21.805 12.9512C21.7558 12.4404 21.5177 11.9665 21.1373 11.622C20.757 11.2776 20.2618 11.0875 19.7487 11.0889H18.6152C18.3412 11.089 18.0783 11.1971 17.8834 11.3898L16.5476 12.7256L15.2118 11.3898C15.0169 11.1971 14.754 11.089 14.48 11.0889H13.3502C12.8413 11.0859 12.3494 11.2719 11.9696 11.6108C11.5899 11.9497 11.3494 12.4174 11.2946 12.9234L10.3537 20.2658C10.3355 20.4113 10.3484 20.5591 10.3916 20.6994C10.4348 20.8396 10.5073 20.969 10.6043 21.0791C10.7013 21.1892 10.8206 21.2774 10.9543 21.3379C11.0879 21.3984 11.2329 21.4298 11.3796 21.4301H12.4966L13.3608 31.9788C13.4104 32.4896 13.6488 32.9636 14.0294 33.3079C14.41 33.6521 14.9054 33.842 15.4186 33.8404H17.6833C18.1994 33.8406 18.697 33.6478 19.0782 33.2999C19.4594 32.9519 19.6967 32.474 19.7434 31.96L20.6061 21.4301H21.7208C21.8676 21.4301 22.0127 21.3988 22.1465 21.3382C22.2802 21.2776 22.3995 21.1892 22.4963 21.0788C22.5937 20.969 22.6663 20.8395 22.709 20.699C22.7517 20.5585 22.7636 20.4105 22.7437 20.265Z" fill="#0F6BB1"/>
<path d="M26.7007 9.02549C28.9853 9.02549 30.8374 7.1734 30.8374 4.88872C30.8374 2.60405 28.9853 0.751953 26.7007 0.751953C24.416 0.751953 22.5639 2.60405 22.5639 4.88872C22.5639 7.1734 24.416 9.02549 26.7007 9.02549Z" fill="#0F6BB1"/>
<path d="M6.20568 0.751953C5.38734 0.751953 4.58739 0.994666 3.90702 1.44939C3.22665 1.90411 2.69644 2.5504 2.38344 3.30652C2.07045 4.06263 1.98875 4.89459 2.14867 5.69715C2.3086 6.49971 2.70296 7.2368 3.28187 7.81519C3.86079 8.39358 4.59824 8.78727 5.40094 8.94646C6.20365 9.10566 7.03553 9.0232 7.79136 8.70952C8.54719 8.39584 9.19301 7.86503 9.64711 7.18425C10.1012 6.50347 10.3432 5.7033 10.3424 4.88496C10.3405 3.78878 9.90386 2.73812 9.12839 1.96335C8.35292 1.18859 7.30186 0.752947 6.20568 0.751953Z" fill="#0F6BB1"/>
<path d="M33.0847 20.2642L32.1453 12.9527C32.0966 12.4417 31.8588 11.9674 31.4786 11.6226C31.0983 11.2778 30.603 11.0875 30.0897 11.0889H28.9563C28.6822 11.089 28.4193 11.1971 28.2244 11.3897L26.8886 12.7255L25.5528 11.3897C25.3584 11.1973 25.096 11.0892 24.8225 11.0889H23.689C23.565 11.1001 23.4424 11.123 23.3227 11.1573C23.6072 11.6332 23.7903 12.1628 23.8605 12.7127L24.7977 20.0017C24.8542 20.4409 24.8159 20.8872 24.6852 21.3103C24.5546 21.7334 24.3346 22.1236 24.0403 22.4545C23.7536 22.767 23.404 23.0151 23.0143 23.1825L23.7011 29.9112C23.7507 30.422 23.9891 30.8959 24.3697 31.2402C24.7503 31.5845 25.2457 31.7744 25.7589 31.7727H28.0236C28.5397 31.773 29.0373 31.5802 29.4185 31.2322C29.7997 30.8843 30.037 30.4064 30.0837 29.8924L30.9442 21.4308H32.0588C32.2056 21.4308 32.3507 21.3994 32.4845 21.3389C32.6182 21.2783 32.7374 21.1899 32.8343 21.0795C32.9324 20.9698 33.0057 20.8401 33.0489 20.6993C33.0922 20.5586 33.1044 20.4101 33.0847 20.2642Z" fill="#0F6BB1"/>
<path d="M9.04723 22.4462C8.7559 22.1165 8.53813 21.7285 8.40845 21.308C8.27876 20.8876 8.24012 20.4443 8.29509 20.0078L9.23602 12.6631C9.30046 12.1311 9.47599 11.6186 9.75124 11.1589C9.63766 11.1263 9.52135 11.1041 9.40375 11.0927H8.27403C8.00001 11.0928 7.73708 11.2009 7.5422 11.3935L6.2064 12.7293L4.8706 11.3935C4.67606 11.199 4.41237 11.0895 4.13726 11.0889H3.00906C2.50011 11.0859 2.00817 11.2719 1.62844 11.6108C1.24871 11.9497 1.0082 12.4174 0.953457 12.9234L0.00801726 20.2703C-0.0102031 20.4159 0.0027165 20.5637 0.0459202 20.7039C0.089124 20.8441 0.161626 20.9735 0.258624 21.0836C0.355621 21.1937 0.474901 21.2819 0.608563 21.3424C0.742224 21.4029 0.887216 21.4343 1.03394 21.4346H2.15086L3.01507 29.915C3.0656 30.4252 3.30453 30.8983 3.68519 31.2419C4.06586 31.5854 4.56092 31.7747 5.07368 31.7727H7.33837C7.85514 31.7739 8.35361 31.5816 8.73561 31.2335C9.11761 30.8855 9.35544 30.407 9.40224 29.8924L10.0889 23.1803C9.69464 23.0103 9.33992 22.7604 9.04723 22.4462Z" fill="#0F6BB1"/>
</svg>
