<svg width="36" height="27" viewBox="0 0 36 27" fill="none" xmlns="http://www.w3.org/2000/svg">
<path d="M34.4201 10.9121C34.3576 10.7877 34.2618 10.6831 34.1433 10.61C34.0248 10.5369 33.8884 10.4981 33.7492 10.498H27V11.9978H34.9634L34.4201 10.9121Z" fill="#0F6BB1"/>
<path d="M23.9211 0.413997C23.8587 0.289718 23.763 0.185213 23.6447 0.112117C23.5264 0.0390201 23.3901 0.000205136 23.251 0H12.7505C12.6114 0.000205136 12.4751 0.0390201 12.3568 0.112117C12.2385 0.185213 12.1428 0.289718 12.0804 0.413997L11.5371 1.49973H24.4644L23.9211 0.413997Z" fill="#0F6BB1"/>
<path d="M35.9656 14.0785C35.9572 14.0309 35.9446 13.984 35.928 13.9386C35.8686 13.8084 35.7731 13.698 35.6529 13.6205C35.5327 13.5429 35.3928 13.5014 35.2497 13.5009H25.5003V3.75141C25.4958 3.6927 25.4842 3.63474 25.4659 3.57877C25.4574 3.53141 25.4448 3.48487 25.4283 3.43968C25.3689 3.30954 25.2734 3.19914 25.1532 3.12157C25.033 3.04399 24.8931 3.00248 24.75 3.00195H11.25C11.107 3.00268 10.9671 3.04427 10.847 3.12182C10.7268 3.19938 10.6313 3.30966 10.5717 3.43968C10.5545 3.48464 10.5419 3.53125 10.5341 3.57877C10.5158 3.63474 10.5042 3.6927 10.4997 3.75141V12.0011H0.750273C0.607252 12.0019 0.467419 12.0435 0.347248 12.121C0.227078 12.1986 0.131578 12.3088 0.072 12.4389C0.0547551 12.4838 0.0421443 12.5304 0.0343636 12.578C0.0160476 12.6339 0.00451066 12.6919 0 12.7506L0 26.2506C0.000216569 26.4495 0.0793325 26.6402 0.219989 26.7809C0.360646 26.9215 0.551354 27.0006 0.750273 27.0009H35.2497C35.4486 27.0006 35.6394 26.9215 35.78 26.7809C35.9207 26.6402 35.9998 26.4495 36 26.2506V14.2511C35.9955 14.1924 35.984 14.1345 35.9656 14.0785ZM7.50027 20.9995C7.60083 20.9962 7.70103 21.0131 7.79491 21.0493C7.88879 21.0855 7.97443 21.1402 8.04674 21.2102C8.11905 21.2801 8.17654 21.3639 8.21581 21.4565C8.25508 21.5492 8.27532 21.6487 8.27532 21.7494C8.27532 21.85 8.25508 21.9496 8.21581 22.0422C8.17654 22.1348 8.11905 22.2186 8.04674 22.2886C7.97443 22.3585 7.88879 22.4132 7.79491 22.4494C7.70103 22.4856 7.60083 22.5026 7.50027 22.4992H4.5C4.35165 22.499 4.20667 22.4549 4.08337 22.3724C3.96007 22.2899 3.86395 22.1727 3.80715 22.0357C3.75036 21.8986 3.73542 21.7478 3.76422 21.6023C3.79302 21.4568 3.86428 21.323 3.969 21.218L5.90809 19.278C6.17512 19.0116 6.38689 18.6951 6.53123 18.3466C6.67557 17.9981 6.74964 17.6245 6.74918 17.2473C6.7525 17.1468 6.73557 17.0466 6.69938 16.9527C6.66319 16.8588 6.60849 16.7732 6.53853 16.7009C6.46857 16.6285 6.38478 16.571 6.29215 16.5318C6.19952 16.4925 6.09993 16.4723 5.99932 16.4723C5.89871 16.4723 5.79912 16.4925 5.70649 16.5318C5.61386 16.571 5.53007 16.6285 5.46011 16.7009C5.39015 16.7732 5.33545 16.8588 5.29926 16.9527C5.26307 17.0466 5.24613 17.1468 5.24945 17.2473C5.24303 17.4419 5.16121 17.6264 5.02128 17.7618C4.88136 17.8971 4.69429 17.9728 4.49959 17.9728C4.3049 17.9728 4.11782 17.8971 3.9779 17.7618C3.83798 17.6264 3.75616 17.4419 3.74973 17.2473C3.74973 16.6506 3.98678 16.0783 4.40874 15.6563C4.83069 15.2344 5.40299 14.9973 5.99973 14.9973C6.59646 14.9973 7.16876 15.2344 7.59072 15.6563C8.01267 16.0783 8.24973 16.6506 8.24973 17.2473C8.25099 17.8217 8.13841 18.3905 7.91849 18.9211C7.69857 19.4517 7.37567 19.9334 6.96845 20.3384L6.31391 20.993L7.50027 20.9995ZM19.5014 15.7509C19.4949 15.9455 19.4131 16.1299 19.2732 16.2653C19.1333 16.4007 18.9462 16.4764 18.7515 16.4764C18.5568 16.4764 18.3697 16.4007 18.2298 16.2653C18.0899 16.1299 18.0081 15.9455 18.0016 15.7509V10.0645L17.7824 10.2838C17.6413 10.4248 17.45 10.5041 17.2505 10.5041C17.0511 10.5041 16.8598 10.4248 16.7187 10.2838C16.5777 10.1427 16.4984 9.95142 16.4984 9.75195C16.4984 9.55248 16.5777 9.36118 16.7187 9.22013L18.2185 7.72041C18.3235 7.61569 18.4573 7.54443 18.6028 7.51563C18.7483 7.48683 18.8991 7.50177 19.0362 7.55856C19.1732 7.61536 19.2904 7.71147 19.3729 7.83478C19.4554 7.95808 19.4995 8.10305 19.4997 8.25141V15.7517L19.5014 15.7509ZM32.2495 21.7506C32.2495 22.3473 32.0124 22.9196 31.5904 23.3416C31.1685 23.7635 30.5962 24.0006 29.9995 24.0006C29.4027 24.0006 28.8304 23.7635 28.4085 23.3416C27.9865 22.9196 27.7495 22.3473 27.7495 21.7506C27.7559 21.556 27.8377 21.3715 27.9776 21.2361C28.1176 21.1008 28.3046 21.0251 28.4993 21.0251C28.694 21.0251 28.8811 21.1008 29.021 21.2361C29.1609 21.3715 29.2428 21.556 29.2492 21.7506C29.2492 21.899 29.2932 22.044 29.3756 22.1674C29.4581 22.2908 29.5752 22.387 29.7123 22.4437C29.8494 22.5005 30.0003 22.5154 30.1458 22.4864C30.2914 22.4575 30.4251 22.386 30.53 22.2811C30.6349 22.1762 30.7064 22.0425 30.7353 21.897C30.7643 21.7514 30.7494 21.6006 30.6926 21.4635C30.6358 21.3264 30.5397 21.2092 30.4163 21.1268C30.2929 21.0443 30.1478 21.0003 29.9995 21.0003C29.8989 21.0036 29.7987 20.9867 29.7048 20.9505C29.6109 20.9143 29.5253 20.8596 29.453 20.7897C29.3807 20.7197 29.3232 20.6359 29.2839 20.5433C29.2446 20.4507 29.2244 20.3511 29.2244 20.2505C29.2244 20.1498 29.2446 20.0503 29.2839 19.9576C29.3232 19.865 29.3807 19.7812 29.453 19.7112C29.5253 19.6413 29.6109 19.5866 29.7048 19.5504C29.7987 19.5142 29.8989 19.4973 29.9995 19.5006C30.1478 19.5006 30.2929 19.4566 30.4163 19.3741C30.5397 19.2917 30.6358 19.1745 30.6926 19.0374C30.7494 18.9003 30.7643 18.7495 30.7353 18.6039C30.7064 18.4584 30.6349 18.3247 30.53 18.2198C30.4251 18.1149 30.2914 18.0434 30.1458 18.0145C30.0003 17.9855 29.8494 18.0004 29.7123 18.0572C29.5752 18.1139 29.4581 18.2101 29.3756 18.3335C29.2932 18.4569 29.2492 18.6019 29.2492 18.7503C29.2525 18.8509 29.2356 18.9511 29.1994 19.045C29.1632 19.1388 29.1085 19.2245 29.0385 19.2968C28.9686 19.3691 28.8848 19.4266 28.7921 19.4659C28.6995 19.5051 28.5999 19.5254 28.4993 19.5254C28.3987 19.5254 28.2991 19.5051 28.2065 19.4659C28.1139 19.4266 28.0301 19.3691 27.9601 19.2968C27.8901 19.2245 27.8354 19.1388 27.7993 19.045C27.7631 18.9511 27.7461 18.8509 27.7495 18.7503C27.7495 18.3856 27.8381 18.0264 28.0078 17.7035C28.1774 17.3807 28.423 17.104 28.7234 16.8971C29.0238 16.6903 29.37 16.5596 29.7321 16.5162C30.0942 16.4729 30.4614 16.5182 30.8021 16.6483C31.1428 16.7784 31.4468 16.9894 31.6879 17.2631C31.9289 17.5368 32.0999 17.865 32.1859 18.2194C32.272 18.5738 32.2706 18.9438 32.1819 19.2975C32.0932 19.6513 31.9198 19.9782 31.6767 20.25C32.0469 20.6624 32.2512 21.1973 32.2503 21.7514L32.2495 21.7506Z" fill="#0F6BB1"/>
<path d="M9.00047 9H2.25047C2.1114 9.00021 1.97512 9.03901 1.8568 9.11211C1.73849 9.18521 1.6428 9.28972 1.58038 9.414L1.03711 10.4997H9.00047V9Z" fill="#0F6BB1"/>
</svg>
