<svg width="22" height="21" viewBox="0 0 22 21" fill="none" xmlns="http://www.w3.org/2000/svg">
<path d="M14.6061 1.8844V5.62194H13.1307V1.8844C13.1307 1.61883 12.8947 1.49097 12.7373 1.49097C12.6881 1.49097 12.6389 1.50081 12.5897 1.52048L4.79009 4.46133C4.2688 4.65805 3.93439 5.14983 3.93439 5.71046V6.36944C3.03935 7.03827 2.45904 8.11035 2.45904 9.32014V5.71046C2.45904 4.54002 3.17705 3.49744 4.2688 3.08434L12.0783 0.133653C12.2947 0.0549677 12.5209 0.015625 12.7373 0.015625C13.7208 0.015625 14.6061 0.812311 14.6061 1.8844Z" fill="white"/>
<path d="M21.1471 12.2632V13.2467C21.1471 13.5123 20.9406 13.7287 20.6652 13.7385H19.2292C18.7079 13.7385 18.2358 13.3549 18.1964 12.8435C18.1669 12.5385 18.2849 12.2533 18.4816 12.0566C18.6587 11.8697 18.9046 11.7714 19.1701 11.7714H20.6553C20.9406 11.7812 21.1471 11.9976 21.1471 12.2632Z" fill="white"/>
<path d="M19.16 10.1142H20.1632C20.7041 10.1142 21.1468 9.67164 21.1468 9.13068V8.69791C21.1468 6.66194 19.4845 4.99971 17.4486 4.99971H6.15724C5.32121 4.99971 4.55403 5.27511 3.93439 5.74722C3.03935 6.41605 2.45904 7.48813 2.45904 8.69791V10.4487C2.45904 10.8224 2.85247 11.0585 3.20655 10.9404C3.75735 10.7536 4.33765 10.6552 4.91795 10.6552C7.89815 10.6552 10.3276 13.0846 10.3276 16.0648C10.3276 16.773 10.1407 17.55 9.84561 18.2385C9.68824 18.5926 9.93413 19.0155 10.3177 19.0155H17.4486C19.4845 19.0155 21.1468 17.3533 21.1468 15.3173V15.1304C21.1468 14.5895 20.7041 14.1469 20.1632 14.1469H19.3075C18.3633 14.1469 17.4584 13.5666 17.2125 12.6518C17.0158 11.9043 17.2518 11.1765 17.7436 10.7044C18.1075 10.3306 18.6092 10.1142 19.16 10.1142ZM13.77 9.91753H8.85221C8.44895 9.91753 8.11453 9.58312 8.11453 9.17986C8.11453 8.7766 8.44895 8.44219 8.85221 8.44219H13.77C14.1733 8.44219 14.5077 8.7766 14.5077 9.17986C14.5077 9.58312 14.1733 9.91753 13.77 9.91753Z" fill="white"/>
<path fill-rule="evenodd" clip-rule="evenodd" d="M8.76864 17.2587C8.67127 18.1211 8.29571 18.9556 7.64195 19.6094C6.10493 21.1464 3.6151 21.1464 2.07808 19.6094C1.55646 19.0878 1.20872 18.4479 1.04876 17.7733C0.944438 17.3769 0.909662 16.9666 0.944437 16.5701C0.993121 15.6451 1.37564 14.748 2.07808 14.0455C3.09348 13.0301 4.51923 12.6893 5.80587 13.0162C6.48049 13.1762 7.12034 13.5239 7.64195 14.0455C8.51826 14.9218 8.90078 16.1111 8.76864 17.2587ZM7.63956 16.7913L5.60335 14.7551L4.94518 15.4133L5.85896 16.3271H2.79282V17.2579H5.85669L4.94518 18.1694L5.60335 18.8276L7.63956 16.7913Z" fill="white"/>
</svg>
