<svg width="24" height="24" viewBox="0 0 24 24" fill="none" xmlns="http://www.w3.org/2000/svg">
<path fill-rule="evenodd" clip-rule="evenodd" d="M24 8C24 12.0797 20.9462 15.4461 16.9998 15.9381C16.9667 11.0167 12.9834 7.03334 8.06187 7.00021C8.55388 3.0538 11.9203 0 16 0C20.4183 0 24 3.58172 24 8ZM3.55137 22.6524C4.86544 23.5307 6.41041 23.9996 7.99097 24C9.04115 24.003 10.0815 23.7977 11.0518 23.3959C12.0221 22.9942 12.9031 22.404 13.6438 21.6595C14.3893 20.918 14.9811 20.0367 15.3854 19.0661C15.7898 18.0955 15.9986 17.0547 16 16.0033C16.0014 14.9518 15.7953 13.9104 15.3936 12.9388C14.9918 11.9671 14.4023 11.0843 13.6588 10.3408C12.9153 9.59737 12.0324 9.00791 11.0608 8.60624C10.0891 8.20456 9.04767 7.99855 7.99623 8.00001C6.94479 8.00147 5.90397 8.21037 4.9334 8.61475C3.96283 9.01912 3.08158 9.61102 2.34015 10.3565C1.2227 11.4743 0.461745 12.8983 0.153487 14.4485C-0.154771 15.9987 0.00350806 17.6055 0.608314 19.0658C1.21312 20.526 2.2373 21.7742 3.55137 22.6524ZM8.97739 17.3155H7.23299L7.23433 17.3161L6.50166 19.4955H4.74195L4.02594 17.3161H2.1783V16.5895H3.78682L2.40209 12.3753H4.11186L5.46528 16.5895H5.98347L7.39684 12.3753H8.92344L10.2822 16.5895H10.8237L12.2084 12.3753H13.7856L12.4069 16.5895H14.0074V17.3155H12.1678L11.4545 19.4948H9.68541L8.97739 17.3155ZM7.4761 16.5888H8.74161L8.11885 14.6752L7.4761 16.5888Z" fill="#737D87"/>
</svg>
