<svg width="97" height="98" viewBox="0 0 97 98" fill="none" xmlns="http://www.w3.org/2000/svg">
<path d="M59.4196 82.097C61.9563 79.9442 63.9831 77.2548 65.3536 74.223L59.4646 70.296H47.6116L41.7226 74.223C43.0931 77.2548 45.1199 79.9442 47.6566 82.097L47.6116 82.15V95.132H59.4646V82.15L59.4196 82.097Z" fill="#FFC2A6"/>
<path d="M49.4196 82.097C51.9563 79.9442 53.9831 77.2548 55.3536 74.223L49.4646 70.296H37.6116L31.7226 74.223C33.0931 77.2548 35.1199 79.9442 37.6566 82.097L37.6116 82.15V95.132H49.4646V82.15L49.4196 82.097Z" fill="#FFC2A6"/>
<path d="M86.9336 40.1928H94.4596C93.8942 36.2353 92.2379 32.5135 89.6763 29.4443C87.1148 26.3751 83.7491 24.0799 79.9566 22.8158L75.6446 21.3758L83.1706 19.4948L86.9336 17.6138L84.4646 15.6378C79.973 12.0443 74.3918 10.0869 68.6396 10.0878H68.1186C70.8406 8.7258 72.9186 7.0478 75.6446 5.6878C70.3786 1.4758 58.0276 0.2388 48.1756 10.0898C38.2756 0.1898 25.6176 1.5898 20.7066 5.5178C23.4286 6.8798 25.5066 8.7278 28.2326 10.0898H27.7116C21.9594 10.089 16.3782 12.0463 11.8866 15.6398L9.41858 17.6158L16.9446 19.4968L20.7066 21.3758L16.3946 22.8158C12.6026 24.0803 9.23758 26.3758 6.67658 29.4449C4.11558 32.5141 2.45974 36.2357 1.89458 40.1928H9.42058L6.66558 42.9458C3.60961 46.0024 1.89276 50.1476 1.89258 54.4698V55.2448H9.41858L8.42858 56.5658C6.97432 58.5043 5.97079 60.7427 5.49108 63.1181C5.01137 65.4934 5.06757 67.9459 5.65558 70.2968L13.1816 66.5348C12.5936 68.8857 12.5374 71.3382 13.0171 73.7135C13.4968 76.0889 14.5003 78.3273 15.9546 80.2658L16.9446 81.5868L26.1446 73.6448C26.617 74.3451 27.3477 74.8298 28.1766 74.9926C29.0056 75.1555 29.8653 74.9833 30.5676 74.5138L36.8916 70.2978C36.8918 71.0266 37.0898 71.7417 37.4644 72.3669C37.8391 72.992 38.3763 73.5038 39.0188 73.8477C39.6614 74.1917 40.3852 74.3548 41.1132 74.3198C41.8412 74.2847 42.546 74.0528 43.1526 73.6488L46.0936 71.6898C46.7113 71.2776 47.4374 71.0576 48.1801 71.0576C48.9228 71.0576 49.6488 71.2776 50.2666 71.6898L53.2066 73.6468C53.8132 74.0508 54.518 74.2827 55.2459 74.3178C55.9739 74.3528 56.6978 74.1897 57.3403 73.8457C57.9829 73.5018 58.5201 72.99 58.8947 72.3649C59.2693 71.7397 59.4673 71.0246 59.4676 70.2958L65.7916 74.5118C66.4944 74.9798 67.3536 75.151 68.1821 74.9882C69.0105 74.8254 69.7411 74.3419 70.2146 73.6428L79.4146 81.5848L80.4046 80.2638C81.8588 78.3253 82.8624 76.0869 83.3421 73.7115C83.8218 71.3362 83.7656 68.8837 83.1776 66.5328L90.7036 70.2948C91.2902 67.9436 91.3449 65.4912 90.8638 63.1162C90.3827 60.7412 89.3779 58.5034 87.9226 56.5658L86.9326 55.2448H94.4586V54.4698C94.4584 50.1476 92.7415 46.0024 89.6856 42.9458L86.9336 40.1928Z" fill="white"/>
<path d="M40.0226 43.955C38.5369 44.5745 37.2677 45.6198 36.3749 46.9592C35.4822 48.2987 35.0058 49.8724 35.0058 51.4821C35.0058 53.0917 35.4822 54.6654 36.3749 56.0049C37.2677 57.3443 38.5369 58.3896 40.0226 59.009C41.5083 58.3896 42.7775 57.3443 43.6702 56.0049C44.563 54.6654 45.0394 53.0917 45.0394 51.4821C45.0394 49.8724 44.563 48.2987 43.6702 46.9592C42.7775 45.6198 41.5083 44.5745 40.0226 43.955Z" fill="#D4E9FF"/>
<path d="M62.5996 43.955C61.1139 44.5745 59.8447 45.6198 58.9519 46.9592C58.0592 48.2987 57.5828 49.8724 57.5828 51.4821C57.5828 53.0917 58.0592 54.6654 58.9519 56.0049C59.8447 57.3443 61.1139 58.3896 62.5996 59.009C64.0853 58.3896 65.3545 57.3443 66.2472 56.0049C67.14 54.6654 67.6164 53.0917 67.6164 51.4821C67.6164 49.8724 67.14 48.2987 66.2472 46.9592C65.3545 45.6198 64.0853 44.5745 62.5996 43.955Z" fill="#D4E9FF"/>
<path d="M72.5206 55.016C71.8 53.5589 71.37 51.9755 71.2546 50.354C71.1792 49.3591 71.2084 48.3589 71.3416 47.37C72.0226 42.2827 70.683 37.1311 67.61 33.0199C64.5371 28.9087 59.9756 26.1653 54.9036 25.378C50.3951 26.0873 46.2736 28.3423 43.2451 31.7566C40.2167 35.171 38.4697 39.5322 38.3036 44.093C39.3639 44.2968 40.3681 44.7262 41.248 45.352C42.1279 45.9777 42.8631 46.7853 43.4036 47.72C43.4776 47.848 43.5446 47.978 43.6096 48.109C44.2222 49.329 44.4912 50.6926 44.388 52.0538C44.2848 53.415 43.8131 54.7224 43.0236 55.836L43.6726 59.081C43.8815 60.1206 44.444 61.0557 45.2643 61.7276C46.0846 62.3994 47.1122 62.7665 48.1726 62.7665C49.2329 62.7665 50.2606 62.3994 51.0809 61.7276C51.9012 61.0557 52.4636 60.1206 52.6726 59.081L53.3216 55.836C52.3303 54.439 51.8452 52.7456 51.9463 51.0356C52.0474 49.3256 52.7287 47.7012 53.8776 46.4307C55.0265 45.1601 56.5744 44.3194 58.2657 44.0474C59.957 43.7754 61.6904 44.0883 63.1798 44.9345C64.6692 45.7806 65.8255 47.1095 66.4577 48.7015C67.0899 50.2936 67.1603 52.0536 66.6571 53.6911C66.154 55.3285 65.1074 56.7454 63.6903 57.7077C62.2731 58.67 60.5702 59.1203 58.8626 58.984L58.8566 59.044C60.8291 59.1904 62.7412 59.7905 64.4436 60.7976C66.146 61.8048 67.5926 63.1917 68.6706 64.85L71.3556 62.165C72.1905 61.3297 72.7687 60.2727 73.0216 59.119C73.0296 59.082 73.0366 59.045 73.0436 59.008C73.3201 57.6563 73.1359 56.2509 72.5206 55.016Z" fill="#FFC2A6"/>
<path d="M52.9456 38.3086H43.4066C42.9076 38.3086 42.4291 38.5068 42.0762 38.8597C41.7234 39.2125 41.5251 39.6911 41.5251 40.1901C41.5251 40.6891 41.7234 41.1677 42.0762 41.5205C42.4291 41.8734 42.9076 42.0716 43.4066 42.0716H52.9456C53.4447 42.0716 53.9232 41.8734 54.2761 41.5205C54.6289 41.1677 54.8271 40.6891 54.8271 40.1901C54.8271 39.6911 54.6289 39.2125 54.2761 38.8597C53.9232 38.5068 53.4447 38.3086 52.9456 38.3086Z" fill="#3A4155"/>
<path d="M94.4596 42.075C94.7292 42.0752 94.9956 42.0174 95.2409 41.9055C95.4862 41.7937 95.7045 41.6304 95.8812 41.4268C96.0579 41.2232 96.1887 40.984 96.2649 40.7254C96.341 40.4668 96.3607 40.1949 96.3226 39.928C95.7511 35.9283 94.1541 32.1446 91.687 28.945C89.2198 25.7454 85.9665 23.2388 82.2436 21.669C84.8946 20.981 82.6606 21.758 87.7746 19.299C88.0571 19.1579 88.2995 18.948 88.4795 18.6885C88.6595 18.4291 88.7713 18.1285 88.8046 17.8145C88.8379 17.5005 88.7915 17.1831 88.6699 16.8917C88.5483 16.6003 88.3552 16.3442 88.1086 16.147L85.6396 14.171C82.2578 11.4706 78.2825 9.61291 74.0416 8.75105C74.8326 8.26205 75.6256 7.79805 76.4866 7.36704C76.769 7.22585 77.0114 7.01582 77.1913 6.75633C77.3712 6.49683 77.4829 6.19623 77.516 5.88221C77.5492 5.5682 77.5028 5.25089 77.3811 4.95953C77.2594 4.66817 77.0663 4.41214 76.8196 4.21504C73.5876 1.63404 68.6006 0.333045 63.4806 0.740045C57.7712 1.24179 52.3889 3.6207 48.1746 7.50504C37.9656 -1.54895 25.1676 -0.458956 19.5346 4.05104C19.2879 4.24814 19.0948 4.50417 18.9731 4.79553C18.8514 5.08689 18.805 5.4042 18.8381 5.71821C18.8713 6.03223 18.983 6.33283 19.1629 6.59233C19.3428 6.85182 19.5852 7.06185 19.8676 7.20304C20.7599 7.66018 21.6247 8.16905 22.4576 8.72705C18.1633 9.57471 14.1357 11.4425 10.7146 14.173L8.24258 16.151C7.96912 16.3703 7.76232 16.6615 7.64546 16.992C7.52861 17.3224 7.50635 17.6789 7.58119 18.0213C7.65603 18.3637 7.825 18.6784 8.06907 18.93C8.31313 19.1815 8.62259 19.3599 8.96258 19.445L15.5976 21.104C11.522 22.5049 7.91225 25.0038 5.16619 28.3252C2.42013 31.6467 0.644362 35.6618 0.034584 39.928C-0.00376995 40.1951 0.0157611 40.4672 0.091852 40.726C0.167943 40.9848 0.298813 41.2243 0.475584 41.428C0.653267 41.6292 0.872312 41.7897 1.11774 41.8984C1.36316 42.0072 1.62918 42.0616 1.89758 42.058H4.89758C1.59515 45.6383 -0.160734 50.3773 0.011584 55.245C0.0119716 55.4911 0.0610215 55.7347 0.15591 55.9617C0.250799 56.1887 0.389653 56.3947 0.564479 56.5679C0.739305 56.741 0.946652 56.8779 1.17458 56.9706C1.40251 57.0633 1.64653 57.11 1.89258 57.108H5.79258C3.36987 61.2208 2.66634 66.1229 3.83458 70.751C3.90293 71.0243 4.03176 71.2787 4.21157 71.4955C4.39138 71.7123 4.61759 71.8859 4.87348 72.0036C5.12938 72.1213 5.40843 72.18 5.69005 72.1754C5.97167 72.1708 6.24866 72.103 6.50058 71.977L10.8246 69.815C10.6966 74.5411 12.3439 79.1435 15.4416 82.715C15.5961 82.9217 15.7914 83.0945 16.0154 83.2225C16.2394 83.3505 16.4874 83.4311 16.7439 83.4592C17.0004 83.4873 17.2599 83.4624 17.5064 83.386C17.7529 83.3096 17.981 83.1833 18.1766 83.015L26.1066 76.167C26.7042 76.5423 27.3737 76.7882 28.0722 76.8888C28.7706 76.9894 29.4824 76.9425 30.1616 76.751C31.433 79.0536 33.0703 81.1341 35.0096 82.911V95.1311C35.0098 95.6298 35.2081 96.1081 35.5608 96.4608C35.9135 96.8135 36.3918 97.0118 36.8906 97.012H59.4656C59.9644 97.0118 60.4427 96.8135 60.7954 96.4608C61.1481 96.1081 61.3463 95.6298 61.3466 95.1311V82.905C63.2868 81.127 64.9249 79.0451 66.1966 76.741C66.8755 76.9272 67.5855 76.9716 68.2823 76.8713C68.9791 76.771 69.6478 76.5282 70.2466 76.1581L78.1796 83.008C78.3752 83.1763 78.6033 83.3026 78.8498 83.379C79.0962 83.4554 79.3558 83.4803 79.6123 83.4522C79.8688 83.4241 80.1167 83.3435 80.3408 83.2155C80.5648 83.0875 80.7601 82.9147 80.9146 82.708C84.0086 79.1343 85.6553 74.5334 85.5316 69.808L89.8556 71.97C90.1071 72.0963 90.3837 72.1644 90.665 72.1695C90.9464 72.1747 91.2253 72.1166 91.4812 71.9996C91.7371 71.8827 91.9635 71.7098 92.1438 71.4937C92.324 71.2776 92.4534 71.0238 92.5226 70.751C93.6888 66.1275 92.9823 61.2304 90.5566 57.125H94.4566C94.9555 57.125 95.4339 56.9269 95.7867 56.5741C96.1394 56.2214 96.3376 55.7429 96.3376 55.244V54.469C96.3241 49.8712 94.5818 45.4466 91.4566 42.074H94.4566L94.4596 42.075ZM26.8776 47.122C26.5468 44.6137 26.7553 42.0636 27.4891 39.6422C28.223 37.2209 29.4653 34.9841 31.1329 33.0814C32.8006 31.1786 34.8552 29.6539 37.1595 28.6089C39.4637 27.564 41.9645 27.023 44.4946 27.022H51.8586C54.3887 27.0228 56.8896 27.5637 59.1939 28.6086C61.4982 29.6535 63.5529 31.1783 65.2206 33.081C66.8883 34.9838 68.1306 37.2206 68.8644 39.642C69.5982 42.0635 69.8065 44.6136 69.4756 47.122C69.4156 47.5727 69.3746 48.0227 69.3526 48.472H68.3766C67.8297 46.8481 66.8493 45.4045 65.5414 44.2973C64.2335 43.1902 62.6478 42.4616 60.9558 42.1904C59.2639 41.9192 57.5299 42.1157 55.9415 42.7586C54.3531 43.4015 52.9706 44.4663 51.9436 45.838H44.4096C43.3221 44.3877 41.8386 43.2825 40.1377 42.6556C38.4368 42.0286 36.5909 41.9066 34.8223 42.3042C33.0536 42.7017 31.4375 43.602 30.1686 44.8965C28.8996 46.1911 28.0318 47.8248 27.6696 49.601H27.0176C27.0336 48.7724 26.9868 47.9437 26.8776 47.122ZM70.0286 60.835L68.8566 62.007C68.6826 61.8137 68.5039 61.625 68.3206 61.441C67.3647 60.4862 66.2818 59.6675 65.1026 59.008C66.1694 58.2083 67.0539 57.1908 67.6973 56.0231C68.3408 54.8554 68.7284 53.5641 68.8346 52.235H69.6106C69.8524 53.4926 70.2642 54.7115 70.8346 55.858C71.2405 56.667 71.3811 57.5834 71.2364 58.4769C71.0917 59.3704 70.6691 60.1955 70.0286 60.835ZM42.5346 51.482C42.5346 52.5983 42.2036 53.6895 41.5834 54.6177C40.9632 55.5458 40.0818 56.2692 39.0504 56.6964C38.0191 57.1236 36.8843 57.2354 35.7895 57.0176C34.6947 56.7998 33.689 56.2623 32.8997 55.473C32.1103 54.6836 31.5728 53.678 31.355 52.5831C31.1373 51.4883 31.249 50.3535 31.6762 49.3222C32.1034 48.2909 32.8268 47.4094 33.7549 46.7892C34.6831 46.1691 35.7743 45.838 36.8906 45.838C37.6318 45.8378 38.3659 45.9836 39.0508 46.2671C39.7356 46.5507 40.3579 46.9664 40.8821 47.4905C41.4062 48.0147 41.822 48.637 42.1055 49.3219C42.389 50.0067 42.5348 50.7408 42.5346 51.482ZM45.7766 59.43C45.6589 59.2038 45.5737 58.9621 45.5236 58.712L45.0236 56.212C45.8615 54.7775 46.3016 53.1454 46.2986 51.484C46.2982 50.8459 46.2342 50.2095 46.1076 49.584H50.2536C50.1269 50.2095 50.0629 50.8459 50.0626 51.484C50.0591 53.1444 50.4982 54.7757 51.3346 56.21L50.8346 58.71C50.7246 59.2598 50.4467 59.7618 50.0392 60.1469C49.6318 60.532 49.1149 60.7811 48.5598 60.8599C48.0047 60.9387 47.4389 60.8433 46.9404 60.5868C46.4419 60.3303 46.0352 59.9254 45.7766 59.428V59.43ZM59.0156 57.107C57.9223 57.0184 56.8785 56.6132 56.0119 55.9408C55.1453 55.2684 54.4933 54.3581 54.1358 53.3211C53.7783 52.2842 53.7307 51.1655 53.9988 50.1019C54.2669 49.0383 54.8391 48.0759 55.6455 47.3323C56.4519 46.5887 57.4574 46.0962 58.5392 45.915C59.621 45.7338 60.7322 45.8718 61.7368 46.312C62.7415 46.7523 63.5961 47.4757 64.1961 48.3939C64.7962 49.312 65.1157 50.3852 65.1156 51.482C65.1157 52.262 64.9541 53.0334 64.6411 53.7478C64.3281 54.4622 63.8705 55.1039 63.297 55.6325C62.7236 56.1611 62.0468 56.5652 61.3094 56.8191C60.572 57.0731 59.7899 57.1715 59.0126 57.108L59.0156 57.107ZM25.5156 55.856C25.9138 55.0575 26.2346 54.2227 26.4736 53.363H27.6736C28.137 55.6185 29.4101 57.6262 31.2526 59.007C30.0733 59.6668 28.9904 60.4858 28.0346 61.441C27.8506 61.625 27.6719 61.8137 27.4986 62.007L26.3266 60.835C25.6849 60.1961 25.261 59.3711 25.1152 58.4774C24.9694 57.5837 25.1092 56.6668 25.5146 55.857L25.5156 55.856ZM38.7686 93.251V85.705C41.5995 87.4403 44.8552 88.3588 48.1756 88.3588C51.496 88.3588 54.7517 87.4403 57.5826 85.705V93.251H38.7686ZM48.1756 84.597C41.9636 84.597 36.4086 80.2971 33.4226 74.869L35.8096 73.278C36.2163 73.9732 36.7607 74.578 37.4095 75.0553C38.0583 75.5326 38.7977 75.8723 39.5824 76.0537C40.3671 76.2351 41.1807 76.2542 41.9731 76.11C42.7655 75.9658 43.5201 75.6613 44.1906 75.215L47.1346 73.251C47.4429 73.0442 47.8058 72.9337 48.1771 72.9337C48.5484 72.9337 48.9113 73.0442 49.2196 73.251L52.1596 75.209C52.8301 75.6554 53.5848 75.9601 54.3773 76.1044C55.1698 76.2487 55.9835 76.2296 56.7683 76.0482C57.5532 75.8669 58.2927 75.5271 58.9416 75.0497C59.5904 74.5723 60.1349 73.9674 60.5416 73.272L62.9286 74.864C59.9456 80.287 54.3936 84.597 48.1756 84.597ZM66.8346 72.951L60.5086 68.731C60.2253 68.542 59.896 68.4335 59.5559 68.4169C59.2157 68.4004 58.8775 68.4765 58.5772 68.6372C58.2769 68.7979 58.0259 69.037 57.8509 69.3292C57.6759 69.6213 57.5835 69.9555 57.5836 70.296C57.5832 70.6844 57.4775 71.0654 57.2778 71.3984C57.078 71.7314 56.7917 72.004 56.4493 72.1872C56.1068 72.3703 55.7211 72.4572 55.3333 72.4385C54.9454 72.4198 54.5698 72.2963 54.2466 72.081L51.3076 70.123C50.3815 69.5024 49.2919 69.171 48.1771 69.171C47.0623 69.171 45.9726 69.5024 45.0466 70.123L42.1046 72.082C41.7813 72.2971 41.4058 72.4204 41.0179 72.4389C40.6301 72.4574 40.2445 72.3704 39.9022 72.1871C39.5599 72.0039 39.2737 71.7313 39.0741 71.3982C38.8745 71.0652 38.7689 70.6843 38.7686 70.296C38.7686 69.9555 38.6762 69.6213 38.5013 69.3292C38.3263 69.037 38.0752 68.7979 37.775 68.6372C37.4747 68.4765 37.1364 68.4004 36.7963 68.4169C36.4561 68.4335 36.1269 68.542 35.8436 68.731C28.9646 73.317 29.3076 73.173 28.8026 73.173C28.6286 73.1742 28.4561 73.1409 28.2951 73.0749C28.1341 73.0089 27.9879 72.9116 27.8648 72.7886C27.7417 72.6656 27.6443 72.5194 27.5781 72.3584C27.512 72.1975 27.4785 72.025 27.4796 71.851C27.4814 69.0874 28.5265 66.4264 30.4058 64.4001C32.285 62.3739 34.86 61.1317 37.6156 60.922C39.3875 60.7934 41.1646 61.0875 42.8006 61.78C43.391 62.6641 44.1904 63.3888 45.1279 63.89C46.0654 64.3912 47.112 64.6535 48.1751 64.6535C49.2382 64.6535 50.2848 64.3912 51.2223 63.89C52.1598 63.3888 52.9592 62.6641 53.5496 61.78C55.1811 61.0902 56.9526 60.7958 58.7196 60.921C61.4782 61.1271 64.057 62.3678 65.9396 64.3946C67.8222 66.4215 68.8694 69.0848 68.8716 71.851C68.8741 72.0893 68.8116 72.3238 68.6906 72.5291C68.5696 72.7344 68.3948 72.9028 68.1852 73.016C67.9755 73.1292 67.7389 73.183 67.5008 73.1716C67.2628 73.1601 67.0324 73.0839 66.8346 72.951ZM92.5346 53.364H86.9346C86.5851 53.3638 86.2424 53.4609 85.945 53.6444C85.6476 53.828 85.4073 54.0908 85.2509 54.4034C85.0945 54.7159 85.0283 55.0659 85.0597 55.414C85.0911 55.7621 85.2188 56.0945 85.4286 56.374L86.4186 57.696C88.5302 60.4987 89.5413 63.9782 89.2606 67.476L84.0126 64.851C83.6907 64.69 83.3294 64.6247 82.9715 64.6629C82.6136 64.7011 82.2742 64.8411 81.9936 65.0664C81.7129 65.2917 81.5028 65.5928 81.3881 65.9339C81.2734 66.2751 81.259 66.642 81.3466 66.991C81.8557 69.0103 81.9193 71.1162 81.5328 73.1626C81.1463 75.2089 80.3191 77.1465 79.1086 78.841L72.4766 73.114C72.5814 72.7012 72.6344 72.277 72.6346 71.851C72.6362 69.9167 72.2548 68.0013 71.5126 66.215C71.3646 65.857 71.1986 65.5061 71.0216 65.16L72.6886 63.493C73.8886 62.2959 74.6807 60.751 74.9525 59.0778C75.2243 57.4047 74.9619 55.6885 74.2026 54.173C73.6242 53.0013 73.2679 51.7326 73.1516 50.431C73.1516 50.404 73.1516 50.378 73.1516 50.351C73.1517 50.2241 73.139 50.0974 73.1136 49.973C73.0683 49.1857 73.0978 48.3958 73.2016 47.614C73.6019 44.575 73.349 41.4856 72.4597 38.5521C71.5704 35.6187 70.0654 32.9088 68.045 30.6036C66.0246 28.2984 63.5355 26.451 60.744 25.1848C57.9525 23.9185 54.9229 23.2627 51.8576 23.261H44.4936C41.4276 23.2619 38.3971 23.9173 35.6047 25.1834C32.8124 26.4496 30.3226 28.2974 28.3017 30.6031C26.2809 32.9089 24.7756 35.6196 23.8866 38.5539C22.9976 41.4881 22.7453 44.5784 23.1466 47.618C23.4781 49.8542 23.1297 52.1384 22.1466 54.174C21.3868 55.6897 21.1241 57.4062 21.3957 59.0797C21.6673 60.7532 22.4595 62.2985 23.6596 63.496L25.3246 65.161C24.2649 67.2332 23.713 69.5276 23.7146 71.855C23.7151 72.2796 23.7682 72.7025 23.8726 73.114L17.2446 78.841C16.0339 77.1466 15.2066 75.2089 14.8202 73.1626C14.4337 71.1163 14.4973 69.0103 15.0066 66.991C15.0942 66.642 15.0798 66.2751 14.9651 65.9339C14.8504 65.5928 14.6403 65.2917 14.3596 65.0664C14.0789 64.8411 13.7395 64.7011 13.3816 64.6629C13.0238 64.6247 12.6625 64.69 12.3406 64.851L7.09258 67.475C6.85188 63.4139 8.22972 59.4228 10.9246 56.375C11.1344 56.0955 11.2621 55.7631 11.2935 55.415C11.3249 55.0669 11.2587 54.7169 11.1023 54.4044C10.9459 54.0918 10.7055 53.829 10.4081 53.6454C10.1107 53.4619 9.76808 53.3648 9.41858 53.365H3.81858C4.37458 46.294 9.41858 43.211 10.7496 41.525C11.013 41.262 11.1925 40.9266 11.2652 40.5615C11.3379 40.1964 11.3007 39.8179 11.1582 39.474C11.0156 39.13 10.7743 38.8361 10.4646 38.6295C10.1549 38.4228 9.79088 38.3127 9.41858 38.313H4.18258C4.99386 35.1357 6.59257 32.214 8.83109 29.8177C11.0696 27.4213 13.8758 25.6276 16.9906 24.602L21.3026 23.165C21.6555 23.0473 21.9656 22.8275 22.1937 22.5336C22.4218 22.2396 22.5577 21.8847 22.5841 21.5135C22.6105 21.1424 22.5264 20.7718 22.3422 20.4484C22.1581 20.1251 21.8823 19.8637 21.5496 19.697C16.3846 17.136 18.8496 18.056 13.5716 16.715C17.6465 13.6429 22.6094 11.9783 27.7126 11.972H28.2346C28.6586 11.9725 29.0703 11.8297 29.403 11.5667C29.7356 11.3038 29.9697 10.9362 30.0671 10.5235C30.1646 10.1109 30.1198 9.67739 29.94 9.29339C29.7602 8.90939 29.456 8.59741 29.0766 8.40804C27.8449 7.76186 26.6555 7.03807 25.5156 6.24104C25.1776 6.01505 24.8353 5.78804 24.4886 5.56004C29.6496 3.57404 38.9986 3.57404 46.8456 11.422C47.1985 11.7748 47.6771 11.973 48.1761 11.973C48.6751 11.973 49.1537 11.7748 49.5066 11.422C53.268 7.45958 58.3396 4.9968 63.7796 4.49104C66.5367 4.24791 69.3125 4.64949 71.8876 5.66404C71.5456 5.87671 71.2086 6.08871 70.8766 6.30005C69.7135 7.06389 68.5119 7.76748 67.2766 8.40804C66.8972 8.59741 66.5929 8.90939 66.4131 9.29339C66.2333 9.67739 66.1885 10.1109 66.286 10.5235C66.3835 10.9362 66.6176 11.3038 66.9502 11.5667C67.2828 11.8297 67.6946 11.9725 68.1186 11.972H68.6396C74.0306 12.0333 79.2473 13.891 83.4636 17.251L82.5146 17.725L75.1896 19.551C74.7943 19.6495 74.4417 19.8737 74.1848 20.1898C73.9278 20.5059 73.7805 20.8968 73.7648 21.3039C73.7491 21.7109 73.866 22.112 74.0979 22.4469C74.3297 22.7819 74.6641 23.0325 75.0506 23.161L79.3626 24.599C82.4777 25.6248 85.2841 27.419 87.5227 29.816C89.7612 32.2129 91.3598 35.1352 92.1706 38.313H86.9346C86.5623 38.3127 86.1982 38.4228 85.8886 38.6295C85.5789 38.8361 85.3375 39.13 85.195 39.474C85.0525 39.8179 85.0152 40.1964 85.088 40.5615C85.1607 40.9266 85.3401 41.262 85.6036 41.525L88.3556 44.278C90.7797 46.7169 92.2605 49.9363 92.5346 53.364Z" fill="#3A4155"/>
<path d="M40.6466 34.549H55.6986C56.1976 34.549 56.6762 34.3508 57.029 33.998C57.3819 33.6451 57.5801 33.1666 57.5801 32.6675C57.5801 32.1685 57.3819 31.69 57.029 31.3371C56.6762 30.9843 56.1976 30.7861 55.6986 30.7861H40.6466C40.1476 30.7861 39.669 30.9843 39.3162 31.3371C38.9633 31.69 38.7651 32.1685 38.7651 32.6675C38.7651 33.1666 38.9633 33.6451 39.3162 33.998C39.669 34.3508 40.1476 34.549 40.6466 34.549Z" fill="#3A4155"/>
</svg>
