<svg width="129" height="25" viewBox="0 0 129 25" fill="none" xmlns="http://www.w3.org/2000/svg">
<path d="M56.6437 5.26777L52.6281 17.5426H49.5769L46.8764 9.23079L44.0883 17.5426H41.0546L37.0215 5.26777H39.9674L42.7381 13.8952L45.6314 5.26777H48.2617L51.0674 13.9654L53.9257 5.26777H56.6437Z" fill="#3B4256"/>
<path d="M58.2079 8.10852H60.9434V17.5426H58.2079V8.10852ZM59.5757 6.79336C59.073 6.79336 58.6638 6.64723 58.3482 6.35498C58.0326 6.06272 57.8747 5.70032 57.8747 5.26777C57.8747 4.83523 58.0326 4.47283 58.3482 4.18058C58.6638 3.88832 59.073 3.74219 59.5757 3.74219C60.0784 3.74219 60.4875 3.88247 60.8032 4.16304C61.1188 4.44361 61.2766 4.79432 61.2766 5.21517C61.2766 5.67109 61.1188 6.05103 60.8032 6.35498C60.4875 6.64723 60.0784 6.79336 59.5757 6.79336Z" fill="#3B4256"/>
<path d="M69.2164 7.96824C70.3854 7.96824 71.3265 8.31895 72.0396 9.02037C72.7644 9.72179 73.1268 10.7622 73.1268 12.1417V17.5426H70.3912V12.5625C70.3912 11.8144 70.2276 11.2591 69.9002 10.8967C69.5729 10.5226 69.0995 10.3355 68.4799 10.3355C67.7901 10.3355 67.2407 10.5518 66.8315 10.9843C66.4224 11.4052 66.2178 12.0365 66.2178 12.8782V17.5426H63.4823V8.10852H66.095V9.21326C66.4574 8.81579 66.9075 8.51184 67.4453 8.30141C67.983 8.0793 68.5734 7.96824 69.2164 7.96824Z" fill="#3B4256"/>
<path d="M81.3405 7.96824C82.5095 7.96824 83.4506 8.31895 84.1637 9.02037C84.8885 9.72179 85.2509 10.7622 85.2509 12.1417V17.5426H82.5154V12.5625C82.5154 11.8144 82.3517 11.2591 82.0244 10.8967C81.6971 10.5226 81.2236 10.3355 80.604 10.3355C79.9143 10.3355 79.3648 10.5518 78.9557 10.9843C78.5465 11.4052 78.3419 12.0365 78.3419 12.8782V17.5426H75.6064V8.10852H78.2192V9.21326C78.5816 8.81579 79.0317 8.51184 79.5694 8.30141C80.1072 8.0793 80.6975 7.96824 81.3405 7.96824Z" fill="#3B4256"/>
<path d="M93.4646 7.96824C94.6337 7.96824 95.5747 8.31895 96.2879 9.02037C97.0127 9.72179 97.375 10.7622 97.375 12.1417V17.5426H94.6395V12.5625C94.6395 11.8144 94.4759 11.2591 94.1485 10.8967C93.8212 10.5226 93.3477 10.3355 92.7281 10.3355C92.0384 10.3355 91.489 10.5518 91.0798 10.9843C90.6707 11.4052 90.4661 12.0365 90.4661 12.8782V17.5426H87.7305V8.10852H90.3433V9.21326C90.7057 8.81579 91.1558 8.51184 91.6936 8.30141C92.2313 8.0793 92.8217 7.96824 93.4646 7.96824Z" fill="#3B4256"/>
<path d="M105.589 7.96824C106.758 7.96824 107.699 8.31895 108.412 9.02037C109.137 9.72179 109.499 10.7622 109.499 12.1417V17.5426H106.764V12.5625C106.764 11.8144 106.6 11.2591 106.273 10.8967C105.945 10.5226 105.472 10.3355 104.852 10.3355C104.163 10.3355 103.613 10.5518 103.204 10.9843C102.795 11.4052 102.59 12.0365 102.59 12.8782V17.5426H99.8547V8.10852H102.467V9.21326C102.83 8.81579 103.28 8.51184 103.818 8.30141C104.355 8.0793 104.946 7.96824 105.589 7.96824Z" fill="#3B4256"/>
<path d="M121.323 12.8606C121.323 12.8957 121.305 13.1412 121.27 13.5971H114.133C114.262 14.1816 114.566 14.6434 115.045 14.9824C115.524 15.3215 116.121 15.491 116.834 15.491C117.325 15.491 117.757 15.4208 118.131 15.2805C118.517 15.1286 118.874 14.8948 119.201 14.5791L120.656 16.1573C119.768 17.1744 118.47 17.6829 116.764 17.6829C115.7 17.6829 114.759 17.4783 113.94 17.0692C113.122 16.6483 112.491 16.0696 112.046 15.3331C111.602 14.5967 111.38 13.7608 111.38 12.8256C111.38 11.902 111.596 11.072 112.029 10.3355C112.473 9.58735 113.075 9.00868 113.835 8.59952C114.607 8.17867 115.466 7.96824 116.413 7.96824C117.336 7.96824 118.172 8.16698 118.92 8.56445C119.669 8.96192 120.253 9.53474 120.674 10.2829C121.106 11.0194 121.323 11.8787 121.323 12.8606ZM116.43 10.0374C115.811 10.0374 115.291 10.2128 114.87 10.5635C114.449 10.9142 114.192 11.3935 114.098 12.0014H118.745C118.652 11.4052 118.394 10.9317 117.973 10.581C117.553 10.2186 117.038 10.0374 116.43 10.0374Z" fill="#3B4256"/>
<path d="M125.757 9.35354C126.084 8.89762 126.522 8.55276 127.072 8.31895C127.633 8.08514 128.276 7.96824 129.001 7.96824V10.4933C128.697 10.47 128.492 10.4583 128.387 10.4583C127.604 10.4583 126.99 10.6804 126.546 11.1246C126.102 11.5572 125.88 12.2118 125.88 13.0886V17.5426H123.144V8.10852H125.757V9.35354Z" fill="#3B4256"/>
<path d="M15.9215 20.4619C16.5589 19.9205 17.068 19.2443 17.412 18.482L15.9328 17.4961H12.9558L11.4766 18.482C11.8205 19.2443 12.3297 19.9205 12.9671 20.4619L12.9558 20.4749V23.7353H15.9328V20.4754L15.9215 20.4619Z" fill="#FFC2A6"/>
<path d="M13.4098 20.4619C14.0472 19.9205 14.5563 19.2443 14.9003 18.482L13.4211 17.4961H10.444L8.96484 18.482C9.30883 19.2443 9.81795 19.9205 10.4554 20.4619L10.444 20.4749V23.7353H13.4211V20.4754L13.4098 20.4619Z" fill="#FFC2A6"/>
<path d="M22.8318 9.93849H24.7216C24.5797 8.94452 24.1637 8.00972 23.5204 7.23883C22.8771 6.46793 22.0318 5.89141 21.0793 5.57385L19.9961 5.21296L21.8865 4.74063L22.8318 4.2683L22.2095 3.77222C21.0815 2.8698 19.6798 2.37824 18.2352 2.37843H18.1045C18.7884 2.03904 19.3111 1.61479 19.995 1.27256C18.6764 0.216476 15.5715 -0.0968997 13.0973 2.3773C10.6084 -0.111607 7.43164 0.242497 6.19623 1.22901C6.88012 1.56841 7.40279 2.03508 8.08667 2.3773H7.95713C6.51252 2.37711 5.11087 2.86867 3.9828 3.77109L3.36058 4.26717L5.25101 4.7395L6.19623 5.21183L5.11299 5.57272C4.16048 5.89028 3.31522 6.4668 2.67191 7.2377C2.0286 8.00859 1.61266 8.94339 1.4707 9.93736H3.36114L2.6699 10.6286C1.90237 11.3963 1.47122 12.4375 1.47127 13.5231V13.7177H3.36171L3.11338 14.0491C2.74787 14.5362 2.49569 15.0988 2.37522 15.6957C2.25476 16.2927 2.26905 16.909 2.41705 17.4997L3.36227 17.0273L4.30749 16.555C4.15949 17.1457 4.1452 17.762 4.26566 18.359C4.38613 18.9559 4.63831 19.5185 5.00382 20.0056L5.25215 20.337L7.56174 18.3425C7.68037 18.5185 7.86389 18.6402 8.07212 18.6812C8.28034 18.7221 8.4963 18.6788 8.6727 18.5609L10.2611 17.5019C10.2612 17.685 10.311 17.8645 10.4051 18.0215C10.4992 18.1784 10.6341 18.307 10.7955 18.3933C10.9568 18.4797 11.1386 18.5207 11.3214 18.5119C11.5042 18.5032 11.6812 18.445 11.8336 18.3436L12.5724 17.8515C12.7275 17.748 12.9099 17.6927 13.0964 17.6927C13.283 17.6927 13.4654 17.748 13.6205 17.8515L14.3593 18.3436C14.5117 18.445 14.6887 18.5032 14.8715 18.5119C15.0543 18.5207 15.236 18.4797 15.3974 18.3933C15.5588 18.307 15.6937 18.1784 15.7878 18.0215C15.8819 17.8645 15.9317 17.685 15.9318 17.5019L17.5202 18.5609C17.6966 18.6787 17.9125 18.7218 18.1207 18.6809C18.3289 18.64 18.5124 18.5183 18.6312 18.3425L20.9391 20.3342L21.1874 20.0027C21.5529 19.5156 21.8051 18.9531 21.9255 18.3562C22.046 17.7592 22.0317 17.1429 21.8837 16.5522L22.8289 17.0245L23.7741 17.4968C23.9221 16.9061 23.9364 16.2898 23.816 15.6929C23.6955 15.0959 23.4433 14.5334 23.0778 14.0463L22.8295 13.7148H24.7194V13.5203C24.7193 12.4347 24.2882 11.3935 23.5207 10.6258L22.8318 9.93849Z" fill="white"/>
<path d="M11.0489 10.8828C10.6758 11.0384 10.3571 11.301 10.1329 11.6374C9.90869 11.9738 9.78906 12.369 9.78906 12.7732C9.78906 13.1775 9.90869 13.5727 10.1329 13.9091C10.3571 14.2455 10.6758 14.5081 11.0489 14.6637C11.422 14.5081 11.7407 14.2455 11.9649 13.9091C12.1891 13.5727 12.3087 13.1775 12.3087 12.7732C12.3087 12.369 12.1891 11.9738 11.9649 11.6374C11.7407 11.301 11.422 11.0384 11.0489 10.8828Z" fill="#D4E9FF"/>
<path d="M16.719 10.8822C16.3132 10.7131 15.8638 10.679 15.4372 10.7851C15.0105 10.8911 14.6293 11.1315 14.3498 11.4709C14.0704 11.8103 13.9076 12.2306 13.8854 12.6696C13.8633 13.1087 13.983 13.5433 14.2268 13.909C14.4707 14.2748 14.8258 14.5524 15.2396 14.7009C15.6534 14.8493 16.104 14.8606 16.5247 14.7332C16.9455 14.6058 17.3141 14.3464 17.576 13.9933C17.838 13.6403 17.9794 13.2123 17.9793 12.7727C17.9793 12.3684 17.8596 11.9731 17.6353 11.6367C17.411 11.3003 17.0922 11.0378 16.719 10.8822Z" fill="#D4E9FF"/>
<path d="M19.2099 13.6609C19.0289 13.2949 18.921 12.8972 18.892 12.49C18.8729 12.2401 18.8801 11.9889 18.9135 11.7405C18.9497 11.4675 18.9634 11.1921 18.9542 10.9169C18.9123 9.7714 18.4735 8.67613 17.7128 7.81867C16.9522 6.96121 15.917 6.39491 14.7847 6.2168C13.6523 6.39493 12.6171 6.96131 11.8564 7.81889C11.0957 8.67647 10.657 9.77188 10.6152 10.9174C10.8817 10.9685 11.134 11.0762 11.3552 11.2334C11.5764 11.3905 11.7611 11.5933 11.897 11.8282C11.9157 11.8604 11.9327 11.8932 11.9491 11.926C12.103 12.2324 12.1706 12.5749 12.1447 12.9168C12.1188 13.2587 12.0003 13.5871 11.802 13.8668L11.9649 14.6819C12.0163 14.9442 12.1572 15.1805 12.3636 15.3504C12.5699 15.5203 12.8289 15.6131 13.0962 15.6131C13.3635 15.6131 13.6225 15.5203 13.8289 15.3504C14.0352 15.1805 14.1762 14.9442 14.2275 14.6819L14.3905 13.8668C14.1419 13.5158 14.0205 13.0904 14.0462 12.6611C14.072 12.2317 14.2434 11.824 14.5322 11.5052C14.821 11.1864 15.2098 10.9756 15.6346 10.9077C16.0593 10.8397 16.4945 10.9186 16.8683 11.1313C17.2422 11.3441 17.5323 11.678 17.6907 12.0778C17.8492 12.4777 17.8666 12.9197 17.74 13.3308C17.6134 13.7418 17.3504 14.0975 16.9944 14.3389C16.6384 14.5803 16.2107 14.6931 15.782 14.6587V14.674C16.2774 14.7108 16.7575 14.8615 17.1851 15.1145C17.6126 15.3675 17.9759 15.7158 18.2466 16.1323L18.9208 15.458C19.1305 15.2483 19.2758 14.9829 19.3394 14.6932C19.3394 14.6842 19.3434 14.6746 19.3451 14.6655C19.4138 14.3249 19.3662 13.9712 19.2099 13.6609Z" fill="#FFC2A6"/>
<path d="M14.2943 9.46484H11.8964C11.7711 9.46484 11.6509 9.51463 11.5622 9.60326C11.4736 9.6919 11.4238 9.81211 11.4238 9.93745C11.4238 10.0628 11.4736 10.183 11.5622 10.2716C11.6509 10.3603 11.7711 10.4101 11.8964 10.4101H14.292C14.4174 10.4101 14.5376 10.3603 14.6262 10.2716C14.7148 10.183 14.7646 10.0628 14.7646 9.93745C14.7646 9.81211 14.7148 9.6919 14.6262 9.60326C14.5376 9.51463 14.4174 9.46484 14.292 9.46484H14.2943Z" fill="#3A4155"/>
<path d="M24.7212 10.4109C24.7888 10.4109 24.8557 10.3964 24.9173 10.3683C24.9789 10.3402 25.0337 10.2992 25.0781 10.2481C25.1225 10.197 25.1553 10.1369 25.1745 10.072C25.1936 10.0071 25.1985 9.9388 25.189 9.87179C25.0454 8.86726 24.6443 7.91698 24.0247 7.11339C23.4051 6.3098 22.588 5.68025 21.653 5.28598C22.3188 5.11346 21.7577 5.30861 23.0423 4.69091C23.1133 4.65549 23.1742 4.60275 23.2195 4.53755C23.2647 4.47236 23.2928 4.39681 23.3012 4.31789C23.3095 4.23897 23.2978 4.15922 23.2672 4.08601C23.2366 4.01279 23.188 3.94847 23.126 3.89898L22.5083 3.40007C21.6579 2.7228 20.6586 2.25748 19.5929 2.04248C19.7914 1.91974 19.9888 1.80321 20.2066 1.69517C20.2776 1.65975 20.3386 1.60701 20.3838 1.54181C20.4291 1.47662 20.4572 1.40107 20.4655 1.32215C20.4739 1.24323 20.4622 1.16348 20.4316 1.09027C20.401 1.01705 20.3524 0.95273 20.2903 0.903244C19.3189 0.210481 18.1266 -0.100783 16.9405 0.0287328C15.506 0.153683 14.1534 0.750442 13.094 1.72571C10.5321 -0.545978 7.31748 -0.272199 5.90163 0.860254C5.83959 0.90974 5.79101 0.97406 5.7604 1.04728C5.72978 1.12049 5.7181 1.20024 5.72644 1.27916C5.73479 1.35808 5.76288 1.43363 5.80813 1.49882C5.85338 1.56402 5.91433 1.61676 5.98535 1.65218C6.20945 1.76705 6.42666 1.89492 6.63585 2.03513C5.55756 2.24717 4.54602 2.7153 3.6865 3.40007L3.06427 3.89616C2.99474 3.95116 2.94209 4.02463 2.91236 4.10815C2.88262 4.19167 2.87698 4.28188 2.8961 4.36845C2.91522 4.45502 2.95832 4.53446 3.02047 4.59769C3.08263 4.66092 3.16132 4.70537 3.24755 4.72598L4.91625 5.14287C3.89193 5.49425 2.98457 6.12172 2.29425 6.95607C1.60393 7.79042 1.15748 8.79924 1.00414 9.87123C0.9949 9.93838 1.00022 10.0067 1.01974 10.0716C1.03926 10.1365 1.07253 10.1965 1.11727 10.2474C1.16187 10.2979 1.21684 10.3382 1.27844 10.3656C1.34004 10.3929 1.40681 10.4066 1.4742 10.4058H2.2254C1.39616 11.3053 0.95545 12.4957 0.999046 13.7183C0.999118 13.7801 1.01142 13.8413 1.03524 13.8983C1.05905 13.9553 1.09392 14.007 1.13782 14.0505C1.18173 14.094 1.23381 14.1284 1.29105 14.1516C1.3483 14.1749 1.40958 14.1866 1.47137 14.1861H2.45223C1.84283 15.219 1.66538 16.4505 1.95841 17.6134C1.9755 17.6821 2.00782 17.7461 2.05297 17.8006C2.09812 17.8551 2.15495 17.8988 2.21925 17.9284C2.28355 17.958 2.35368 17.9728 2.42446 17.9716C2.49524 17.9704 2.56485 17.9534 2.62815 17.9217L3.71422 17.3787C3.68261 18.5653 4.09628 19.7207 4.87382 20.6177C4.91273 20.6695 4.96189 20.7128 5.01823 20.7449C5.07458 20.7769 5.13691 20.797 5.20137 20.804C5.26582 20.8109 5.33101 20.8046 5.39289 20.7852C5.45478 20.7659 5.51203 20.7341 5.5611 20.6918L7.55279 18.9721C7.70286 19.0663 7.87099 19.128 8.04636 19.1533C8.22173 19.1785 8.40045 19.1667 8.57098 19.1187C8.89038 19.697 9.30171 20.2195 9.78885 20.6657V23.7367C9.78885 23.862 9.83861 23.9821 9.92719 24.0707C10.0158 24.1593 10.1359 24.209 10.2612 24.209H15.9319C15.994 24.209 16.0554 24.1968 16.1127 24.1731C16.17 24.1493 16.222 24.1145 16.2659 24.0707C16.3098 24.0268 16.3446 23.9748 16.3683 23.9175C16.392 23.8602 16.4043 23.7987 16.4043 23.7367V20.6657C16.8915 20.2191 17.3028 19.6962 17.6221 19.1175C17.7928 19.1644 17.9713 19.1756 18.1465 19.1504C18.3217 19.1252 18.4898 19.0641 18.6403 18.971L20.6326 20.6918C20.6816 20.7342 20.7389 20.7661 20.8009 20.7855C20.8628 20.8048 20.9281 20.8112 20.9926 20.8043C21.0571 20.7973 21.1195 20.7772 21.1759 20.7451C21.2323 20.713 21.2815 20.6696 21.3204 20.6177C22.0972 19.7203 22.5108 18.5651 22.48 17.3787L23.5661 17.9217C23.6294 17.9534 23.699 17.9704 23.7698 17.9716C23.8405 17.9728 23.9107 17.958 23.975 17.9284C24.0393 17.8988 24.0961 17.8551 24.1413 17.8006C24.1864 17.7461 24.2187 17.6821 24.2358 17.6134C24.5287 16.4522 24.3512 15.2223 23.742 14.1912H24.7223C24.8476 14.1912 24.9677 14.1414 25.0563 14.0528C25.1449 13.9643 25.1946 13.8441 25.1946 13.7189V13.5254C25.1908 12.3713 24.7532 11.2608 23.9688 10.4143H24.7223L24.7212 10.4109ZM7.74455 11.6785C7.66155 11.0485 7.71397 10.4081 7.89832 9.80003C8.08266 9.19195 8.39467 8.63022 8.8135 8.15238C9.23233 7.67454 9.74833 7.2916 10.327 7.02917C10.9057 6.76673 11.5337 6.63083 12.1691 6.63056H14.0234C14.6588 6.63083 15.2868 6.76673 15.8655 7.02917C16.4442 7.2916 16.9602 7.67454 17.379 8.15238C17.7979 8.63022 18.1099 9.19195 18.2942 9.80003C18.4786 10.4081 18.531 11.0485 18.448 11.6785C18.4329 11.7916 18.4225 11.9048 18.4169 12.0179H18.1697C18.0324 11.6097 17.7861 11.2469 17.4574 10.9686C17.1288 10.6903 16.7303 10.5072 16.305 10.439C15.8798 10.3709 15.444 10.4203 15.0449 10.5819C14.6457 10.7436 14.2983 11.0113 14.0404 11.3561H12.1505C11.8773 10.9918 11.5047 10.7142 11.0775 10.5567C10.6503 10.3992 10.1866 10.3686 9.74241 10.4685C9.29817 10.5683 8.89227 10.7945 8.57355 11.1196C8.25482 11.4448 8.03687 11.8552 7.94592 12.3013H7.78188C7.7852 12.0931 7.77272 11.8849 7.74455 11.6785ZM18.5826 15.1228L18.2885 15.417C18.2447 15.3683 18.1998 15.321 18.1538 15.275C17.9137 15.0352 17.6417 14.8296 17.3455 14.6641C17.6144 14.4631 17.8374 14.2072 17.9996 13.9133C18.1618 13.6194 18.2595 13.2943 18.2862 12.9597H18.4814C18.542 13.2755 18.6454 13.5814 18.7885 13.8693C18.8909 14.073 18.9264 14.3038 18.8898 14.5288C18.8533 14.7538 18.7465 14.9615 18.5849 15.1223L18.5826 15.1228ZM11.6787 12.7736C11.6787 13.054 11.5956 13.3281 11.4398 13.5612C11.2841 13.7943 11.0627 13.976 10.8036 14.0833C10.5446 14.1906 10.2596 14.2186 9.98462 14.1639C9.70965 14.1092 9.45707 13.9742 9.25882 13.776C9.06057 13.5777 8.92556 13.3252 8.87087 13.0502C8.81617 12.7752 8.84424 12.4902 8.95153 12.2312C9.05882 11.9721 9.24051 11.7508 9.47363 11.595C9.70674 11.4392 9.98081 11.3561 10.2612 11.3561C10.4474 11.356 10.6317 11.3926 10.8037 11.4638C10.9758 11.5351 11.1321 11.6395 11.2637 11.7711C11.3953 11.9028 11.4998 12.0591 11.571 12.2311C11.6422 12.4031 11.6788 12.5875 11.6787 12.7736ZM12.4933 14.7699C12.4637 14.713 12.4424 14.6522 12.4299 14.5894L12.3038 13.961C12.5143 13.6005 12.6248 13.1905 12.6239 12.7731C12.6238 12.6127 12.6077 12.4528 12.5759 12.2957H13.6172C13.5854 12.4528 13.5693 12.6127 13.5692 12.7731C13.5684 13.1905 13.6789 13.6005 13.8893 13.961L13.7637 14.5894C13.7369 14.728 13.6674 14.8549 13.5651 14.9522C13.4628 15.0495 13.3326 15.1124 13.1928 15.1323C13.053 15.1522 12.9105 15.1279 12.7851 15.063C12.6597 14.998 12.5577 14.8955 12.4933 14.7699ZM15.8182 14.1867C15.5436 14.1646 15.2814 14.0629 15.0637 13.8942C14.8459 13.7255 14.6821 13.497 14.5921 13.2366C14.5021 12.9763 14.49 12.6953 14.5571 12.4282C14.6243 12.161 14.7678 11.9192 14.9702 11.7323C15.1725 11.5454 15.425 11.4215 15.6966 11.3758C15.9683 11.3301 16.2474 11.3645 16.4998 11.4748C16.7522 11.5852 16.967 11.7667 17.1179 11.9971C17.2688 12.2276 17.3492 12.497 17.3495 12.7725C17.3496 12.9683 17.3092 13.1621 17.2308 13.3415C17.1523 13.521 17.0375 13.6822 16.8937 13.8151C16.7498 13.9479 16.58 14.0495 16.3949 14.1135C16.2098 14.1775 16.0134 14.2024 15.8182 14.1867ZM7.40515 13.8721C7.5053 13.6716 7.586 13.4619 7.64612 13.246H7.94649C8.06286 13.8124 8.38259 14.3167 8.84533 14.6635C8.54912 14.8291 8.27712 15.0346 8.037 15.2744C7.99099 15.3204 7.94611 15.3678 7.90237 15.4164L7.60823 15.1223C7.44728 14.9617 7.34102 14.7545 7.30457 14.53C7.26811 14.3056 7.30331 14.0754 7.40515 13.8721ZM10.7341 23.2621V21.3672C11.4451 21.8029 12.2629 22.0335 13.0968 22.0335C13.9308 22.0335 14.7485 21.8029 15.4596 21.3672V23.2621H10.7341ZM13.0968 21.0883C12.3193 21.0416 11.5677 20.7912 10.9174 20.3624C10.2671 19.9337 9.741 19.3414 9.39175 18.6452L9.99135 18.2453C10.0935 18.4198 10.2303 18.5717 10.3932 18.6916C10.5561 18.8114 10.7418 18.8967 10.9389 18.9423C11.136 18.9878 11.3403 18.9927 11.5393 18.9564C11.7383 18.9202 11.9278 18.8438 12.0962 18.7317L12.8355 18.2419C12.913 18.1899 13.0041 18.1622 13.0974 18.1622C13.1907 18.1622 13.2818 18.1899 13.3593 18.2419L14.0975 18.7334C14.2659 18.8456 14.4555 18.9221 14.6545 18.9584C14.8536 18.9946 15.058 18.9898 15.2551 18.9443C15.4522 18.8987 15.638 18.8134 15.801 18.6935C15.964 18.5736 16.1007 18.4216 16.2029 18.247L16.8025 18.6469C16.4533 19.3434 15.927 19.9359 15.2765 20.3648C14.626 20.7937 13.8741 21.044 13.0963 21.0905L13.0968 21.0883ZM17.7822 18.1638L16.1938 17.106C16.1225 17.0582 16.0394 17.0307 15.9536 17.0266C15.8678 17.0224 15.7825 17.0417 15.7068 17.0825C15.6312 17.1232 15.5681 17.1838 15.5243 17.2577C15.4806 17.3316 15.4578 17.4161 15.4585 17.502C15.4585 17.5996 15.432 17.6954 15.3819 17.7791C15.3317 17.8629 15.2598 17.9314 15.1737 17.9775C15.0877 18.0235 14.9907 18.0453 14.8932 18.0406C14.7957 18.0359 14.7013 18.0047 14.6202 17.9506L13.8848 17.459C13.6521 17.3034 13.3785 17.2203 13.0985 17.2203C12.8186 17.2203 12.5449 17.3034 12.3123 17.459L11.5735 17.9511C11.4923 18.0052 11.398 18.0362 11.3006 18.0408C11.2032 18.0455 11.1063 18.0236 11.0204 17.9776C10.9344 17.9316 10.8625 17.8631 10.8124 17.7794C10.7623 17.6958 10.7358 17.6001 10.7358 17.5026C10.7364 17.4167 10.7137 17.3322 10.6699 17.2583C10.6261 17.1843 10.563 17.1238 10.4874 17.083C10.4117 17.0423 10.3264 17.023 10.2406 17.0271C10.1548 17.0313 10.0718 17.0588 10.0004 17.1066C8.27288 18.2583 8.35999 18.2221 8.23215 18.2221C8.18853 18.2223 8.1453 18.2139 8.10495 18.1973C8.0646 18.1807 8.02793 18.1563 7.99706 18.1255C7.96619 18.0947 7.94173 18.0581 7.92509 18.0178C7.90845 17.9774 7.89996 17.9342 7.90011 17.8906C7.90038 17.1964 8.16273 16.5279 8.63469 16.0188C9.10664 15.5098 9.7534 15.1976 10.4456 15.1449C10.8902 15.1128 11.3361 15.1867 11.7466 15.3604C11.8949 15.5824 12.0957 15.7644 12.3312 15.8903C12.5667 16.0162 12.8295 16.0821 13.0965 16.0821C13.3636 16.0821 13.6264 16.0162 13.8619 15.8903C14.0974 15.7644 14.2982 15.5824 14.4465 15.3604C14.8571 15.1868 15.3029 15.113 15.7475 15.1449C16.4405 15.1967 17.0883 15.5085 17.5611 16.0178C18.0339 16.5271 18.2967 17.1962 18.297 17.8912C18.2973 17.9512 18.2812 18.0102 18.2503 18.0617C18.2195 18.1132 18.1752 18.1553 18.1221 18.1834C18.0691 18.2115 18.0094 18.2245 17.9494 18.221C17.8895 18.2176 17.8317 18.1978 17.7822 18.1638ZM24.2375 13.2426H22.8307C22.7423 13.2419 22.6555 13.266 22.5802 13.3122C22.5048 13.3584 22.4439 13.4248 22.4044 13.5039C22.3649 13.583 22.3484 13.6716 22.3568 13.7596C22.3652 13.8476 22.3981 13.9315 22.4517 14.0017L22.7006 14.3337C23.2306 15.0379 23.4842 15.9119 23.4134 16.7904L22.0954 16.1314C22.0145 16.0909 21.9238 16.0744 21.8338 16.084C21.7439 16.0935 21.6586 16.1287 21.5881 16.1852C21.5176 16.2418 21.4648 16.3175 21.436 16.4032C21.4072 16.4889 21.4036 16.5811 21.4256 16.6688C21.5535 17.176 21.5694 17.705 21.4723 18.219C21.3752 18.733 21.1674 19.2197 20.8634 19.6453L19.1975 18.2068C19.2237 18.1034 19.237 17.9972 19.2371 17.8906C19.237 17.4052 19.1408 16.9246 18.9542 16.4764C18.9169 16.3865 18.8756 16.2983 18.8309 16.2112L19.2495 15.7926C19.5509 15.4919 19.7498 15.1039 19.818 14.6837C19.8863 14.2635 19.8204 13.8325 19.6296 13.4519C19.4844 13.1577 19.3948 12.8391 19.3655 12.5123C19.3655 12.5055 19.3655 12.4993 19.3655 12.4925C19.3655 12.4606 19.3623 12.4287 19.3559 12.3975C19.3445 12.1998 19.3519 12.0015 19.3779 11.8052C19.4789 11.0422 19.416 10.2664 19.1932 9.52968C18.9705 8.79294 18.5931 8.1122 18.0863 7.53295C17.5795 6.95369 16.9549 6.48925 16.2542 6.17063C15.5536 5.85202 14.7931 5.68657 14.0234 5.68534H12.1737C11.4036 5.68548 10.6424 5.85004 9.94098 6.16803C9.2396 6.48602 8.61419 6.95011 8.10659 7.52925C7.59899 8.10839 7.2209 8.78924 6.9976 9.52626C6.77431 10.2633 6.71095 11.0395 6.81178 11.803C6.89381 12.365 6.80492 12.9387 6.55666 13.4496C6.36582 13.8303 6.29983 14.2614 6.36807 14.6817C6.43632 15.102 6.63532 15.4901 6.93679 15.7909L7.35481 16.2089C7.08864 16.7293 6.95001 17.3055 6.95036 17.89C6.95046 17.9967 6.96376 18.1029 6.98996 18.2062L5.32748 19.6447C5.02336 19.2191 4.81553 18.7324 4.71843 18.2184C4.62134 17.7044 4.6373 17.1754 4.76521 16.6682C4.78726 16.5805 4.78366 16.4883 4.75486 16.4026C4.72605 16.3169 4.67325 16.2413 4.60273 16.1847C4.5322 16.1281 4.44691 16.0929 4.35699 16.0834C4.26708 16.0738 4.17631 16.0903 4.09547 16.1308L2.77748 16.7898C2.71672 15.7698 3.06248 14.7673 3.73911 14.0017C3.79177 13.9315 3.82382 13.848 3.83168 13.7606C3.83953 13.6732 3.82288 13.5853 3.78358 13.5068C3.74428 13.4283 3.6839 13.3624 3.6092 13.3163C3.5345 13.2702 3.44844 13.2459 3.36068 13.246H1.95501C2.09473 11.4698 3.36124 10.6954 3.69612 10.2723C3.7623 10.2062 3.80739 10.122 3.82567 10.0303C3.84395 9.93859 3.83459 9.84352 3.79879 9.75714C3.76299 9.67075 3.70235 9.59694 3.62456 9.54505C3.54677 9.49316 3.45532 9.46552 3.36181 9.46565H2.04665C2.25042 8.66762 2.65196 7.93379 3.21419 7.33191C3.77643 6.73003 4.48124 6.2795 5.26356 6.02191L6.3468 5.66271C6.43558 5.63324 6.51361 5.57808 6.57099 5.50421C6.62838 5.43034 6.66254 5.34109 6.66914 5.24779C6.67575 5.15448 6.6545 5.06131 6.60809 4.9801C6.56168 4.89888 6.4922 4.83328 6.40846 4.7916C5.80071 4.40515 5.11914 4.14951 4.40715 4.04096C5.43063 3.26933 6.67717 2.85123 7.95894 2.84968H8.0896C8.19606 2.8498 8.29944 2.81394 8.38296 2.74793C8.46649 2.68192 8.52527 2.58963 8.54976 2.48602C8.57425 2.38242 8.56303 2.27358 8.5179 2.17715C8.47278 2.08073 8.3964 2.00238 8.30116 1.95481C7.99203 1.79252 7.69351 1.61077 7.40742 1.41064C7.32257 1.3537 7.23659 1.29713 7.14947 1.24094C8.1279 0.92146 9.1776 0.890246 10.1733 1.15103C11.169 1.41181 12.0686 1.95357 12.7648 2.71166C12.8087 2.75553 12.8607 2.79033 12.918 2.81408C12.9753 2.83782 13.0368 2.85004 13.0988 2.85004C13.1608 2.85004 13.2223 2.83782 13.2796 2.81408C13.3369 2.79033 13.389 2.75553 13.4328 2.71166C14.3776 1.71661 15.6512 1.09816 17.0174 0.971124C17.7099 0.910103 18.4071 1.011 19.0538 1.26583C18.9678 1.31938 18.8832 1.37274 18.7998 1.42591C18.5074 1.61779 18.2053 1.79451 17.8948 1.95537C17.7995 2.00294 17.7232 2.0813 17.678 2.17772C17.6329 2.27414 17.6217 2.38298 17.6462 2.48659C17.6707 2.59019 17.7294 2.68249 17.813 2.7485C17.8965 2.8145 17.9999 2.85036 18.1063 2.85025H18.237C19.5905 2.8656 20.9002 3.33177 21.959 4.17503L21.7209 4.29438L19.8808 4.75426C19.7821 4.77939 19.6942 4.83576 19.6301 4.91495C19.566 4.99414 19.5293 5.09192 19.5254 5.1937C19.5214 5.29548 19.5505 5.3958 19.6082 5.47971C19.666 5.56362 19.7493 5.62663 19.8457 5.65932L20.929 6.02021C21.712 6.27755 22.4175 6.72816 22.9803 7.33038C23.5431 7.9326 23.9449 8.66699 24.1487 9.46565H22.8313C22.7378 9.46552 22.6463 9.49316 22.5685 9.54505C22.4907 9.59694 22.4301 9.67075 22.3943 9.75714C22.3585 9.84352 22.3492 9.93859 22.3674 10.0303C22.3857 10.122 22.4308 10.2062 22.497 10.2723L23.1871 10.9635C23.7963 11.5761 24.1685 12.3848 24.2375 13.246V13.2426Z" fill="#3A4155"/>
<path d="M11.205 8.52139H14.9853C15.1107 8.52139 15.2309 8.4716 15.3195 8.38297C15.4082 8.29433 15.458 8.17412 15.458 8.04878C15.458 7.92343 15.4082 7.80322 15.3195 7.71459C15.2309 7.62596 15.1107 7.57617 14.9853 7.57617H11.205C11.0797 7.57617 10.9595 7.62596 10.8708 7.71459C10.7822 7.80322 10.7324 7.92343 10.7324 8.04878C10.7324 8.17412 10.7822 8.29433 10.8708 8.38297C10.9595 8.4716 11.0797 8.52139 11.205 8.52139Z" fill="#3A4155"/>
</svg>
