<svg width="228" height="44" viewBox="0 0 228 44" fill="none" xmlns="http://www.w3.org/2000/svg">
<path d="M71.781 32L64.682 10.3H69.89L76.059 29.52H73.455L79.903 10.3H84.553L90.753 29.52H88.242L94.566 10.3H99.371L92.272 32H86.878L81.391 15.136H82.817L77.175 32H71.781ZM102.106 32V15.322H106.942V32H102.106ZM104.524 12.997C103.635 12.997 102.912 12.7387 102.354 12.222C101.796 11.7053 101.517 11.0647 101.517 10.3C101.517 9.53533 101.796 8.89467 102.354 8.378C102.912 7.86133 103.635 7.603 104.524 7.603C105.413 7.603 106.136 7.851 106.694 8.347C107.252 8.82233 107.531 9.44233 107.531 10.207C107.531 11.013 107.252 11.6847 106.694 12.222C106.157 12.7387 105.433 12.997 104.524 12.997ZM121.567 15.074C122.89 15.074 124.068 15.3427 125.101 15.88C126.155 16.3967 126.982 17.2027 127.581 18.298C128.181 19.3727 128.48 20.7573 128.48 22.452V32H123.644V23.196C123.644 21.8527 123.345 20.8607 122.745 20.22C122.167 19.5793 121.34 19.259 120.265 19.259C119.501 19.259 118.808 19.4243 118.188 19.755C117.589 20.065 117.114 20.5507 116.762 21.212C116.432 21.8733 116.266 22.7207 116.266 23.754V32H111.43V15.322H116.049V19.941L115.181 18.546C115.781 17.43 116.638 16.5723 117.754 15.973C118.87 15.3737 120.141 15.074 121.567 15.074ZM143.001 15.074C144.324 15.074 145.502 15.3427 146.535 15.88C147.589 16.3967 148.416 17.2027 149.015 18.298C149.614 19.3727 149.914 20.7573 149.914 22.452V32H145.078V23.196C145.078 21.8527 144.778 20.8607 144.179 20.22C143.6 19.5793 142.774 19.259 141.699 19.259C140.934 19.259 140.242 19.4243 139.622 19.755C139.023 20.065 138.547 20.5507 138.196 21.212C137.865 21.8733 137.7 22.7207 137.7 23.754V32H132.864V15.322H137.483V19.941L136.615 18.546C137.214 17.43 138.072 16.5723 139.188 15.973C140.304 15.3737 141.575 15.074 143.001 15.074ZM164.434 15.074C165.757 15.074 166.935 15.3427 167.968 15.88C169.022 16.3967 169.849 17.2027 170.448 18.298C171.048 19.3727 171.347 20.7573 171.347 22.452V32H166.511V23.196C166.511 21.8527 166.212 20.8607 165.612 20.22C165.034 19.5793 164.207 19.259 163.132 19.259C162.368 19.259 161.675 19.4243 161.055 19.755C160.456 20.065 159.981 20.5507 159.629 21.212C159.299 21.8733 159.133 22.7207 159.133 23.754V32H154.297V15.322H158.916V19.941L158.048 18.546C158.648 17.43 159.505 16.5723 160.621 15.973C161.737 15.3737 163.008 15.074 164.434 15.074ZM185.868 15.074C187.191 15.074 188.369 15.3427 189.402 15.88C190.456 16.3967 191.283 17.2027 191.882 18.298C192.481 19.3727 192.781 20.7573 192.781 22.452V32H187.945V23.196C187.945 21.8527 187.645 20.8607 187.046 20.22C186.467 19.5793 185.641 19.259 184.566 19.259C183.801 19.259 183.109 19.4243 182.489 19.755C181.89 20.065 181.414 20.5507 181.063 21.212C180.732 21.8733 180.567 22.7207 180.567 23.754V32H175.731V15.322H180.35V19.941L179.482 18.546C180.081 17.43 180.939 16.5723 182.055 15.973C183.171 15.3737 184.442 15.074 185.868 15.074ZM205.563 32.248C203.661 32.248 201.987 31.876 200.541 31.132C199.115 30.388 198.009 29.3753 197.224 28.094C196.438 26.792 196.046 25.3143 196.046 23.661C196.046 21.987 196.428 20.5093 197.193 19.228C197.978 17.926 199.042 16.9133 200.386 16.19C201.729 15.446 203.248 15.074 204.943 15.074C206.575 15.074 208.043 15.4253 209.345 16.128C210.667 16.81 211.711 17.802 212.476 19.104C213.24 20.3853 213.623 21.925 213.623 23.723C213.623 23.909 213.612 24.126 213.592 24.374C213.571 24.6013 213.55 24.8183 213.53 25.025H199.983V22.204H210.988L209.128 23.041C209.128 22.173 208.952 21.4187 208.601 20.778C208.249 20.1373 207.764 19.6413 207.144 19.29C206.524 18.918 205.8 18.732 204.974 18.732C204.147 18.732 203.413 18.918 202.773 19.29C202.153 19.6413 201.667 20.1477 201.316 20.809C200.964 21.4497 200.789 22.2143 200.789 23.103V23.847C200.789 24.7563 200.985 25.5623 201.378 26.265C201.791 26.947 202.359 27.474 203.083 27.846C203.827 28.1973 204.695 28.373 205.687 28.373C206.575 28.373 207.35 28.2387 208.012 27.97C208.694 27.7013 209.314 27.2983 209.872 26.761L212.445 29.551C211.68 30.419 210.719 31.0907 209.562 31.566C208.404 32.0207 207.071 32.248 205.563 32.248ZM216.842 32V15.322H221.461V20.034L220.81 18.67C221.306 17.492 222.102 16.6033 223.197 16.004C224.293 15.384 225.626 15.074 227.196 15.074V19.538C226.99 19.5173 226.804 19.507 226.638 19.507C226.473 19.4863 226.297 19.476 226.111 19.476C224.789 19.476 223.714 19.8583 222.887 20.623C222.081 21.367 221.678 22.5347 221.678 24.126V32H216.842Z" fill="white"/>
<path d="M27.38 37.1629C28.5068 36.2059 29.4068 35.0104 30.015 33.6629L27.4 31.9199H22.137L19.522 33.6629C20.1301 35.0104 21.0301 36.2059 22.157 37.1629L22.137 37.1859V42.9499H27.4V37.1869L27.38 37.1629Z" fill="#FFC2A6"/>
<path d="M22.94 37.1629C24.0669 36.2059 24.9669 35.0104 25.575 33.6629L22.96 31.9199H17.697L15.082 33.6629C15.6901 35.0104 16.5902 36.2059 17.717 37.1629L17.697 37.1859V42.9499H22.96V37.1869L22.94 37.1629Z" fill="#FFC2A6"/>
<path d="M39.597 18.5586H42.938C42.687 16.8015 41.9517 15.1489 40.8144 13.7861C39.6772 12.4233 38.1829 11.404 36.499 10.8426L34.584 10.2046L37.926 9.36965L39.597 8.53465L38.497 7.65765C36.5027 6.06231 34.0248 5.19331 31.471 5.19365H31.24C32.449 4.59365 33.373 3.84365 34.582 3.23865C32.251 1.37165 26.762 0.817647 22.388 5.19165C17.988 0.791646 12.372 1.41765 10.188 3.16165C11.397 3.76165 12.321 4.58665 13.53 5.19165H13.301C10.7471 5.19131 8.26924 6.06031 6.27498 7.65565L5.17498 8.53265L8.51698 9.36765L10.188 10.2026L8.27298 10.8406C6.58909 11.402 5.09479 12.4212 3.95752 13.7841C2.82025 15.1469 2.08494 16.7995 1.83398 18.5566H5.17598L3.95398 19.7786C2.59711 21.1359 1.83489 22.9765 1.83498 24.8956V25.2396H5.17698L4.73798 25.8256C4.09182 26.6867 3.646 27.6812 3.43303 28.7365C3.22007 29.7918 3.24533 30.8813 3.50698 31.9256L5.17798 31.0906L6.84898 30.2556C6.58733 31.2999 6.56207 32.3895 6.77503 33.4448C6.988 34.5001 7.43382 35.4945 8.07998 36.3556L8.51898 36.9416L12.602 33.4156C12.8117 33.7267 13.1361 33.942 13.5043 34.0143C13.8724 34.0867 14.2541 34.0102 14.566 33.8016L17.374 31.9296C17.3742 32.2532 17.4622 32.5706 17.6286 32.8481C17.795 33.1256 18.0335 33.3528 18.3187 33.5055C18.604 33.6582 18.9253 33.7306 19.2485 33.7152C19.5717 33.6997 19.8846 33.5969 20.154 33.4176L21.46 32.5476C21.7343 32.3646 22.0567 32.2669 22.3865 32.2669C22.7163 32.2669 23.0387 32.3646 23.313 32.5476L24.619 33.4176C24.8884 33.5969 25.2013 33.6997 25.5245 33.7152C25.8476 33.7306 26.169 33.6582 26.4542 33.5055C26.7395 33.3528 26.978 33.1256 27.1444 32.8481C27.3107 32.5706 27.3987 32.2532 27.399 31.9296L30.207 33.8016C30.5189 34.0099 30.9006 34.0863 31.2686 34.0139C31.6367 33.9416 31.9611 33.7265 32.171 33.4156L36.251 36.9366L36.69 36.3506C37.3361 35.4895 37.782 34.4951 37.9949 33.4398C38.2079 32.3845 38.1826 31.2949 37.921 30.2506L39.592 31.0856L41.263 31.9206C41.5246 30.8763 41.5499 29.7868 41.3369 28.7315C41.124 27.6762 40.6781 26.6817 40.032 25.8206L39.593 25.2346H42.934V24.8906C42.934 22.9715 42.1718 21.1309 40.815 19.7736L39.597 18.5586Z" fill="white"/>
<path d="M18.768 20.2285C18.1084 20.5036 17.5449 20.9677 17.1486 21.5625C16.7523 22.1572 16.5408 22.8558 16.5408 23.5705C16.5408 24.2852 16.7523 24.9839 17.1486 25.5786C17.5449 26.1733 18.1084 26.6374 18.768 26.9125C19.4276 26.6374 19.991 26.1733 20.3874 25.5786C20.7837 24.9839 20.9952 24.2852 20.9952 23.5705C20.9952 22.8558 20.7837 22.1572 20.3874 21.5625C19.991 20.9677 19.4276 20.5036 18.768 20.2285Z" fill="#D4E9FF"/>
<path d="M28.7931 20.2279C28.0757 19.9289 27.2811 19.8687 26.5269 20.0561C25.7726 20.2435 25.0987 20.6686 24.6047 21.2686C24.1107 21.8685 23.8228 22.6115 23.7837 23.3877C23.7445 24.1639 23.9561 24.9321 24.3872 25.5788C24.8183 26.2254 25.446 26.7162 26.1776 26.9786C26.9091 27.241 27.7057 27.2611 28.4495 27.0358C29.1933 26.8106 29.845 26.352 30.308 25.7278C30.7711 25.1037 31.0211 24.3471 31.0211 23.5699C31.021 22.8551 30.8094 22.1564 30.4129 21.5617C30.0164 20.9669 29.4528 20.5029 28.7931 20.2279Z" fill="#D4E9FF"/>
<path d="M33.1959 25.1385C32.876 24.4915 32.6852 23.7885 32.6339 23.0685C32.6002 22.6267 32.613 22.1827 32.672 21.7435C32.7361 21.261 32.7601 20.774 32.7439 20.2875C32.67 18.2625 31.8941 16.3262 30.5494 14.8104C29.2047 13.2945 27.3747 12.2934 25.3729 11.9785C23.371 12.2934 21.5409 13.2947 20.1962 14.8108C18.8514 16.3268 18.0757 18.2633 18.002 20.2885C18.473 20.3788 18.9191 20.5692 19.3101 20.847C19.7011 21.1248 20.0277 21.4834 20.2679 21.8985C20.3009 21.9555 20.3309 22.0135 20.3599 22.0715C20.632 22.6132 20.7516 23.2187 20.7058 23.8231C20.66 24.4275 20.4505 25.008 20.0999 25.5025L20.3879 26.9435C20.4788 27.4072 20.7279 27.825 21.0927 28.1253C21.4576 28.4256 21.9154 28.5898 22.3879 28.5898C22.8605 28.5898 23.3183 28.4256 23.6832 28.1253C24.048 27.825 24.2971 27.4072 24.3879 26.9435L24.6759 25.5025C24.2365 24.8819 24.0219 24.1301 24.0674 23.371C24.113 22.612 24.416 21.8912 24.9265 21.3276C25.437 20.764 26.1245 20.3914 26.8753 20.2712C27.6262 20.1511 28.3955 20.2906 29.0564 20.6667C29.7173 21.0428 30.2302 21.633 30.5103 22.3399C30.7905 23.0469 30.8212 23.8282 30.5974 24.5549C30.3736 25.2816 29.9086 25.9103 29.2793 26.3371C28.65 26.7639 27.8939 26.9634 27.1359 26.9025V26.9295C28.0117 26.9946 28.8606 27.2611 29.6164 27.7083C30.3721 28.1555 31.0144 28.7712 31.493 29.5075L32.685 28.3155C33.0556 27.9447 33.3124 27.4756 33.4249 26.9635C33.4249 26.9475 33.432 26.9305 33.435 26.9145C33.5564 26.3125 33.4723 25.687 33.1959 25.1385Z" fill="#FFC2A6"/>
<path d="M24.5052 17.7188H20.2662C20.0446 17.7188 19.8321 17.8068 19.6754 17.9635C19.5187 18.1201 19.4307 18.3327 19.4307 18.5542C19.4307 18.7758 19.5187 18.9883 19.6754 19.145C19.8321 19.3017 20.0446 19.3897 20.2662 19.3897H24.5012C24.7227 19.3897 24.9353 19.3017 25.0919 19.145C25.2486 18.9883 25.3367 18.7758 25.3367 18.5542C25.3367 18.3327 25.2486 18.1201 25.0919 17.9635C24.9353 17.8068 24.7227 17.7188 24.5012 17.7188H24.5052Z" fill="#3A4155"/>
<path d="M42.9381 19.3931C43.0577 19.3931 43.176 19.3675 43.2849 19.3178C43.3937 19.2682 43.4907 19.1957 43.5691 19.1053C43.6475 19.015 43.7056 18.9088 43.7394 18.794C43.7732 18.6792 43.782 18.5585 43.7651 18.4401C43.5113 16.6642 42.8022 14.9843 41.7068 13.5636C40.6114 12.143 39.167 11.0301 37.5141 10.3331C38.6911 10.0281 37.6991 10.3731 39.9701 9.28108C40.0956 9.21846 40.2034 9.12522 40.2834 9.00996C40.3633 8.89471 40.413 8.76116 40.4278 8.62164C40.4425 8.48212 40.4219 8.34114 40.3677 8.2117C40.3136 8.08227 40.2277 7.96856 40.1181 7.88108L39.0261 6.99908C37.5226 5.80178 35.756 4.97915 33.8721 4.59908C34.2231 4.38208 34.5721 4.17608 34.9571 3.98508C35.0826 3.92246 35.1904 3.82922 35.2704 3.71396C35.3503 3.59871 35.4 3.46516 35.4148 3.32564C35.4295 3.18612 35.4089 3.04514 35.3547 2.9157C35.3006 2.78627 35.2147 2.67256 35.1051 2.58508C33.3877 1.36038 31.2799 0.810113 29.1831 1.03908C26.6471 1.25997 24.2558 2.31495 22.3831 4.03908C17.8541 0.0230765 12.1711 0.507076 9.66807 2.50908C9.55839 2.59656 9.47252 2.71027 9.41839 2.8397C9.36427 2.96914 9.34362 3.11012 9.35837 3.24964C9.37312 3.38916 9.42279 3.52271 9.50278 3.63796C9.58278 3.75322 9.69052 3.84646 9.81607 3.90908C10.2123 4.11216 10.5962 4.33821 10.9661 4.58608C9.0598 4.96093 7.27157 5.78851 5.75207 6.99908L4.65207 7.87608C4.52915 7.97332 4.43608 8.10319 4.3835 8.25085C4.33093 8.3985 4.32097 8.55797 4.35477 8.71102C4.38857 8.86406 4.46477 9.0045 4.57464 9.11628C4.68451 9.22806 4.82363 9.30665 4.97607 9.34308L7.92607 10.0801C6.11524 10.7013 4.51117 11.8105 3.29079 13.2855C2.07041 14.7605 1.28115 16.544 1.01007 18.4391C0.99374 18.5578 1.00315 18.6786 1.03766 18.7934C1.07217 18.9081 1.13097 19.0141 1.21007 19.1041C1.28891 19.1934 1.3861 19.2647 1.495 19.313C1.60389 19.3613 1.72194 19.3855 1.84107 19.3841H3.16907C1.70311 20.9742 0.923998 23.0787 1.00107 25.2401C1.0012 25.3493 1.02294 25.4575 1.06505 25.5583C1.10715 25.6591 1.16879 25.7505 1.24641 25.8274C1.32402 25.9043 1.41609 25.965 1.51729 26.0062C1.61849 26.0473 1.72683 26.068 1.83607 26.0671H3.57007C2.49275 27.8931 2.17905 30.0702 2.69707 32.1261C2.7273 32.2475 2.78443 32.3606 2.86425 32.457C2.94407 32.5534 3.04453 32.6306 3.1582 32.6829C3.27187 32.7352 3.39586 32.7613 3.52098 32.7593C3.6461 32.7572 3.76916 32.7271 3.88107 32.6711L5.80107 31.7111C5.74518 33.8088 6.47649 35.8515 7.85107 37.4371C7.91985 37.5287 8.00675 37.6053 8.10636 37.6619C8.20598 37.7186 8.31617 37.7542 8.43011 37.7665C8.54406 37.7788 8.65931 37.7675 8.76871 37.7334C8.87811 37.6992 8.97932 37.643 9.06607 37.5681L12.5871 34.5281C12.8524 34.6946 13.1496 34.8037 13.4596 34.8483C13.7697 34.8929 14.0856 34.872 14.3871 34.7871C14.9517 35.8094 15.6789 36.7332 16.5401 37.5221V42.9511C16.5401 43.1725 16.628 43.3849 16.7846 43.5415C16.9412 43.6981 17.1536 43.7861 17.3751 43.7861H27.4001C27.5097 43.7861 27.6183 43.7645 27.7196 43.7225C27.8209 43.6806 27.913 43.619 27.9905 43.5415C28.068 43.464 28.1295 43.3719 28.1715 43.2706C28.2135 43.1693 28.2351 43.0607 28.2351 42.9511V37.5221C29.0964 36.7325 29.8236 35.8081 30.3881 34.7851C30.6898 34.868 31.0054 34.8878 31.3151 34.8433C31.6248 34.7987 31.922 34.6907 32.1881 34.5261L35.7101 37.5681C35.7968 37.6431 35.8981 37.6995 36.0076 37.7338C36.1171 37.768 36.2325 37.7793 36.3466 37.767C36.4606 37.7547 36.5709 37.7191 36.6706 37.6623C36.7703 37.6056 36.8573 37.5289 36.9261 37.4371C38.2994 35.8507 39.0305 33.8086 38.9761 31.7111L40.8961 32.6711C41.008 32.7271 41.131 32.7572 41.2562 32.7593C41.3813 32.7613 41.5053 32.7352 41.6189 32.6829C41.7326 32.6306 41.8331 32.5534 41.9129 32.457C41.9927 32.3606 42.0498 32.2475 42.0801 32.1261C42.5978 30.0732 42.2841 27.8989 41.2071 26.0761H42.9401C43.1615 26.0761 43.3739 25.9881 43.5305 25.8315C43.6871 25.6749 43.7751 25.4625 43.7751 25.2411V24.8991C43.7683 22.8588 42.9948 20.8957 41.6081 19.3991H42.9401L42.9381 19.3931ZM12.9261 21.6341C12.7793 20.5204 12.872 19.3882 13.1979 18.3132C13.5238 17.2382 14.0754 16.2452 14.8158 15.4004C15.5562 14.5557 16.4684 13.8787 17.4915 13.4148C18.5145 12.9508 19.6248 12.7106 20.7481 12.7101H24.0261C25.1494 12.7106 26.2596 12.9508 27.2827 13.4148C28.3057 13.8787 29.2179 14.5557 29.9583 15.4004C30.6988 16.2452 31.2503 17.2382 31.5762 18.3132C31.9021 19.3882 31.9948 20.5204 31.8481 21.6341C31.8214 21.8341 31.8031 22.0341 31.7931 22.2341H31.3561C31.1133 21.5125 30.6779 20.871 30.0969 20.379C29.5159 19.8871 28.8114 19.5633 28.0597 19.4428C27.3079 19.3223 26.5376 19.4097 25.8319 19.6955C25.1263 19.9812 24.5122 20.4545 24.0561 21.0641H20.7151C20.2322 20.4201 19.5735 19.9293 18.8182 19.6509C18.0629 19.3725 17.2433 19.3183 16.458 19.4949C15.6726 19.6714 14.9551 20.0712 14.3916 20.6461C13.8282 21.2209 13.4429 21.9464 13.2821 22.7351H12.9921C12.9979 22.3669 12.9759 21.9989 12.9261 21.6341ZM32.0861 27.7231L31.5661 28.2431C31.4887 28.1571 31.4094 28.0734 31.3281 27.9921C30.9036 27.5682 30.4227 27.2048 29.8991 26.9121C30.3744 26.5569 30.7686 26.1044 31.0554 25.5849C31.3421 25.0653 31.5149 24.4906 31.5621 23.8991H31.9071C32.0144 24.4572 32.197 24.9982 32.4501 25.5071C32.6312 25.8671 32.6939 26.2752 32.6292 26.6729C32.5645 27.0707 32.3759 27.4379 32.0901 27.7221L32.0861 27.7231ZM19.8811 23.5701C19.8811 24.0657 19.7341 24.5502 19.4587 24.9623C19.1834 25.3744 18.792 25.6956 18.3341 25.8853C17.8762 26.075 17.3723 26.1246 16.8862 26.0279C16.4001 25.9312 15.9535 25.6926 15.6031 25.3421C15.2526 24.9916 15.0139 24.5451 14.9172 24.059C14.8205 23.5729 14.8702 23.069 15.0598 22.6111C15.2495 22.1532 15.5707 21.7618 15.9828 21.4864C16.3949 21.2111 16.8794 21.0641 17.3751 21.0641C17.7042 21.0639 18.0301 21.1287 18.3342 21.2546C18.6383 21.3805 18.9146 21.565 19.1474 21.7978C19.3801 22.0305 19.5647 22.3068 19.6906 22.6109C19.8165 22.915 19.8812 23.2409 19.8811 23.5701ZM21.3211 27.0991C21.2689 26.9986 21.2312 26.8912 21.2091 26.7801L20.9861 25.6691C21.3582 25.0319 21.5535 24.307 21.5521 23.5691C21.5519 23.2856 21.5234 23.0029 21.4671 22.7251H23.3081C23.2517 23.0029 23.2233 23.2856 23.2231 23.5691C23.2216 24.307 23.417 25.0319 23.7891 25.6691L23.5671 26.7801C23.5196 27.0252 23.3968 27.2493 23.2159 27.4214C23.035 27.5934 22.8049 27.7047 22.5577 27.7398C22.3106 27.775 22.0586 27.7321 21.8369 27.6172C21.6153 27.5024 21.4349 27.3213 21.3211 27.0991ZM27.1991 26.0681C26.7137 26.029 26.2501 25.8494 25.8652 25.5511C25.4802 25.2528 25.1905 24.8489 25.0315 24.3886C24.8724 23.9283 24.851 23.4316 24.9697 22.9593C25.0884 22.487 25.3421 22.0596 25.6998 21.7292C26.0576 21.3988 26.5039 21.1797 26.9841 21.0989C27.4643 21.0181 27.9577 21.0789 28.4039 21.274C28.8501 21.4691 29.2298 21.7899 29.4966 22.1974C29.7634 22.6048 29.9057 23.0811 29.9061 23.5681C29.9064 23.9143 29.8349 24.2568 29.6962 24.574C29.5575 24.8912 29.3546 25.1763 29.1003 25.4112C28.846 25.646 28.5457 25.8257 28.2185 25.9387C27.8913 26.0518 27.5442 26.0958 27.1991 26.0681ZM12.3261 25.5121C12.5031 25.1575 12.6458 24.7868 12.7521 24.4051H13.2831C13.4888 25.4065 14.054 26.2979 14.8721 26.9111C14.3484 27.2038 13.8676 27.5672 13.4431 27.9911C13.3617 28.0724 13.2824 28.1561 13.2051 28.2421L12.6851 27.7221C12.4005 27.4382 12.2127 27.0719 12.1483 26.6751C12.0838 26.2784 12.146 25.8714 12.3261 25.5121ZM18.2111 42.1121V38.7621C19.4681 39.5324 20.9137 39.9402 22.3881 39.9402C23.8624 39.9402 25.308 39.5324 26.5651 38.7621V42.1121H18.2111ZM22.3881 38.2691C21.0135 38.1865 19.6848 37.744 18.5352 36.9859C17.3856 36.2279 16.4555 35.1809 15.8381 33.9501L16.8981 33.2431C17.0787 33.5517 17.3204 33.8202 17.6084 34.0321C17.8965 34.2439 18.2248 34.3948 18.5732 34.4753C18.9216 34.5558 19.2827 34.5643 19.6345 34.5003C19.9863 34.4363 20.3214 34.3011 20.6191 34.1031L21.9261 33.2371C22.063 33.1452 22.2242 33.0961 22.3891 33.0961C22.554 33.0961 22.7151 33.1452 22.8521 33.2371L24.1571 34.1061C24.4548 34.3043 24.7899 34.4396 25.1418 34.5037C25.4937 34.5678 25.855 34.5593 26.2035 34.4788C26.5521 34.3983 26.8805 34.2474 27.1686 34.0354C27.4567 33.8234 27.6985 33.5548 27.8791 33.2461L28.9391 33.9531C28.3217 35.1845 27.3913 36.2319 26.2413 36.9901C25.0913 37.7484 23.7621 38.1908 22.3871 38.2731L22.3881 38.2691ZM30.6711 33.0991L27.8631 31.2291C27.7369 31.1445 27.5901 31.0959 27.4384 31.0886C27.2867 31.0812 27.1359 31.1154 27.0022 31.1874C26.8685 31.2594 26.7569 31.3665 26.6795 31.4972C26.6022 31.6279 26.5619 31.7772 26.5631 31.9291C26.5631 32.1016 26.5163 32.271 26.4277 32.419C26.339 32.567 26.2118 32.6882 26.0597 32.7696C25.9075 32.8511 25.7361 32.8896 25.5638 32.8813C25.3914 32.8729 25.2246 32.8179 25.0811 32.7221L23.7811 31.8531C23.3697 31.5779 22.886 31.431 22.3911 31.431C21.8962 31.431 21.4124 31.5779 21.0011 31.8531L19.6951 32.7231C19.5515 32.8186 19.3848 32.8734 19.2126 32.8816C19.0404 32.8899 18.8692 32.8512 18.7172 32.7699C18.5652 32.6885 18.4382 32.5674 18.3496 32.4195C18.261 32.2716 18.2141 32.1025 18.2141 31.9301C18.2152 31.7782 18.175 31.6289 18.0976 31.4982C18.0202 31.3675 17.9087 31.2604 17.775 31.1884C17.6412 31.1164 17.4904 31.0822 17.3387 31.0896C17.187 31.0969 17.0402 31.1455 16.9141 31.2301C13.8601 33.2661 14.0141 33.2021 13.7881 33.2021C13.711 33.2025 13.6345 33.1876 13.5632 33.1583C13.4919 33.129 13.427 33.0859 13.3725 33.0314C13.3179 32.9769 13.2746 32.9122 13.2452 32.8409C13.2158 32.7696 13.2008 32.6932 13.2011 32.6161C13.2016 31.3889 13.6654 30.2071 14.4997 29.3071C15.334 28.4071 16.4774 27.8553 17.7011 27.7621C18.4871 27.7053 19.2753 27.8359 20.0011 28.1431C20.2633 28.5356 20.6182 28.8574 21.0345 29.0799C21.4508 29.3024 21.9155 29.4189 22.3876 29.4189C22.8596 29.4189 23.3243 29.3024 23.7406 29.0799C24.1569 28.8574 24.5119 28.5356 24.7741 28.1431C25.4999 27.8362 26.2881 27.7057 27.0741 27.7621C28.2992 27.8536 29.4444 28.4049 30.2802 29.3052C31.116 30.2056 31.5807 31.3886 31.5811 32.6171C31.5816 32.7232 31.5531 32.8274 31.4987 32.9185C31.4442 33.0096 31.3658 33.084 31.272 33.1336C31.1782 33.1833 31.0727 33.2063 30.9667 33.2003C30.8608 33.1942 30.7585 33.1592 30.6711 33.0991ZM42.0831 24.3991H39.5961C39.4398 24.3978 39.2863 24.4405 39.1531 24.5222C39.0199 24.6038 38.9122 24.7213 38.8424 24.8611C38.7726 25.0009 38.7435 25.1575 38.7583 25.313C38.773 25.4686 38.8312 25.6169 38.9261 25.7411L39.3661 26.3281C40.3031 27.5729 40.7513 29.118 40.6261 30.6711L38.2961 29.5061C38.1532 29.4344 37.9927 29.4053 37.8337 29.4222C37.6748 29.4391 37.524 29.5012 37.3993 29.6013C37.2746 29.7013 37.1813 29.835 37.1304 29.9866C37.0795 30.1381 37.0731 30.301 37.1121 30.4561C37.3381 31.3528 37.3663 32.2879 37.1947 33.1966C37.023 34.1052 36.6557 34.9657 36.1181 35.7181L33.1731 33.1751C33.2194 32.9923 33.2429 32.8046 33.2431 32.6161C33.2429 31.7579 33.0729 30.9083 32.7431 30.1161C32.6771 29.9571 32.6041 29.8011 32.5251 29.6471L33.2651 28.9071C33.7978 28.3755 34.1495 27.6896 34.2701 26.9467C34.3907 26.2039 34.2742 25.4419 33.9371 24.7691C33.6802 24.249 33.5219 23.6858 33.4701 23.1081C33.4701 23.0961 33.4701 23.0851 33.4701 23.0731C33.4701 23.0166 33.4644 22.9604 33.4531 22.9051C33.433 22.5556 33.446 22.2051 33.4921 21.8581C33.6706 20.5092 33.5593 19.1377 33.1655 17.8353C32.7717 16.5328 32.1046 15.3294 31.2086 14.3054C30.3126 13.2813 29.2085 12.4603 27.9699 11.897C26.7313 11.3337 25.3867 11.0413 24.0261 11.0391H20.7561C19.3946 11.0393 18.049 11.3302 16.809 11.8924C15.5691 12.4546 14.4635 13.275 13.5661 14.2988C12.6687 15.3227 12.0003 16.5263 11.6056 17.8292C11.2108 19.1322 11.0988 20.5044 11.2771 21.8541C11.4221 22.8477 11.265 23.8619 10.8261 24.7651C10.4887 25.438 10.372 26.2002 10.4927 26.9433C10.6133 27.6863 10.9651 28.3724 11.4981 28.9041L12.2371 29.6431C11.7665 30.5631 11.5214 31.5817 11.5221 32.6151C11.5222 32.8036 11.5458 32.9913 11.5921 33.1741L8.65307 35.7171C8.11542 34.9647 7.74802 34.1043 7.57636 33.1956C7.40471 32.2869 7.43294 31.3517 7.65907 30.4551C7.69803 30.3 7.69168 30.1371 7.64076 29.9856C7.58984 29.834 7.49649 29.7003 7.37181 29.6003C7.24713 29.5002 7.09636 29.4381 6.9374 29.4212C6.77844 29.4043 6.61797 29.4334 6.47507 29.5051L4.14507 30.6701C4.03764 28.8669 4.6489 27.0946 5.84507 25.7411C5.93816 25.617 5.99483 25.4693 6.00872 25.3148C6.0226 25.1603 5.99316 25.0049 5.92369 24.8662C5.85422 24.7275 5.74747 24.6108 5.61542 24.5294C5.48336 24.4479 5.33122 24.4049 5.17607 24.4051H2.69107C2.93807 21.2651 5.17707 19.8961 5.76907 19.1481C5.88607 19.0313 5.96578 18.8824 5.9981 18.7203C6.03041 18.5582 6.01387 18.3901 5.95058 18.2374C5.88728 18.0847 5.78009 17.9542 5.64256 17.8624C5.50504 17.7707 5.34338 17.7219 5.17807 17.7221H2.85307C3.2133 16.3113 3.92316 15.014 4.91711 13.95C5.91105 12.8859 7.15705 12.0895 8.54007 11.6341L10.4551 10.9991C10.612 10.947 10.75 10.8495 10.8514 10.7189C10.9529 10.5883 11.0132 10.4305 11.0249 10.2656C11.0366 10.1006 10.999 9.9359 10.917 9.79232C10.8349 9.64874 10.7121 9.53276 10.5641 9.45908C9.48966 8.77589 8.28474 8.32397 7.02607 8.13208C8.83541 6.76794 11.0391 6.02881 13.3051 6.02608H13.5361C13.7243 6.02628 13.907 5.96289 14.0547 5.84619C14.2023 5.7295 14.3063 5.56634 14.3496 5.38318C14.3929 5.20003 14.373 5.00761 14.2932 4.83715C14.2135 4.66669 14.0784 4.52817 13.9101 4.44408C13.3636 4.15718 12.8358 3.83586 12.3301 3.48208C12.1801 3.38141 12.0281 3.28141 11.8741 3.18208C13.6038 2.61728 15.4595 2.5621 17.2197 3.02312C18.9799 3.48414 20.5703 4.44189 21.8011 5.78208C21.8786 5.85963 21.9707 5.92115 22.072 5.96313C22.1733 6.0051 22.2819 6.02671 22.3916 6.02671C22.5012 6.02671 22.6098 6.0051 22.7112 5.96313C22.8125 5.92115 22.9045 5.85963 22.9821 5.78208C24.6522 4.02298 26.9039 2.92966 29.3191 2.70508C30.5432 2.5972 31.7757 2.77557 32.9191 3.22608C32.7671 3.32074 32.6174 3.41508 32.4701 3.50908C31.9531 3.84829 31.4191 4.1607 30.8701 4.44508C30.7017 4.52918 30.5667 4.66769 30.4869 4.83815C30.4071 5.00861 30.3873 5.20103 30.4306 5.38418C30.4739 5.56734 30.5778 5.7305 30.7255 5.84719C30.8731 5.96389 31.0559 6.02728 31.2441 6.02708H31.4751C33.8678 6.05422 36.1832 6.87834 38.0551 8.36908L37.6341 8.58008L34.3811 9.39308C34.2066 9.4375 34.0511 9.53715 33.9379 9.67715C33.8246 9.81715 33.7597 9.99 33.7527 10.1699C33.7457 10.3499 33.7971 10.5272 33.8992 10.6756C34.0013 10.8239 34.1485 10.9353 34.3191 10.9931L36.2341 11.6311C37.6184 12.086 38.8656 12.8826 39.8605 13.9473C40.8554 15.0119 41.5658 16.3102 41.9261 17.7221H39.5971C39.4318 17.7219 39.2701 17.7707 39.1326 17.8624C38.995 17.9542 38.8879 18.0847 38.8246 18.2374C38.7613 18.3901 38.7447 18.5582 38.777 18.7203C38.8094 18.8824 38.8891 19.0313 39.0061 19.1481L40.2261 20.3701C41.3031 21.4529 41.9611 22.8827 42.0831 24.4051V24.3991Z" fill="#3A4155"/>
<path d="M19.045 16.0518H25.728C25.9496 16.0518 26.1621 15.9638 26.3188 15.8071C26.4754 15.6505 26.5635 15.4379 26.5635 15.2164C26.5635 14.9948 26.4754 14.7823 26.3188 14.6256C26.1621 14.4689 25.9496 14.3809 25.728 14.3809H19.045C18.8234 14.3809 18.6109 14.4689 18.4542 14.6256C18.2975 14.7823 18.2095 14.9948 18.2095 15.2164C18.2095 15.4379 18.2975 15.6505 18.4542 15.8071C18.6109 15.9638 18.8234 16.0518 19.045 16.0518Z" fill="#3A4155"/>
</svg>
