<svg width="66" height="66" viewBox="0 0 66 66" fill="none" xmlns="http://www.w3.org/2000/svg">
<path d="M33 65C50.6731 65 65 50.6731 65 33C65 15.3269 50.6731 1 33 1C15.3269 1 1 15.3269 1 33C1 50.6731 15.3269 65 33 65Z" fill="#FEFEFE" stroke="#3A4155" stroke-miterlimit="22.926"/>
<path fill-rule="evenodd" clip-rule="evenodd" d="M38.3803 40.6964L36.5375 39.5078H29.4757L27.6328 40.6964C28.0662 41.6202 28.7008 42.4351 29.4902 43.0817L29.4757 43.0977V47.0249H36.5419V43.0977L36.5273 43.0817C37.3156 42.435 37.9487 41.62 38.3803 40.6964Z" fill="#FFC2A6"/>
<path fill-rule="evenodd" clip-rule="evenodd" d="M45.1324 30.3836H47.4873C47.2974 29.1699 46.7715 28.0335 45.9692 27.1032C45.1669 26.1729 44.1203 25.4858 42.9477 25.1196L41.5977 24.6831L43.9541 24.113L45.1324 23.5429L44.36 22.945C42.9407 21.8518 41.1987 21.2604 39.4072 21.2636H39.2444C40.0968 20.8505 40.7484 20.3429 41.5993 19.9298C40.2302 19.1337 38.6292 18.8317 37.0642 19.0745C35.4992 19.3173 34.065 20.0901 33.0014 21.2636C29.9018 18.2643 25.941 18.6875 24.4036 19.8788C25.256 20.2919 25.9077 20.8519 26.76 21.2636H26.5971C24.8056 21.2605 23.0637 21.8519 21.6444 22.945L20.872 23.5429L23.2269 24.113L24.4051 24.6831L23.0553 25.1196C21.8827 25.4858 20.8359 26.1729 20.0336 27.1032C19.2314 28.0335 18.7055 29.1699 18.5156 30.3836H20.8706L20.0094 31.217C19.5389 31.6689 19.1641 32.2107 18.9075 32.8104C18.6508 33.4102 18.5176 34.0555 18.5156 34.7078V34.942H20.8706L20.5607 35.342C20.1063 35.9223 19.7912 36.5991 19.6399 37.3204C19.4886 38.0417 19.5051 38.7881 19.688 39.502L20.8662 38.9319L22.0444 38.3618C21.8615 39.0757 21.845 39.8221 21.9963 40.5434C22.1476 41.2647 22.4626 41.9415 22.9171 42.5217L23.2269 42.9218L26.1055 40.5159C26.2578 40.7299 26.4868 40.8768 26.7449 40.9259C27.0029 40.9749 27.2699 40.9224 27.4901 40.7792L29.4698 39.502C29.4716 39.7251 29.5347 39.9433 29.6522 40.1329C29.7697 40.3225 29.9371 40.4761 30.136 40.577C30.3379 40.6812 30.5638 40.7304 30.7908 40.7197C31.0177 40.709 31.2379 40.6387 31.4291 40.5159L32.3498 39.9225C32.545 39.7969 32.7722 39.7302 33.0044 39.7302C33.2365 39.7302 33.4637 39.7969 33.6589 39.9225L34.5796 40.5159C34.771 40.6389 34.9914 40.7093 35.2187 40.7201C35.4459 40.7308 35.6721 40.6814 35.8742 40.577C36.0731 40.4761 36.2405 40.3225 36.358 40.1329C36.4755 39.9433 36.5386 39.7251 36.5404 39.502L38.52 40.7792C38.7402 40.9224 39.0073 40.9749 39.2654 40.9259C39.5234 40.8768 39.7525 40.7299 39.9047 40.5159L42.7833 42.9218L43.0931 42.5217C43.5475 41.9415 43.8624 41.2645 44.0138 40.5432C44.1651 39.8219 44.1487 39.0757 43.9658 38.3618L45.1439 38.9319L46.3222 39.502C46.5051 38.7881 46.5216 38.0417 46.3703 37.3204C46.219 36.5991 45.9039 35.9223 45.4495 35.342L45.1397 34.942H47.4946V34.7078C47.4926 34.0555 47.3594 33.4102 47.1027 32.8104C46.8461 32.2107 46.4714 31.6689 46.0008 31.217L45.1324 30.3836Z" fill="white"/>
<path d="M29.4692 36.2756C30.8783 36.2756 32.0205 35.1698 32.0205 33.8058C32.0205 32.4417 30.8783 31.3359 29.4692 31.3359C28.0602 31.3359 26.918 32.4417 26.918 33.8058C26.918 35.1698 28.0602 36.2756 29.4692 36.2756Z" fill="#D4E9FF"/>
<path d="M36.5356 36.2756C37.9447 36.2756 39.0869 35.1698 39.0869 33.8058C39.0869 32.4417 37.9447 31.3359 36.5356 31.3359C35.1266 31.3359 33.9844 32.4417 33.9844 33.8058C33.9844 35.1698 35.1266 36.2756 36.5356 36.2756Z" fill="#D4E9FF"/>
<path fill-rule="evenodd" clip-rule="evenodd" d="M40.6231 34.8756C40.3982 34.4359 40.2637 33.9556 40.2275 33.4631C40.2034 33.1619 40.2121 32.8591 40.2536 32.5599C40.3552 31.705 40.2725 30.8383 40.0109 30.0181C39.7493 29.198 39.315 28.4436 38.7373 27.8054C38.1595 27.1673 37.4515 26.6603 36.6613 26.3187C35.8711 25.9772 35.017 25.8089 34.1563 25.8253H31.8507C30.99 25.8089 30.1358 25.9772 29.3456 26.3187C28.5554 26.6603 27.8475 27.1673 27.2698 27.8054C26.692 28.4436 26.2577 29.198 25.9961 30.0181C25.7345 30.8383 25.6517 31.705 25.7532 32.5599C25.8728 33.3519 25.7439 34.1614 25.3839 34.877C25.2023 35.2288 25.1394 35.63 25.2049 36.0204C25.2705 36.4109 25.461 36.7696 25.7476 37.0428L26.5883 37.8559C26.7412 37.628 26.9176 37.4169 27.1148 37.2261C27.8024 36.564 28.7007 36.1645 29.6529 36.0973V36.0785C29.3416 36.1126 29.0266 36.0822 28.7275 35.9894C28.4284 35.8965 28.1516 35.7433 27.9143 35.5389C27.677 35.3346 27.4843 35.0835 27.3481 34.8015C27.2119 34.5195 27.1351 34.2125 27.1226 33.8995C27.1101 33.5866 27.162 33.2744 27.2753 32.9825C27.3885 32.6905 27.5607 32.4249 27.7809 32.2023C28.0012 31.9796 28.265 31.8046 28.5558 31.6882C28.8466 31.5719 29.1581 31.5166 29.4711 31.5258C29.8801 31.5239 30.2826 31.628 30.6394 31.8278C30.9963 32.0276 31.2954 32.3164 31.5075 32.666C31.7325 33.0421 31.8412 33.4762 31.82 33.9139C31.7988 34.3516 31.6485 34.7732 31.3882 35.1257L31.5918 36.109C31.6184 36.238 31.6635 36.3623 31.7257 36.4784C31.8513 36.7064 32.0357 36.8967 32.2598 37.0291C32.4839 37.1616 32.7395 37.2314 32.9999 37.2314C33.2602 37.2314 33.5158 37.1616 33.7399 37.0291C33.9641 36.8967 34.1485 36.7064 34.274 36.4784C34.3362 36.3623 34.3813 36.238 34.4079 36.109L34.6116 35.1257C34.3288 34.7439 34.1758 34.2816 34.1751 33.8065C34.1595 33.3295 34.2892 32.859 34.5469 32.4572C34.8046 32.0555 35.1782 31.7414 35.6183 31.5567C36.0584 31.3719 36.5442 31.3253 37.0114 31.4228C37.4786 31.5202 37.9052 31.7572 38.2348 32.1025C38.5643 32.4477 38.7811 32.8848 38.8568 33.356C38.9324 33.8273 38.8632 34.3105 38.6583 34.7415C38.4533 35.1725 38.1221 35.5312 37.7089 35.7699C37.2956 36.0087 36.8196 36.1163 36.3438 36.0785V36.0973C37.2984 36.1636 38.1993 36.5631 38.8893 37.2261C39.0863 37.417 39.2629 37.6281 39.4159 37.8559L40.2566 37.0428C40.544 36.7699 40.7351 36.4111 40.8012 36.0203C40.8673 35.6295 40.8048 35.2278 40.6231 34.8756Z" fill="#FFC2A6"/>
<path fill-rule="evenodd" clip-rule="evenodd" d="M34.5018 29.8164H31.5154C31.3642 29.8164 31.2193 29.8766 31.1124 29.9835C31.0055 30.0904 30.9453 30.2353 30.9453 30.3865C30.9453 30.5378 31.0055 30.6828 31.1124 30.7898C31.2193 30.8967 31.3642 30.9569 31.5154 30.9569H34.5018C34.653 30.9569 34.7979 30.8967 34.9048 30.7898C35.0118 30.6828 35.0719 30.5378 35.0719 30.3865C35.0719 30.2353 35.0118 30.0904 34.9048 29.9835C34.7979 29.8766 34.653 29.8164 34.5018 29.8164Z" fill="#3A4155"/>
<path fill-rule="evenodd" clip-rule="evenodd" d="M47.4904 30.9544C47.5742 30.9547 47.6572 30.9374 47.7338 30.9036C47.8105 30.8697 47.8793 30.8202 47.9356 30.7581C47.9906 30.6973 48.0314 30.6251 48.0553 30.5467C48.0792 30.4682 48.0855 30.3855 48.0737 30.3043C47.8784 28.9931 47.3139 27.7647 46.4461 26.7625C45.6904 25.8889 44.7382 25.207 43.6679 24.7726C44.497 24.5646 43.7988 24.8003 45.3988 24.0541C45.4861 24.0126 45.5614 23.9495 45.6176 23.8709C45.6739 23.7923 45.7092 23.7007 45.7203 23.6047C45.7302 23.5089 45.7154 23.4122 45.6772 23.3238C45.639 23.2354 45.5786 23.1583 45.502 23.1L44.7297 22.5021C43.6615 21.6801 42.4165 21.1183 41.0933 20.8614C41.3406 20.716 41.5893 20.5705 41.8584 20.4425C41.9457 20.4009 42.021 20.3379 42.0772 20.2593C42.1335 20.1807 42.1688 20.0891 42.1799 19.9931C42.19 19.8973 42.1752 19.8004 42.137 19.712C42.0988 19.6236 42.0384 19.5465 41.9617 19.4883C40.7406 18.65 39.26 18.276 37.7872 18.4338C36.0107 18.5817 34.3299 19.3007 32.9959 20.4832C29.7959 17.7399 25.7944 18.0701 24.0315 19.4359C23.9549 19.4942 23.8947 19.5714 23.8565 19.6598C23.8182 19.7482 23.8034 19.8449 23.8134 19.9407C23.8245 20.0367 23.8598 20.1283 23.916 20.2069C23.9723 20.2856 24.0475 20.3486 24.1348 20.3901C24.4134 20.5282 24.6839 20.6821 24.945 20.8512C23.6073 21.1049 22.3482 21.6701 21.2694 22.5007L20.497 23.0984C20.4117 23.1632 20.3468 23.2511 20.3099 23.3516C20.2731 23.4522 20.2658 23.5612 20.289 23.6657C20.3135 23.7721 20.3674 23.8694 20.4445 23.9465C20.5217 24.0237 20.619 24.0776 20.7253 24.1021L22.8025 24.6039C21.5419 25.0103 20.4188 25.7586 19.5585 26.7656C18.6982 27.7726 18.1343 28.9986 17.9297 30.3072C17.9179 30.3883 17.9242 30.4711 17.9481 30.5495C17.972 30.628 18.0129 30.7002 18.0679 30.761C18.1245 30.8223 18.1934 30.871 18.2701 30.9038C18.3468 30.9367 18.4295 30.953 18.513 30.9516H19.4526C18.9433 31.4813 18.5457 32.1079 18.2833 32.7943C18.0209 33.4807 17.8992 34.2128 17.9253 34.9472C17.9299 35.0984 17.9932 35.242 18.1018 35.3474C18.2105 35.4527 18.3559 35.5116 18.5072 35.5115H19.729C19.3538 36.1238 19.106 36.8055 19.0003 37.5158C18.8946 38.2261 18.9331 38.9504 19.1137 39.6454C19.1364 39.7289 19.1774 39.8063 19.2338 39.872C19.2901 39.9376 19.3604 39.99 19.4395 40.025C19.52 40.0606 19.6071 40.0782 19.6951 40.0767C19.783 40.0752 19.8694 40.0546 19.9486 40.0163L21.3013 39.3618C21.2664 40.801 21.7837 42.1989 22.7472 43.2686C22.7969 43.3316 22.8588 43.384 22.9291 43.4228C22.9994 43.4615 23.0767 43.4857 23.1565 43.4941C23.2363 43.5025 23.3171 43.4949 23.3939 43.4717C23.4707 43.4484 23.5421 43.4101 23.6039 43.3588L26.0853 41.2846C26.2737 41.3986 26.4832 41.4731 26.7013 41.5036C26.9193 41.5341 27.1413 41.52 27.3537 41.4621C27.7541 42.1628 28.2667 42.7932 28.8708 43.3283V47.033C28.8739 47.1853 28.9365 47.3303 29.0453 47.437C29.1541 47.5436 29.3003 47.6032 29.4526 47.6031H36.5188C36.6711 47.6032 36.8174 47.5436 36.9261 47.437C37.0349 47.3303 37.0975 47.1853 37.1006 47.033V43.3297C37.7055 42.7944 38.2185 42.1635 38.6191 41.4621C38.8314 41.5186 39.0528 41.5322 39.2703 41.5019C39.4879 41.4717 39.6973 41.3983 39.8861 41.2861L42.369 43.3618C42.4308 43.413 42.5022 43.4513 42.579 43.4745C42.6558 43.4977 42.7365 43.5055 42.8163 43.4971C42.8961 43.4887 42.9735 43.4643 43.0438 43.4256C43.1141 43.3869 43.1759 43.3345 43.2257 43.2716C44.188 42.2011 44.7052 40.8037 44.6715 39.3647L46.0258 40.0192C46.1049 40.0574 46.1914 40.078 46.2793 40.0795C46.3672 40.081 46.4544 40.0635 46.5348 40.028C46.6139 39.9929 46.6842 39.9406 46.7406 39.8749C46.797 39.8092 46.838 39.7318 46.8606 39.6482C47.0413 38.9542 47.0799 38.2309 46.9742 37.5216C46.8684 36.8122 46.6206 36.1315 46.2454 35.5203H47.4672C47.6195 35.5203 47.7657 35.4606 47.8745 35.354C47.9833 35.2474 48.046 35.1024 48.049 34.9501V34.7159C48.0417 33.3142 47.4947 31.9693 46.5218 30.9603H47.4599L47.4904 30.9544ZM26.337 32.4832C26.2454 31.7103 26.3205 30.9267 26.5572 30.1852C26.7939 29.4437 27.1868 28.7616 27.7093 28.1846C28.2317 27.6077 28.8717 27.1494 29.5862 26.8406C30.3007 26.5318 31.0729 26.3797 31.8511 26.3944H34.1566C34.9348 26.3797 35.7071 26.5318 36.4216 26.8406C37.1361 27.1494 37.7761 27.6077 38.2986 28.1846C38.821 28.7616 39.2139 29.4437 39.4506 30.1852C39.6873 30.9267 39.7624 31.7103 39.6708 32.4832C39.6524 32.6199 39.6398 32.7562 39.633 32.8919H39.3275C39.1179 32.3218 38.7378 31.83 38.2389 31.4834C37.74 31.1368 37.1466 30.9521 36.5392 30.9544C36.0859 30.9535 35.6383 31.0557 35.2303 31.2533C34.8223 31.4508 34.4646 31.7386 34.1842 32.0948H31.8264C31.546 31.7387 31.1882 31.451 30.7803 31.2535C30.3723 31.0559 29.9248 30.9536 29.4715 30.9544C28.8023 30.9475 28.1509 31.1701 27.6258 31.5851C27.1007 32.0001 26.7336 32.5824 26.5857 33.2352H26.3821C26.3867 32.9842 26.3716 32.7332 26.337 32.4846V32.4832ZM39.8439 36.6374L39.4774 36.9923C39.4235 36.9341 39.3668 36.8759 39.3101 36.8207C39.0097 36.5302 38.671 36.2821 38.3035 36.0832C38.6338 35.845 38.9088 35.5384 39.1096 35.1842C39.3105 34.83 39.4324 34.4365 39.4672 34.0308H39.7101C39.7857 34.4129 39.9144 34.7826 40.0926 35.129C40.2202 35.3736 40.2649 35.6531 40.2201 35.9254C40.1752 36.1977 40.0433 36.448 39.8439 36.6388V36.6374ZM31.2373 33.804C31.2486 34.1557 31.1547 34.5028 30.9675 34.8008C30.7803 35.0988 30.5084 35.3341 30.1866 35.4766C29.8648 35.6191 29.5079 35.6622 29.1614 35.6006C28.8149 35.5389 28.4948 35.3752 28.2419 35.1305C27.9891 34.8857 27.815 34.5711 27.7421 34.2268C27.6692 33.8825 27.7006 33.5244 27.8326 33.1981C27.9645 32.8719 28.1909 32.5924 28.4826 32.3956C28.7743 32.1988 29.1182 32.0936 29.4701 32.0934C29.931 32.0875 30.3756 32.2643 30.7067 32.585C31.0378 32.9058 31.2285 33.3445 31.2373 33.8054V33.804ZM32.2555 36.2126C32.2183 36.1442 32.1914 36.0707 32.1755 35.9945L32.0185 35.2367C32.2797 34.8045 32.4176 34.309 32.417 33.804C32.4172 33.6085 32.3972 33.4135 32.3573 33.2221H33.6548C33.6149 33.4135 33.5949 33.6085 33.5952 33.804C33.5946 34.309 33.7324 34.8045 33.9937 35.2367L33.8367 35.9945C33.8206 36.0707 33.7936 36.1441 33.7567 36.2126C33.682 36.3465 33.5729 36.458 33.4407 36.5357C33.3085 36.6133 33.1579 36.6543 33.0046 36.6543C32.8513 36.6543 32.7007 36.6133 32.5685 36.5357C32.4363 36.458 32.3273 36.3465 32.2526 36.2126H32.2555ZM36.3995 35.5087C36.0712 35.4711 35.7608 35.3393 35.5056 35.1293C35.2504 34.9193 35.0614 34.64 34.9614 34.325C34.8613 34.01 34.8546 33.6729 34.9418 33.3541C35.029 33.0354 35.2065 32.7486 35.453 32.5285C35.6994 32.3083 36.0043 32.1641 36.3308 32.1133C36.6573 32.0624 36.9916 32.1071 37.2933 32.2419C37.5951 32.3767 37.8514 32.5959 38.0314 32.873C38.2114 33.1502 38.3074 33.4735 38.3079 33.804C38.3051 34.0449 38.2521 34.2826 38.1523 34.5019C38.0526 34.7213 37.9081 34.9174 37.7283 35.0778C37.5484 35.2383 37.3372 35.3594 37.1079 35.4336C36.8786 35.5078 36.6363 35.5334 36.3966 35.5087H36.3995ZM25.9151 35.1305C26.0395 34.8893 26.1399 34.6364 26.2148 34.3755H26.5886C26.7375 35.0642 27.1366 35.6732 27.7086 36.0847C27.3411 36.2836 27.0025 36.5316 26.7021 36.8221C26.6439 36.8773 26.5886 36.9356 26.5348 36.9938L26.1682 36.6388C25.9676 36.4493 25.834 36.1997 25.7876 35.9276C25.7411 35.6556 25.7843 35.3758 25.9108 35.1305H25.9151ZM30.0636 46.4584V44.1719C30.9556 44.6985 31.9724 44.9764 33.0083 44.9764C34.0441 44.9764 35.061 44.6985 35.953 44.1719V46.4584H30.0636ZM33.0076 43.8403C32.0488 43.7905 31.1193 43.4928 30.3101 42.9763C29.5009 42.4597 28.8396 41.7421 28.3908 40.8934L29.1384 40.4119C29.3137 40.6999 29.5655 40.9335 29.8657 41.0868C30.1618 41.2409 30.4934 41.3138 30.8268 41.2982C31.1602 41.2826 31.4834 41.1791 31.7639 40.9981L32.6847 40.4046C32.782 40.3418 32.8954 40.3084 33.0112 40.3084C33.127 40.3084 33.2404 40.3418 33.3377 40.4046L34.2584 40.9981C34.538 41.1778 34.8601 41.2806 35.192 41.2962C35.524 41.3117 35.8541 41.2395 36.1493 41.0868C36.4495 40.9335 36.7013 40.6999 36.8766 40.4119L37.6243 40.8934C37.1748 41.7418 36.5128 42.4591 35.703 42.9751C34.8933 43.4912 33.9635 43.7882 33.0046 43.8373L33.0076 43.8403ZM38.8476 40.3116L36.8679 39.0344C36.7784 38.9771 36.6753 38.9444 36.5691 38.9395C36.4628 38.9347 36.3572 38.9579 36.2628 39.0068C36.1696 39.0539 36.0912 39.1259 36.0363 39.2147C35.9814 39.3035 35.9521 39.4057 35.9515 39.5101C35.9509 39.6291 35.9174 39.7455 35.8548 39.8467C35.7921 39.9478 35.7028 40.0296 35.5966 40.0832C35.489 40.1389 35.3686 40.1653 35.2476 40.1597C35.1266 40.1541 35.0091 40.1167 34.9071 40.0512L33.9879 39.4577C33.6958 39.2696 33.3557 39.1696 33.0083 39.1696C32.6608 39.1696 32.3207 39.2696 32.0286 39.4577L31.1079 40.0512C31.0059 40.1167 30.8885 40.1541 30.7675 40.1597C30.6465 40.1653 30.526 40.1389 30.4184 40.0832C30.3122 40.0296 30.2229 39.9478 30.1603 39.8467C30.0976 39.7455 30.0642 39.6291 30.0636 39.5101C30.063 39.4057 30.0336 39.3035 29.9787 39.2147C29.9238 39.1259 29.8454 39.0539 29.7522 39.0068C29.6578 38.9579 29.5523 38.9347 29.446 38.9395C29.3398 38.9444 29.2367 38.9771 29.1472 39.0344C26.9945 40.4235 27.1006 40.38 26.9435 40.38C26.89 40.3811 26.8367 40.3716 26.7868 40.3521C26.737 40.3326 26.6915 40.3034 26.653 40.2662C26.6144 40.2291 26.5836 40.1846 26.5623 40.1355C26.541 40.0863 26.5297 40.0335 26.5289 39.9799C26.5418 39.1293 26.8761 38.3151 27.4646 37.7007C28.053 37.0864 28.8521 36.7174 29.7014 36.668C30.2553 36.6291 30.8106 36.7181 31.3246 36.9283C31.515 37.1972 31.7671 37.4166 32.0598 37.568C32.3525 37.7194 32.6773 37.7985 33.0068 37.7985C33.3364 37.7985 33.6611 37.7194 33.9538 37.568C34.2464 37.4166 34.4986 37.1972 34.689 36.9283C35.2012 36.7191 35.7545 36.6301 36.3065 36.668C37.1565 36.7164 37.9566 37.0848 38.546 37.6993C39.1354 38.3138 39.4702 39.1286 39.4831 39.9799C39.4809 40.0533 39.4591 40.1248 39.4198 40.1869C39.3806 40.2489 39.3253 40.2994 39.2599 40.3328C39.1946 40.3663 39.1213 40.3814 39.048 40.3769C38.9747 40.3724 38.9039 40.3483 38.8431 40.3072L38.8476 40.3116ZM46.8926 34.3785H45.1356C45.0275 34.3776 44.9212 34.4065 44.8283 34.4619C44.7355 34.5173 44.6596 34.5971 44.609 34.6926C44.5601 34.7869 44.5393 34.8932 44.5491 34.9989C44.5589 35.1046 44.5989 35.2054 44.6642 35.2891L44.9741 35.689C45.6326 36.5297 45.9504 37.5875 45.8643 38.6519L44.222 37.8563C44.1211 37.8076 44.0087 37.7881 43.8972 37.7996C43.7857 37.8112 43.6797 37.8535 43.5908 37.9218C43.5039 37.9884 43.4385 38.0789 43.4025 38.1823C43.3666 38.2857 43.3617 38.3974 43.3886 38.5035C43.5475 39.1163 43.567 39.7568 43.4457 40.3781C43.3243 40.9993 43.0653 41.5855 42.6875 42.0934L40.6119 40.3581C40.6445 40.2337 40.6611 40.1056 40.6613 39.977C40.6619 39.3899 40.5427 38.8088 40.3108 38.2693C40.2643 38.1617 40.2119 38.0541 40.1566 37.9494L40.6788 37.4447C41.0527 37.0888 41.301 36.6211 41.3865 36.112C41.472 35.603 41.39 35.0799 41.153 34.6213C40.9724 34.268 40.8608 33.8834 40.8242 33.4883C40.8242 33.4795 40.8242 33.4723 40.8242 33.4636C40.8243 33.425 40.8205 33.3864 40.8126 33.3486C40.7984 33.1102 40.8078 32.8711 40.8403 32.6345C40.9512 31.6978 40.8601 30.7482 40.5732 29.8497C40.2864 28.9512 39.8104 28.1245 39.1773 27.4253C38.5442 26.7262 37.7686 26.1708 36.9028 25.7965C36.037 25.4222 35.1012 25.2378 34.1581 25.2556H31.8526C30.9095 25.2376 29.9735 25.4219 29.1076 25.7961C28.2417 26.1703 27.466 26.7257 26.8328 27.4249C26.1997 28.1241 25.7236 28.9508 25.4369 29.8494C25.1501 30.7481 25.0593 31.6978 25.1705 32.6345C25.2739 33.3127 25.1646 34.0063 24.8577 34.6199C24.6206 35.0785 24.5387 35.6015 24.6242 36.1106C24.7097 36.6197 24.958 37.0872 25.3319 37.4432L25.8526 37.948C25.5215 38.5726 25.3483 39.2686 25.3479 39.9756C25.3482 40.1042 25.3648 40.2323 25.3974 40.3567L23.3217 42.092C22.9442 41.5839 22.6854 40.9977 22.5643 40.3765C22.4432 39.7553 22.463 39.1147 22.6221 38.5021C22.6491 38.396 22.6444 38.2843 22.6084 38.1808C22.5725 38.0774 22.507 37.9867 22.4199 37.9203C22.3312 37.8518 22.225 37.8095 22.1136 37.7979C22.0021 37.7864 21.8895 37.8061 21.7886 37.8548L20.1464 38.6505C20.1112 38.0381 20.1992 37.425 20.4054 36.8473C20.6115 36.2696 20.9315 35.7392 21.3464 35.2875C21.4118 35.2039 21.4518 35.1032 21.4616 34.9975C21.4714 34.8918 21.4506 34.7855 21.4017 34.6912C21.3513 34.5954 21.2756 34.5153 21.1827 34.4596C21.0898 34.4039 20.9835 34.3748 20.8752 34.3755H19.1137C19.3345 32.9404 20.1141 31.651 21.2824 30.7887C21.3644 30.7105 21.4206 30.6091 21.4435 30.4981C21.4663 30.3872 21.4548 30.2719 21.4104 30.1676C21.3641 30.0622 21.2878 29.9726 21.1911 29.9101C21.0945 29.8475 20.9816 29.8147 20.8665 29.8156H19.2272C19.4918 28.8418 19.9979 27.9504 20.6986 27.2242C21.3994 26.4981 22.2721 25.9605 23.2359 25.6614L24.5857 25.225C24.6949 25.1912 24.7915 25.1255 24.863 25.0363C24.9346 24.9471 24.9778 24.8386 24.9871 24.7247C24.9945 24.6111 24.9675 24.4978 24.9096 24.3998C24.8518 24.3017 24.7658 24.2234 24.6628 24.1749C23.9002 23.7076 23.0504 23.4003 22.1653 23.2716C23.4519 22.3371 25.0014 21.8341 26.5915 21.8345H26.7544C26.8851 21.8367 27.0127 21.7948 27.1167 21.7156C27.2206 21.6365 27.2949 21.5246 27.3275 21.3981C27.3575 21.2718 27.343 21.1392 27.2866 21.0224C27.2302 20.9055 27.1352 20.8117 27.0177 20.7566C26.6329 20.5615 26.2608 20.3424 25.9035 20.1007L25.582 19.8941C26.798 19.5076 28.0978 19.4692 29.3345 19.783C30.5712 20.0969 31.6954 20.7505 32.5799 21.6701C32.6922 21.7772 32.8414 21.8371 32.9966 21.8371C33.1518 21.8371 33.3011 21.7772 33.4134 21.6701C34.6067 20.4634 36.1897 19.7196 37.8802 19.5712C38.7422 19.4971 39.6098 19.6185 40.4184 19.9261L40.1014 20.1196C39.7372 20.3513 39.3613 20.5644 38.9755 20.7581C38.858 20.8131 38.763 20.9069 38.7066 21.0238C38.6502 21.1406 38.6358 21.2733 38.6658 21.3996C38.6984 21.5261 38.7726 21.638 38.8766 21.7171C38.9806 21.7963 39.1082 21.8381 39.2388 21.8359H39.4017C41.0808 21.8506 42.7092 22.4123 44.0402 23.4359L43.7494 23.5814L41.4569 24.1371C41.3339 24.1628 41.223 24.2289 41.1418 24.3249C41.0606 24.4209 41.0137 24.5412 41.0087 24.6669C41.0037 24.7925 41.0408 24.9163 41.1141 25.0185C41.1874 25.1206 41.2927 25.1953 41.4134 25.2308L42.7631 25.6672C43.7269 25.9663 44.5997 26.5038 45.3004 27.23C46.0012 27.9562 46.5073 28.8475 46.7719 29.8214H45.1356C45.0205 29.8206 44.9076 29.8536 44.8109 29.9161C44.7143 29.9786 44.638 30.0681 44.5915 30.1734C44.5472 30.2776 44.5356 30.3929 44.5585 30.5039C44.5814 30.6149 44.6376 30.7162 44.7196 30.7945L45.5806 31.6279C46.3336 32.3561 46.798 33.3319 46.8882 34.3755L46.8926 34.3785Z" fill="#3A4155"/>
<path fill-rule="evenodd" clip-rule="evenodd" d="M30.6483 28.6756H35.3596C35.5108 28.6756 35.6559 28.6155 35.7628 28.5085C35.8697 28.4016 35.9297 28.2567 35.9297 28.1055C35.9297 27.9542 35.8697 27.8092 35.7628 27.7022C35.6559 27.5953 35.5108 27.5352 35.3596 27.5352H30.6483C30.497 27.5352 30.352 27.5953 30.245 27.7022C30.1381 27.8092 30.0781 27.9542 30.0781 28.1055C30.0781 28.2567 30.1381 28.4016 30.245 28.5085C30.352 28.6155 30.497 28.6756 30.6483 28.6756Z" fill="#3A4155"/>
<path d="M4.10156 34.4231L4.35174 32.5321L8.24556 31.9038L4.64702 30.1584L4.85065 28.6136L8.77792 27.8674L5.18084 26.2427L5.42665 24.3867L11.6594 27.4048L11.4528 28.9686L7.55611 29.7802L11.1081 31.5692L10.903 33.1314L4.10156 34.4231Z" fill="#3A4155"/>
<path d="M13.6875 22.3097L8.17188 18.8188L9.13912 17.293L14.6548 20.7839L13.6875 22.3097Z" fill="#3A4155"/>
<path d="M16.905 17.6131L12.8672 12.493L14.1952 11.4472L18.4279 12.4974L16.2941 9.79195L17.6992 8.68359L21.737 13.8036L20.4963 14.7825L16.0993 13.6989L18.3116 16.5061L16.905 17.6131Z" fill="#3A4155"/>
<path d="M25.1108 12.2494L23.6562 5.88721L25.3027 5.50903L28.6889 8.27266L27.9196 4.90976L29.665 4.50977L31.1195 10.8719L29.5792 11.2254L26.0577 8.36139L26.8562 11.8523L25.1108 12.2494Z" fill="#3A4155"/>
<path d="M34.9922 10.8251L36.4599 4.46289L38.1064 4.84397L39.9464 8.81052L40.7232 5.44762L42.4686 5.85052L41.0009 12.2127L39.4606 11.8578L37.5421 7.7429L36.7376 11.2338L34.9922 10.8251Z" fill="#3A4155"/>
<path d="M44.2969 13.9482L48.3494 8.82812L49.6655 9.87251L49.6321 14.2463L51.7749 11.5409L53.1712 12.6449L49.12 17.7649L47.8867 16.7903L47.9144 12.2492L45.6946 15.055L44.2969 13.9482Z" fill="#3A4155"/>
<path d="M51.4688 20.7225L57.2738 17.7363L59.6722 22.4025L58.3022 23.1064L56.7227 20.036L55.8381 20.4898L57.2667 23.2665L55.9996 23.9196L54.5714 21.1428L53.6594 21.6127L55.2592 24.7254L53.8892 25.4294L51.4688 20.7225Z" fill="#3A4155"/>
<path d="M54.8047 28.9063L61.3139 28.377L61.5625 31.443C61.6238 31.8216 61.6086 32.2088 61.5174 32.5813C61.4262 32.9539 61.2609 33.3044 61.0316 33.6119C60.8415 33.8245 60.6101 33.9961 60.3516 34.1167C60.093 34.2372 59.8128 34.3039 59.5277 34.3129C59.0989 34.3612 58.6657 34.2732 58.2898 34.0613C57.9284 33.8424 57.6366 33.5256 57.4478 33.1477L55.2905 34.8846L55.1232 32.8045L57.0011 31.3326L56.9371 30.5426L54.9517 30.7042L54.8047 28.9063ZM58.3363 30.4308L58.4339 31.6191C58.4382 31.8745 58.5312 32.1202 58.6971 32.3143C58.7735 32.3924 58.8669 32.4519 58.9702 32.4877C59.0734 32.5236 59.1835 32.535 59.2919 32.521C59.4 32.5184 59.506 32.4896 59.6005 32.4371C59.695 32.3847 59.7752 32.3102 59.8345 32.2198C59.9586 31.9963 60.0061 31.7383 59.9698 31.4853L59.8739 30.307L58.3363 30.4308Z" fill="#3A4155"/>
<path fill-rule="evenodd" clip-rule="evenodd" d="M12.6745 45.8948C12.7735 45.6253 12.814 45.3381 12.7932 45.0517C12.7725 44.7654 12.691 44.4867 12.5542 44.2343C12.4173 43.9819 12.2283 43.7613 11.9997 43.5876C11.7711 43.4139 11.5081 43.2909 11.2283 43.2268C10.9485 43.1627 10.6582 43.159 10.3767 43.2158C10.0953 43.2726 9.82922 43.3887 9.59615 43.5563C9.36308 43.724 9.16836 43.9394 9.02499 44.1881C8.88163 44.4368 8.79288 44.7131 8.76465 44.9988C8.66565 45.2683 8.62517 45.5559 8.64591 45.8422C8.66665 46.1286 8.74818 46.4073 8.88499 46.6597C9.02181 46.9121 9.2108 47.1323 9.43941 47.306C9.66802 47.4797 9.93101 47.6027 10.2109 47.6668C10.4907 47.7309 10.781 47.7349 11.0624 47.6781C11.3438 47.6214 11.6099 47.5052 11.843 47.3376C12.0761 47.17 12.2708 46.9546 12.4142 46.7058C12.5575 46.4571 12.6463 46.1805 12.6745 45.8948Z" fill="#3A4155"/>
<path fill-rule="evenodd" clip-rule="evenodd" d="M53.327 45.8948C53.228 45.6253 53.1877 45.3381 53.2084 45.0517C53.2292 44.7654 53.3106 44.4867 53.4474 44.2343C53.5842 43.9819 53.7731 43.7613 54.0017 43.5876C54.2304 43.4139 54.4932 43.2909 54.7731 43.2268C55.0529 43.1627 55.3432 43.159 55.6246 43.2158C55.906 43.2726 56.1724 43.3887 56.4055 43.5563C56.6386 43.724 56.8332 43.9394 56.9765 44.1881C57.1199 44.4368 57.2086 44.7131 57.2368 44.9988C57.3358 45.2683 57.3762 45.5559 57.3554 45.8422C57.3347 46.1286 57.2533 46.4073 57.1164 46.6597C56.9796 46.9121 56.7907 47.1323 56.5621 47.306C56.3335 47.4797 56.0706 47.6027 55.7908 47.6668C55.511 47.7309 55.2207 47.7349 54.9392 47.6781C54.6578 47.6214 54.3914 47.5052 54.1583 47.3376C53.9253 47.17 53.7307 46.9546 53.5873 46.7058C53.444 46.4571 53.3553 46.1805 53.327 45.8948Z" fill="#3A4155"/>
<path fill-rule="evenodd" clip-rule="evenodd" d="M14.5833 49.9062C14.5276 49.7682 14.4423 49.6443 14.3334 49.5429C14.2246 49.4414 14.0948 49.365 13.9533 49.3191C13.8117 49.2733 13.6618 49.259 13.5142 49.2772C13.3665 49.2955 13.2247 49.346 13.0986 49.425C12.9725 49.504 12.8653 49.6097 12.7845 49.7346C12.7037 49.8595 12.6512 50.0006 12.6307 50.148C12.6103 50.2954 12.6224 50.4454 12.6662 50.5876C12.7101 50.7298 12.7845 50.8608 12.8844 50.9711C12.9401 51.1091 13.0254 51.233 13.1343 51.3344C13.2431 51.4359 13.3729 51.5123 13.5144 51.5581C13.656 51.604 13.8059 51.6183 13.9535 51.6C14.1012 51.5818 14.243 51.5313 14.3691 51.4523C14.4952 51.3733 14.6025 51.2676 14.6833 51.1427C14.7641 51.0177 14.8165 50.8767 14.837 50.7293C14.8574 50.5819 14.8453 50.4319 14.8015 50.2897C14.7576 50.1475 14.6832 50.0165 14.5833 49.9062Z" fill="#3A4155"/>
<path fill-rule="evenodd" clip-rule="evenodd" d="M51.4194 49.9062C51.4752 49.7682 51.5606 49.6443 51.6694 49.5429C51.7783 49.4414 51.9079 49.365 52.0494 49.3191C52.1909 49.2733 52.341 49.259 52.4887 49.2772C52.6363 49.2955 52.7781 49.346 52.9042 49.425C53.0302 49.504 53.1376 49.6097 53.2184 49.7346C53.2993 49.8595 53.3514 50.0006 53.3719 50.148C53.3923 50.2954 53.3802 50.4454 53.3363 50.5876C53.2925 50.7298 53.2181 50.8608 53.1183 50.9711C53.0626 51.1091 52.9772 51.233 52.8683 51.3344C52.7594 51.4359 52.6299 51.5123 52.4883 51.5581C52.3468 51.604 52.1967 51.6183 52.0491 51.6C51.9014 51.5818 51.7596 51.5313 51.6336 51.4523C51.5075 51.3733 51.4005 51.2676 51.3197 51.1427C51.2388 51.0177 51.1863 50.8767 51.1659 50.7293C51.1455 50.5819 51.1576 50.4319 51.2014 50.2897C51.2452 50.1475 51.3196 50.0165 51.4194 49.9062Z" fill="#3A4155"/>
<path fill-rule="evenodd" clip-rule="evenodd" d="M9.08149 39.8841C9.04394 39.7402 8.97531 39.6062 8.88045 39.4917C8.78559 39.3771 8.66678 39.2848 8.5324 39.2211C8.39802 39.1574 8.25133 39.124 8.10262 39.1231C7.95391 39.1221 7.80681 39.1537 7.67165 39.2158C7.53648 39.2778 7.41653 39.3687 7.32026 39.4821C7.22399 39.5954 7.15372 39.7282 7.11438 39.8716C7.07505 40.0151 7.06762 40.1654 7.09259 40.312C7.11756 40.4586 7.17431 40.5981 7.25891 40.7204C7.29647 40.8643 7.36509 40.9982 7.45995 41.1128C7.55481 41.2273 7.67363 41.3197 7.80801 41.3834C7.94239 41.4471 8.08908 41.4805 8.23779 41.4814C8.38649 41.4823 8.5336 41.4507 8.66876 41.3887C8.80392 41.3267 8.92387 41.2357 9.02014 41.1224C9.11642 41.009 9.18668 40.8759 9.22602 40.7324C9.26536 40.589 9.27279 40.4387 9.24782 40.2921C9.22284 40.1455 9.16609 40.0064 9.08149 39.8841Z" fill="#3A4155"/>
<path fill-rule="evenodd" clip-rule="evenodd" d="M56.9208 39.8848C56.9588 39.7413 57.0276 39.6078 57.1225 39.4938C57.2175 39.3798 57.336 39.2876 57.4702 39.2243C57.6044 39.1609 57.7508 39.1278 57.8992 39.127C58.0476 39.1261 58.1943 39.1578 58.3292 39.2197C58.4641 39.2815 58.5839 39.3719 58.6801 39.4849C58.7763 39.5979 58.8468 39.7308 58.8864 39.8738C58.926 40.0168 58.9336 40.1667 58.9091 40.313C58.8847 40.4594 58.8286 40.5987 58.7447 40.7211C58.7067 40.8645 58.6379 40.998 58.543 41.1121C58.4481 41.2261 58.3292 41.3179 58.195 41.3812C58.0608 41.4446 57.9144 41.4777 57.766 41.4785C57.6176 41.4794 57.4709 41.4477 57.336 41.3858C57.2011 41.324 57.0813 41.2336 56.9851 41.1206C56.8889 41.0076 56.8187 40.8751 56.7791 40.7321C56.7396 40.5891 56.7316 40.4392 56.7561 40.2928C56.7805 40.1464 56.8369 40.0072 56.9208 39.8848Z" fill="#3A4155"/>
<path d="M33.0028 12.627H32.9592C32.9016 12.6315 32.8478 12.6577 32.8086 12.7001C32.7694 12.7426 32.7476 12.7982 32.7476 12.856C32.7476 12.9138 32.7694 12.9694 32.8086 13.0119C32.8478 13.0544 32.9016 13.0805 32.9592 13.0851C33.1235 13.0851 33.2893 13.0851 33.4537 13.0851C33.5114 13.0818 33.5659 13.0567 33.606 13.015C33.6461 12.9733 33.669 12.918 33.6701 12.8601C33.6712 12.8022 33.6504 12.7461 33.6119 12.7029C33.5734 12.6596 33.5201 12.6325 33.4624 12.627H33.0028ZM31.6021 13.1346C31.6588 13.1255 31.7101 13.0956 31.7458 13.0506C31.7816 13.0056 31.7991 12.9489 31.7951 12.8916C31.7911 12.8343 31.7657 12.7805 31.7241 12.7409C31.6824 12.7014 31.6275 12.6789 31.57 12.6778C31.4246 12.6778 31.2573 12.7011 31.1075 12.7156C31.0497 12.7247 30.9975 12.7555 30.9616 12.8018C30.9256 12.848 30.9087 12.9063 30.9142 12.9646C30.9198 13.0229 30.9475 13.0769 30.9915 13.1155C31.0355 13.1541 31.0926 13.1745 31.1511 13.1724C31.298 13.1579 31.4566 13.139 31.6021 13.1346ZM29.8027 13.3426C29.8592 13.329 29.9084 13.2946 29.9405 13.2463C29.9726 13.1979 29.9852 13.1392 29.9759 13.0819C29.9665 13.0247 29.9358 12.9731 29.8899 12.9375C29.844 12.9019 29.7864 12.885 29.7286 12.8902L29.2733 12.9688C29.2171 12.9833 29.1684 13.0187 29.1372 13.0676C29.1059 13.1166 29.0943 13.1756 29.1048 13.2328C29.1154 13.2899 29.1472 13.341 29.1938 13.3757C29.2404 13.4104 29.2985 13.4261 29.3563 13.4197L29.8027 13.3426ZM29.7286 12.8902L29.2704 12.9702L29.3563 13.4211L29.7286 12.8902ZM28.0282 13.7135C28.0825 13.6945 28.1277 13.6558 28.1548 13.6051C28.182 13.5544 28.1891 13.4953 28.1749 13.4396C28.1606 13.3839 28.126 13.3356 28.0779 13.3042C28.0297 13.2727 27.9715 13.2604 27.9148 13.2698C27.7693 13.3091 27.6151 13.3484 27.4653 13.3905C27.4157 13.4137 27.3761 13.4538 27.3534 13.5036C27.3308 13.5533 27.3265 13.6095 27.3416 13.6621C27.3567 13.7147 27.39 13.7602 27.4356 13.7904C27.4812 13.8206 27.5361 13.8336 27.5904 13.827L28.0282 13.7135ZM26.2973 14.2444C26.3552 14.2238 26.4025 14.181 26.4288 14.1254C26.4551 14.0699 26.4583 14.0063 26.4377 13.9484C26.417 13.8906 26.3742 13.8433 26.3187 13.8169C26.2632 13.7906 26.1996 13.7874 26.1417 13.8081C25.9962 13.859 25.8508 13.9142 25.7053 13.9695C25.6524 13.9941 25.6108 14.0379 25.589 14.0921C25.5672 14.1462 25.5668 14.2066 25.5879 14.261C25.609 14.3154 25.65 14.3597 25.7026 14.385C25.7552 14.4103 25.8155 14.4146 25.8712 14.3971C26.0108 14.3477 26.1533 14.2938 26.2944 14.2415L26.2973 14.2444ZM24.6202 14.9324C24.6717 14.9045 24.7106 14.858 24.729 14.8025C24.7473 14.7469 24.7439 14.6864 24.7192 14.6333C24.6945 14.5803 24.6505 14.5387 24.5961 14.517C24.5418 14.4952 24.4812 14.495 24.4268 14.5164C24.2813 14.5804 24.1461 14.6488 24.0079 14.7172C23.9587 14.7471 23.9225 14.7942 23.9065 14.8495C23.8905 14.9048 23.8958 14.9641 23.9214 15.0156C23.947 15.0672 23.991 15.1073 24.0447 15.1279C24.0984 15.1486 24.1579 15.1484 24.2115 15.1273C24.3453 15.0604 24.4811 14.9949 24.6188 14.9309L24.6202 14.9324ZM23.0202 15.7702C23.0678 15.7373 23.1012 15.6875 23.1137 15.6309C23.1262 15.5744 23.1169 15.5153 23.0877 15.4653C23.0585 15.4153 23.0115 15.3782 22.9561 15.3614C22.9008 15.3446 22.8411 15.3493 22.789 15.3746C22.6552 15.4516 22.5228 15.5317 22.3904 15.6117C22.3445 15.646 22.313 15.6963 22.3023 15.7527C22.2915 15.809 22.3022 15.8673 22.3323 15.9162C22.3624 15.9651 22.4097 16.0009 22.4648 16.0167C22.52 16.0325 22.5791 16.0271 22.6304 16.0015C22.757 15.923 22.8806 15.8415 23.0115 15.7702H23.0202ZM21.4958 16.7505C21.5417 16.7138 21.5717 16.661 21.5798 16.6029C21.5879 16.5447 21.5735 16.4857 21.5394 16.4379C21.5054 16.39 21.4543 16.3571 21.3968 16.3457C21.3392 16.3343 21.2793 16.3455 21.2297 16.3768C21.1031 16.4655 20.978 16.5571 20.8544 16.6502C20.808 16.6875 20.7779 16.7414 20.7704 16.8004C20.7629 16.8595 20.7786 16.9192 20.8143 16.9669C20.8499 17.0146 20.9027 17.0465 20.9615 17.0561C21.0202 17.0657 21.0804 17.0521 21.1293 17.0182C21.2413 16.9266 21.3635 16.8378 21.4871 16.7505H21.4958ZM20.0675 17.8648C20.1074 17.8235 20.1305 17.7687 20.1321 17.7113C20.1337 17.6539 20.1138 17.5979 20.0762 17.5545C20.0386 17.5111 19.986 17.4833 19.929 17.4767C19.8719 17.47 19.8144 17.4849 19.7678 17.5186L19.4203 17.824C19.3803 17.866 19.3577 17.9215 19.3569 17.9794C19.3561 18.0373 19.3772 18.0933 19.416 18.1364C19.4548 18.1794 19.5084 18.2062 19.5661 18.2114C19.6237 18.2166 19.6813 18.1998 19.7272 18.1644L20.0675 17.8648ZM18.7453 19.104C18.7833 19.0595 18.803 19.0022 18.8002 18.9437C18.7973 18.8852 18.7722 18.83 18.7301 18.7893C18.688 18.7487 18.632 18.7257 18.5734 18.725C18.5149 18.7242 18.4583 18.7459 18.4151 18.7855L18.0966 19.12C18.0588 19.1652 18.0397 19.2231 18.0433 19.2819C18.047 19.3406 18.073 19.3958 18.1161 19.4359C18.1592 19.476 18.2162 19.498 18.275 19.4974C18.3339 19.4968 18.3903 19.4737 18.4326 19.4327L18.7453 19.104ZM17.5395 20.4582C17.5781 20.4109 17.5963 20.3503 17.5902 20.2896C17.5841 20.2289 17.554 20.1732 17.5067 20.1346C17.4595 20.096 17.3989 20.0778 17.3382 20.0839C17.2775 20.09 17.2217 20.12 17.1831 20.1673L16.8922 20.5309C16.8601 20.5794 16.8477 20.6383 16.8572 20.6957C16.8668 20.753 16.8978 20.8046 16.9439 20.84C16.99 20.8754 17.0478 20.8921 17.1057 20.8865C17.1636 20.881 17.2173 20.8537 17.2559 20.8102C17.3417 20.6953 17.4363 20.5775 17.5308 20.4597L17.5395 20.4582ZM16.4616 21.9127C16.4952 21.8603 16.5066 21.7966 16.4933 21.7358C16.4799 21.675 16.4429 21.622 16.3904 21.5884C16.338 21.5549 16.2743 21.5435 16.2135 21.5568C16.1527 21.5702 16.0996 21.6072 16.0661 21.6596C15.9802 21.7876 15.8944 21.9171 15.8115 22.048C15.7841 22.0992 15.777 22.1588 15.7917 22.2149C15.8064 22.2711 15.8418 22.3196 15.8908 22.3507C15.9398 22.3818 15.9987 22.3932 16.0558 22.3826C16.1128 22.3721 16.1638 22.3404 16.1984 22.2939L16.4616 21.9127ZM15.5206 23.4618C15.544 23.409 15.5466 23.3493 15.528 23.2946C15.5093 23.2399 15.4707 23.1942 15.4199 23.1666C15.3691 23.1391 15.3097 23.1318 15.2537 23.146C15.1977 23.1603 15.1492 23.1952 15.1177 23.2437C15.044 23.3795 14.9713 23.5162 14.8995 23.6539C14.8746 23.7077 14.8715 23.7692 14.8908 23.8253C14.9101 23.8814 14.9505 23.9278 15.0033 23.9549C15.0561 23.982 15.1173 23.9876 15.1742 23.9705C15.231 23.9534 15.2791 23.915 15.3082 23.8633L15.5206 23.4618ZM14.725 25.0909C14.7465 25.0354 14.7457 24.9738 14.7227 24.9189C14.6998 24.8641 14.6564 24.8202 14.6017 24.7966C14.5471 24.7731 14.4854 24.7716 14.4297 24.7926C14.374 24.8136 14.3287 24.8553 14.3032 24.9091C14.2421 25.0545 14.1824 25.2 14.1242 25.3367C14.1055 25.3924 14.1089 25.4531 14.1336 25.5064C14.1583 25.5597 14.2024 25.6015 14.2569 25.6232C14.3114 25.645 14.3722 25.6451 14.4268 25.6235C14.4813 25.6019 14.5256 25.5601 14.5504 25.5069C14.6018 25.3712 14.6576 25.2339 14.7177 25.0953L14.725 25.0909ZM14.082 26.7855C14.1013 26.7276 14.0969 26.6645 14.0696 26.6099C14.0423 26.5554 13.9945 26.5139 13.9366 26.4946C13.8787 26.4753 13.8156 26.4797 13.761 26.507C13.7065 26.5343 13.665 26.5821 13.6457 26.64C13.5977 26.7855 13.5497 26.9309 13.5003 27.0764C13.4915 27.1313 13.5029 27.1877 13.5325 27.2348C13.5621 27.282 13.6078 27.3167 13.6611 27.3327C13.7145 27.3487 13.7718 27.3449 13.8224 27.3218C13.8731 27.2987 13.9137 27.258 13.9366 27.2073L14.082 26.7855ZM13.5962 28.5309C13.6064 28.4727 13.5937 28.4129 13.5609 28.3638C13.5281 28.3147 13.4777 28.2802 13.4201 28.2673C13.3625 28.2544 13.3021 28.2642 13.2515 28.2946C13.2009 28.325 13.1639 28.3737 13.1483 28.4306L13.0508 28.8829C13.0428 28.9408 13.0572 28.9996 13.0909 29.0472C13.1247 29.0949 13.1753 29.1279 13.2325 29.1396C13.2897 29.1512 13.3493 29.1406 13.3991 29.11C13.4488 29.0793 13.485 29.031 13.5003 28.9746L13.5962 28.5309ZM13.2733 30.3157C13.2761 30.2583 13.2571 30.2018 13.2203 30.1577C13.1834 30.1135 13.1314 30.0847 13.0744 30.0771C13.0174 30.0694 12.9597 30.0834 12.9125 30.1162C12.8653 30.1491 12.8321 30.1984 12.8195 30.2545L12.7628 30.7156C12.7615 30.7732 12.7818 30.8292 12.8198 30.8724C12.8577 30.9157 12.9105 30.9431 12.9677 30.9493C13.0249 30.9555 13.0824 30.9401 13.1287 30.906C13.1751 30.8719 13.207 30.8216 13.218 30.7651L13.2733 30.3157ZM13.1133 32.1207C13.1114 32.0626 13.0876 32.0074 13.0466 31.9661C13.0056 31.9248 12.9505 31.9007 12.8924 31.8984C12.8343 31.8962 12.7774 31.9161 12.7334 31.9541C12.6894 31.9921 12.6615 32.0455 12.6552 32.1033L12.6406 32.5659C12.644 32.6237 12.669 32.678 12.7108 32.7181C12.7525 32.7582 12.8078 32.7811 12.8657 32.7822C12.9235 32.7833 12.9797 32.7626 13.0229 32.7241C13.0661 32.6856 13.0932 32.6322 13.0988 32.5746L13.1133 32.1207ZM13.1133 33.9332C13.1067 33.875 13.0783 33.8215 13.0337 33.7836C12.9891 33.7458 12.9318 33.7263 12.8733 33.7293C12.8149 33.7323 12.7597 33.7574 12.7192 33.7996C12.6787 33.8418 12.6558 33.8979 12.6552 33.9564L12.6813 34.4189C12.6903 34.4757 12.7204 34.5269 12.7654 34.5627C12.8103 34.5984 12.8671 34.616 12.9244 34.612C12.9817 34.6079 13.0354 34.5827 13.0749 34.541C13.1145 34.4994 13.137 34.4443 13.1381 34.3869C13.125 34.24 13.1162 34.0888 13.1089 33.9375L13.1133 33.9332ZM13.2791 35.7382C13.2667 35.6816 13.2334 35.6318 13.1858 35.5987C13.1382 35.5657 13.0799 35.5518 13.0225 35.5599C12.9652 35.568 12.913 35.5975 12.8764 35.6424C12.8398 35.6873 12.8216 35.7444 12.8253 35.8022C12.8456 35.9549 12.8689 36.1091 12.8936 36.2618C12.9072 36.3182 12.9416 36.3675 12.99 36.3996C13.0383 36.4317 13.097 36.4443 13.1543 36.4349C13.2116 36.4255 13.2632 36.3949 13.2987 36.349C13.3343 36.3031 13.3512 36.2455 13.3461 36.1877C13.317 36.0422 13.2951 35.8924 13.2748 35.7425L13.2791 35.7382ZM13.6079 37.5201C13.5912 37.4636 13.5536 37.4156 13.5027 37.3861C13.4518 37.3566 13.3915 37.3477 13.3343 37.3613C13.277 37.3749 13.2271 37.41 13.195 37.4593C13.1628 37.5085 13.1507 37.5684 13.1613 37.6262L13.2718 38.0756C13.2909 38.1299 13.3295 38.1751 13.3802 38.2022C13.4309 38.2294 13.49 38.2366 13.5457 38.2223C13.6014 38.2081 13.6498 38.1734 13.6812 38.1253C13.7126 38.0771 13.7248 38.0189 13.7155 37.9622L13.6079 37.5201ZM14.098 39.2654C14.0885 39.2368 14.0734 39.2103 14.0536 39.1875C14.0338 39.1647 14.0097 39.146 13.9827 39.1325C13.9557 39.119 13.9263 39.111 13.8961 39.1088C13.866 39.1067 13.8358 39.1105 13.8072 39.12C13.7785 39.1296 13.752 39.1447 13.7292 39.1645C13.7064 39.1843 13.6877 39.2083 13.6742 39.2354C13.6607 39.2624 13.6526 39.2918 13.6505 39.3219C13.6483 39.352 13.6521 39.3823 13.6617 39.411C13.7053 39.5564 13.7621 39.7018 13.8072 39.8473C13.8278 39.9052 13.8705 39.9525 13.926 39.9788C13.9816 40.0051 14.0453 40.0083 14.1032 39.9877C14.161 39.967 14.2083 39.9242 14.2346 39.8687C14.261 39.8132 14.2642 39.7495 14.2435 39.6917C14.1926 39.5593 14.1373 39.4051 14.0937 39.2713L14.098 39.2654ZM14.7468 40.9571C14.7206 40.9041 14.6749 40.8632 14.6193 40.843C14.5637 40.8228 14.5025 40.8248 14.4483 40.8486C14.3942 40.8724 14.3513 40.9162 14.3286 40.9708C14.3059 41.0254 14.3051 41.0867 14.3264 41.1419C14.3885 41.2834 14.452 41.4245 14.517 41.5651C14.5448 41.6165 14.5913 41.6554 14.6468 41.6738C14.7024 41.6922 14.7629 41.6887 14.816 41.6641C14.869 41.6394 14.9107 41.5954 14.9324 41.541C14.9542 41.4867 14.9544 41.4261 14.933 41.3716C14.8661 41.2393 14.8035 41.1011 14.7425 40.9629L14.7468 40.9571ZM15.5468 42.5833C15.5151 42.5348 15.4662 42.5001 15.41 42.4862C15.3538 42.4722 15.2944 42.4799 15.2436 42.5078C15.1929 42.5358 15.1546 42.5818 15.1364 42.6368C15.1181 42.6918 15.1213 42.7517 15.1453 42.8044C15.2195 42.9397 15.2908 43.0749 15.3737 43.2087C15.4066 43.2563 15.4564 43.2897 15.5129 43.3022C15.5694 43.3147 15.6286 43.3055 15.6785 43.2763C15.7285 43.2471 15.7657 43.2 15.7825 43.1446C15.7993 43.0892 15.7946 43.0295 15.7694 42.9775C15.6908 42.8524 15.6151 42.7215 15.5439 42.5891L15.5468 42.5833ZM16.4908 44.128C16.4545 44.0828 16.4026 44.053 16.3453 44.0445C16.2879 44.036 16.2295 44.0495 16.1817 44.0822C16.1339 44.1149 16.1002 44.1646 16.0874 44.2211C16.0745 44.2776 16.0836 44.3368 16.1126 44.3869L16.3759 44.7666C16.4126 44.8124 16.4654 44.8424 16.5235 44.8505C16.5817 44.8586 16.6407 44.8442 16.6886 44.8101C16.7364 44.7761 16.7694 44.725 16.7807 44.6674C16.7921 44.6098 16.7809 44.55 16.7496 44.5004L16.4908 44.128ZM17.573 45.5826C17.5327 45.5417 17.4786 45.5174 17.4213 45.5145C17.364 45.5115 17.3076 45.53 17.2633 45.5665C17.219 45.603 17.1899 45.6547 17.1818 45.7115C17.1737 45.7683 17.1872 45.8261 17.2195 45.8735L17.5104 46.2284C17.5508 46.2714 17.6064 46.2971 17.6653 46.3003C17.7243 46.3036 17.7822 46.284 17.8271 46.2457C17.872 46.2073 17.9004 46.1532 17.9064 46.0945C17.9125 46.0357 17.8956 45.9769 17.8595 45.9302L17.5686 45.5811L17.573 45.5826ZM18.7817 46.9339C18.738 46.895 18.6812 46.8742 18.6228 46.8758C18.5644 46.8774 18.5087 46.9012 18.4672 46.9424C18.4256 46.9835 18.4014 47.0389 18.3993 47.0973C18.3972 47.1557 18.4174 47.2127 18.4559 47.2568L18.7846 47.584C18.8291 47.622 18.8865 47.6417 18.945 47.6389C19.0034 47.636 19.0586 47.6109 19.0993 47.5688C19.1399 47.5267 19.1629 47.4707 19.1636 47.4121C19.1643 47.3536 19.1428 47.2969 19.1032 47.2538L18.7817 46.9339ZM20.1082 48.1702C20.0612 48.1418 20.0056 48.1311 19.9513 48.1402C19.8971 48.1493 19.848 48.1775 19.8128 48.2197C19.7776 48.262 19.7587 48.3154 19.7595 48.3704C19.7603 48.4253 19.7808 48.4781 19.8173 48.5193C19.9351 48.6196 20.0544 48.72 20.1737 48.8102C20.2209 48.8488 20.2815 48.867 20.3422 48.8609C20.4029 48.8548 20.4588 48.8248 20.4973 48.7775C20.5359 48.7303 20.5542 48.6695 20.548 48.6088C20.5419 48.5482 20.5118 48.4924 20.4646 48.4538L20.1082 48.1702ZM45.2312 48.7172C45.1872 48.756 45.1597 48.8102 45.1544 48.8686C45.1491 48.927 45.1664 48.9853 45.2027 49.0314C45.2389 49.0776 45.2915 49.108 45.3495 49.1167C45.4076 49.1253 45.4666 49.1114 45.5147 49.0779C45.6355 48.9833 45.7606 48.8873 45.877 48.7869C45.9178 48.7466 45.9421 48.6925 45.945 48.6352C45.948 48.5779 45.9295 48.5216 45.893 48.4773C45.8566 48.433 45.8048 48.404 45.748 48.3959C45.6912 48.3878 45.6334 48.4012 45.586 48.4335C45.4697 48.5368 45.3475 48.6313 45.2282 48.7229L45.2312 48.7172ZM46.6115 47.5506C46.5733 47.5935 46.5525 47.6492 46.5534 47.7067C46.5542 47.7642 46.5766 47.8192 46.616 47.8611C46.6555 47.9029 46.7091 47.9284 46.7664 47.9326C46.8238 47.9368 46.8806 47.9193 46.9257 47.8837C47.0382 47.778 47.1502 47.6708 47.2617 47.5622C47.3006 47.5186 47.3213 47.4617 47.3197 47.4032C47.3181 47.3448 47.2943 47.2892 47.2532 47.2477C47.2121 47.2062 47.1566 47.1819 47.0982 47.1798C47.0398 47.1777 46.9828 47.198 46.9387 47.2364C46.8282 47.3392 46.7191 47.4439 46.6115 47.5506ZM47.8784 46.2531C47.8429 46.2992 47.8263 46.3571 47.8319 46.415C47.8374 46.473 47.8646 46.5267 47.9082 46.5653C47.9518 46.6038 48.0084 46.6245 48.0666 46.623C48.1248 46.6215 48.1802 46.5979 48.2217 46.5571C48.325 46.4422 48.4267 46.3244 48.5257 46.2066C48.5552 46.1594 48.5665 46.1031 48.5577 46.0482C48.5489 45.9933 48.5204 45.9434 48.4776 45.9079C48.4348 45.8723 48.3806 45.8535 48.3249 45.8549C48.2693 45.8564 48.2161 45.878 48.1752 45.9157L47.8784 46.2531ZM49.0217 44.8466C48.9899 44.8958 48.9781 44.9551 48.9886 45.0127C48.9992 45.0703 49.0313 45.1216 49.0785 45.1563C49.1256 45.191 49.1842 45.2065 49.2423 45.1995C49.3004 45.1925 49.3536 45.1635 49.3912 45.1186L49.6632 44.7418C49.693 44.692 49.7027 44.6328 49.6906 44.576C49.6785 44.5192 49.6454 44.4692 49.5978 44.4358C49.5503 44.4025 49.492 44.3884 49.4345 44.3963C49.377 44.4042 49.3246 44.4336 49.2879 44.4786L49.0217 44.8466ZM50.0399 43.3426C50.0137 43.3942 50.0079 43.4537 50.0237 43.5094C50.0395 43.5651 50.0758 43.6127 50.1252 43.6428C50.1746 43.673 50.2335 43.6834 50.2902 43.672C50.3469 43.6605 50.3972 43.6281 50.4311 43.5811L50.6682 43.1811C50.6928 43.1289 50.6968 43.0694 50.6795 43.0144C50.6622 42.9594 50.6248 42.9129 50.5748 42.8841C50.5248 42.8554 50.4659 42.8465 50.4096 42.8592C50.3534 42.8719 50.3039 42.9053 50.2711 42.9528L50.0399 43.3426ZM50.9126 41.7528C50.8918 41.8065 50.892 41.866 50.9131 41.9196C50.9341 41.9732 50.9745 42.0169 51.0263 42.0421C51.078 42.0673 51.1373 42.0723 51.1925 42.0558C51.2476 42.0394 51.2947 42.0029 51.3242 41.9535C51.3882 41.808 51.4581 41.6742 51.5235 41.5345C51.5435 41.4803 51.5423 41.4206 51.5201 41.3672C51.498 41.3138 51.4566 41.2708 51.4041 41.2465C51.3517 41.2223 51.292 41.2188 51.237 41.2366C51.1821 41.2544 51.1358 41.2922 51.1075 41.3426C51.0435 41.4793 50.9751 41.6161 50.9126 41.7513V41.7528ZM51.6398 40.0902C51.6219 40.1462 51.6263 40.207 51.6518 40.2599C51.6774 40.3129 51.7223 40.3541 51.7773 40.375C51.8322 40.3959 51.8931 40.3948 51.9474 40.3722C52.0016 40.3495 52.0452 40.3069 52.069 40.2531L52.229 39.8168C52.2482 39.7589 52.2437 39.6957 52.2164 39.6412C52.1892 39.5866 52.1414 39.5451 52.0835 39.5258C52.0257 39.5065 51.9625 39.5111 51.9079 39.5384C51.8534 39.5656 51.8119 39.6134 51.7926 39.6713L51.6398 40.0902ZM52.2057 38.3695C52.2 38.4235 52.2136 38.4777 52.2441 38.5226C52.2746 38.5675 52.32 38.6002 52.3722 38.6148C52.4245 38.6294 52.4803 38.6251 52.5297 38.6025C52.579 38.58 52.6189 38.5407 52.642 38.4917L52.7614 38.0437C52.7726 37.986 52.7613 37.9261 52.7298 37.8765C52.6982 37.8269 52.6488 37.7912 52.5918 37.7768C52.5348 37.7625 52.4745 37.7706 52.4232 37.7994C52.3719 37.8282 52.3336 37.8755 52.3162 37.9316L52.2057 38.3695ZM52.6115 36.6037C52.6057 36.6612 52.6219 36.7188 52.6567 36.7649C52.6915 36.8111 52.7425 36.8424 52.7994 36.8527C52.8563 36.863 52.9149 36.8515 52.9637 36.8204C53.0125 36.7893 53.0477 36.741 53.0624 36.6851C53.09 36.5397 53.1177 36.3796 53.141 36.2269C53.1445 36.1697 53.1265 36.1133 53.0906 36.0686C53.0546 36.024 53.0033 35.9944 52.9466 35.9856C52.89 35.9769 52.8321 35.9896 52.7844 36.0213C52.7366 36.053 52.7024 36.1015 52.6886 36.1571L52.6115 36.6037ZM52.8559 34.8073C52.8548 34.8655 52.8756 34.922 52.9145 34.9653C52.9534 35.0086 53.0073 35.0356 53.0653 35.0408C53.1232 35.0459 53.181 35.0289 53.2269 34.9932C53.2728 34.9574 53.3034 34.9055 53.3126 34.848C53.3271 34.6938 53.3388 34.5397 53.349 34.3855C53.3473 34.3282 53.3243 34.2737 53.2845 34.2325C53.2447 34.1913 53.191 34.1665 53.1339 34.1628C53.0767 34.1592 53.0203 34.177 52.9756 34.2128C52.9309 34.2486 52.9011 34.2998 52.8922 34.3564C52.866 34.5004 52.8515 34.6517 52.8384 34.8015L52.8559 34.8073ZM52.9359 32.9979C52.9405 33.0555 52.9666 33.1092 53.0091 33.1484C53.0515 33.1876 53.1072 33.2094 53.1649 33.2094C53.2227 33.2094 53.2784 33.1876 53.3208 33.1484C53.3633 33.1092 53.3895 33.0555 53.3941 32.9979V32.5353C53.3883 32.4777 53.3608 32.4243 53.3173 32.386C53.2738 32.3477 53.2175 32.3272 53.1595 32.3287C53.1016 32.3301 53.0464 32.3534 53.0049 32.3939C52.9634 32.4344 52.9388 32.4891 52.9359 32.547V32.9979ZM52.8544 31.187C52.8635 31.2448 52.8943 31.297 52.9405 31.3329C52.9868 31.3688 53.045 31.3857 53.1033 31.3802C53.1616 31.3746 53.2155 31.3469 53.2542 31.3029C53.2928 31.2589 53.3132 31.2018 53.3112 31.1433L53.2646 30.6837C53.2535 30.6269 53.2215 30.5762 53.1748 30.542C53.1281 30.5078 53.0702 30.4925 53.0127 30.4991C52.9552 30.5057 52.9023 30.5338 52.8646 30.5777C52.8269 30.6216 52.8071 30.6782 52.8093 30.7361L52.8544 31.187ZM52.6086 29.3905C52.6231 29.4468 52.6585 29.4955 52.7075 29.5267C52.7565 29.558 52.8155 29.5695 52.8727 29.559C52.9298 29.5485 52.9809 29.5167 53.0155 29.4701C53.0502 29.4234 53.0659 29.3654 53.0595 29.3076C53.0318 29.1622 53.0028 29.0036 52.9708 28.8524C52.9563 28.7947 52.92 28.745 52.8697 28.7135C52.8193 28.682 52.7587 28.6713 52.7006 28.6835C52.6424 28.6957 52.5913 28.73 52.5579 28.7791C52.5245 28.8282 52.5113 28.8883 52.5213 28.9469C52.5344 29.0865 52.5635 29.2363 52.5912 29.3833L52.6086 29.3905ZM52.2013 27.6247C52.2245 27.6743 52.2645 27.714 52.3143 27.7367C52.3641 27.7594 52.4203 27.7636 52.4729 27.7485C52.5255 27.7334 52.571 27.7001 52.6012 27.6545C52.6314 27.6089 52.6443 27.5539 52.6377 27.4996C52.5955 27.3542 52.5533 27.2015 52.5083 27.0546C52.4858 27.0023 52.4447 26.9601 52.393 26.9363C52.3413 26.9126 52.2826 26.9088 52.2282 26.9258C52.1739 26.9428 52.1279 26.9794 52.099 27.0284C52.0701 27.0775 52.0605 27.1356 52.0719 27.1913C52.1025 27.3324 52.1388 27.4779 52.1824 27.6233L52.2013 27.6247ZM51.6326 25.904C51.6572 25.957 51.701 25.9985 51.7551 26.0203C51.8093 26.0421 51.8697 26.0425 51.9241 26.0214C51.9785 26.0003 52.0228 25.9593 52.0481 25.9067C52.0734 25.8541 52.0777 25.7939 52.0602 25.7382L51.8901 25.3018C51.8646 25.2494 51.82 25.2086 51.7655 25.1878C51.7111 25.1669 51.6507 25.1675 51.5967 25.1895C51.5427 25.2116 51.499 25.2533 51.4746 25.3063C51.4502 25.3593 51.4469 25.4196 51.4653 25.475L51.6326 25.904ZM50.9054 24.2415C50.9353 24.2906 50.9825 24.3268 51.0377 24.3428C51.093 24.3588 51.1523 24.3534 51.2038 24.3279C51.2554 24.3023 51.2955 24.2583 51.3161 24.2046C51.3368 24.1509 51.3366 24.0914 51.3155 24.0378L51.1075 23.6247C51.0773 23.5748 51.0293 23.5382 50.9732 23.5224C50.917 23.5065 50.8569 23.5127 50.8051 23.5395C50.7533 23.5663 50.7136 23.6119 50.6942 23.6669C50.6747 23.7219 50.6768 23.7822 50.7002 23.8357L50.9054 24.2415ZM50.0326 22.6531C50.0669 22.6991 50.1172 22.7305 50.1736 22.7413C50.2299 22.7521 50.2883 22.7413 50.3372 22.7112C50.386 22.6811 50.4219 22.6339 50.4377 22.5787C50.4535 22.5236 50.448 22.4645 50.4224 22.4131C50.3424 22.2822 50.2609 22.147 50.1766 22.0204C50.1414 21.9744 50.0901 21.9434 50.033 21.9336C49.9759 21.9238 49.9172 21.9359 49.8687 21.9675C49.8202 21.9991 49.7853 22.048 49.7712 22.1041C49.7571 22.1603 49.7648 22.2198 49.7926 22.2706C49.861 22.387 49.9409 22.5193 50.018 22.6473L50.0326 22.6531ZM49.0144 21.1506C49.0526 21.1939 49.1058 21.2212 49.1633 21.2271C49.2207 21.233 49.2783 21.217 49.3246 21.1824C49.3708 21.1477 49.4023 21.0969 49.4127 21.04C49.4232 20.9832 49.4118 20.9245 49.3809 20.8756L49.1002 20.5062C49.0614 20.4622 49.0072 20.4348 48.9488 20.4295C48.8903 20.4242 48.8321 20.4415 48.786 20.4777C48.7398 20.514 48.7093 20.5665 48.7006 20.6246C48.692 20.6826 48.706 20.7417 48.7395 20.7899C48.8239 20.9019 48.9155 21.0226 49.0057 21.1433L49.0144 21.1506ZM47.8697 19.7455C47.911 19.7885 47.9674 19.8137 48.027 19.816C48.0866 19.8182 48.1446 19.7972 48.189 19.7574C48.2334 19.7175 48.2605 19.662 48.2647 19.6025C48.2689 19.5431 48.2498 19.4842 48.2115 19.4386C48.1082 19.3237 48.0035 19.2088 47.8988 19.0968C47.8559 19.0586 47.8001 19.0378 47.7426 19.0386C47.6852 19.0394 47.6301 19.0618 47.5882 19.1012C47.5464 19.1407 47.521 19.1944 47.5168 19.2517C47.5126 19.309 47.53 19.3659 47.5657 19.411C47.6573 19.5142 47.7592 19.6233 47.861 19.7382L47.8697 19.7455ZM46.6013 18.4495C46.6464 18.4873 46.7044 18.5064 46.7631 18.5028C46.8219 18.4991 46.8771 18.4731 46.9172 18.43C46.9573 18.3869 46.9794 18.3299 46.9788 18.271C46.9782 18.2122 46.955 18.1558 46.9141 18.1135C46.8021 18.0073 46.6871 17.9041 46.5708 17.8008C46.5246 17.7653 46.4668 17.7486 46.4088 17.7542C46.3509 17.7597 46.2972 17.787 46.2586 17.8306C46.22 17.8742 46.1995 17.9307 46.201 17.9889C46.2025 18.0471 46.226 18.1025 46.2668 18.144C46.37 18.2371 46.482 18.3389 46.5926 18.4422L46.6013 18.4495ZM45.221 17.2727C45.2693 17.3045 45.3279 17.3169 45.3849 17.3074C45.442 17.2978 45.4934 17.2672 45.5289 17.2215C45.5643 17.1758 45.5811 17.1184 45.5761 17.0607C45.5711 17.0031 45.5445 16.9495 45.5017 16.9106C45.3795 16.8161 45.2558 16.723 45.1322 16.6299C45.083 16.5981 45.0237 16.5863 44.9661 16.5969C44.9085 16.6074 44.8571 16.6395 44.8224 16.6866C44.7877 16.7337 44.7724 16.7923 44.7794 16.8504C44.7864 16.9085 44.8153 16.9618 44.8603 16.9993C44.9757 17.0846 45.0934 17.1739 45.2137 17.267L45.221 17.2727ZM43.7417 16.2269C43.7927 16.2528 43.8516 16.2587 43.9068 16.2435C43.9619 16.2283 44.0094 16.1931 44.0399 16.1447C44.0705 16.0963 44.082 16.0382 44.072 15.9819C44.062 15.9255 44.0314 15.875 43.9861 15.84L43.5933 15.5957C43.5417 15.5695 43.4822 15.5636 43.4265 15.5795C43.3708 15.5953 43.3232 15.6315 43.2931 15.6809C43.2629 15.7303 43.2525 15.7893 43.2639 15.8461C43.2754 15.9028 43.3078 15.9531 43.3548 15.9869L43.7417 16.2269ZM42.1722 15.3193C42.2255 15.3412 42.285 15.3423 42.339 15.3224C42.3931 15.3025 42.4376 15.263 42.464 15.2118C42.4903 15.1606 42.4965 15.1014 42.4813 15.0459C42.466 14.9904 42.4304 14.9426 42.3817 14.912L41.9686 14.704C41.9149 14.6833 41.8553 14.6835 41.8018 14.7045C41.7482 14.7256 41.7045 14.7659 41.6792 14.8176C41.654 14.8694 41.6492 14.9288 41.6656 14.9839C41.682 15.0391 41.7184 15.0861 41.7678 15.1157L42.1722 15.3193ZM40.5272 14.5586C40.5828 14.5773 40.6435 14.5739 40.6967 14.5492C40.75 14.5245 40.7919 14.4804 40.8137 14.4259C40.8354 14.3713 40.8355 14.3106 40.8138 14.256C40.7922 14.2015 40.7506 14.1572 40.6974 14.1324L40.2609 13.9622C40.2049 13.9443 40.1442 13.9485 40.0912 13.9741C40.0382 13.9996 39.9971 14.0445 39.9762 14.0995C39.9553 14.1545 39.9563 14.2154 39.979 14.2697C40.0016 14.324 40.0442 14.3675 40.098 14.3913L40.5272 14.5586ZM38.8181 13.9506C38.8734 13.9606 38.9305 13.95 38.9785 13.9207C39.0266 13.8915 39.0623 13.8456 39.0787 13.7918C39.0952 13.738 39.0914 13.6801 39.068 13.6289C39.0446 13.5777 39.0033 13.5369 38.9519 13.5142C38.8064 13.4749 38.6609 13.4269 38.5067 13.3848C38.4528 13.3791 38.3985 13.3927 38.3536 13.4232C38.3087 13.4537 38.2761 13.499 38.2615 13.5513C38.2468 13.6036 38.2512 13.6593 38.2737 13.7087C38.2962 13.7581 38.3355 13.7979 38.3846 13.8211C38.5199 13.8589 38.6668 13.9069 38.8108 13.9506H38.8181ZM37.0624 13.5026C37.1203 13.5106 37.179 13.4962 37.2267 13.4624C37.2743 13.4287 37.3074 13.3781 37.3191 13.3208C37.3307 13.2636 37.3202 13.204 37.2895 13.1543C37.2589 13.1046 37.2104 13.0684 37.154 13.0531C37.0086 13.0225 36.85 12.992 36.6988 12.9644C36.6412 12.9586 36.5836 12.9748 36.5375 13.0096C36.4913 13.0444 36.46 13.0953 36.4498 13.1522C36.4395 13.2091 36.451 13.2678 36.4821 13.3166C36.5131 13.3653 36.5615 13.4006 36.6174 13.4153L37.0624 13.5026ZM35.2733 13.2116C35.3328 13.2162 35.3917 13.1973 35.4376 13.1592C35.4835 13.121 35.5128 13.0666 35.5192 13.0073C35.5256 12.948 35.5087 12.8884 35.472 12.8414C35.4354 12.7943 35.3819 12.7633 35.3228 12.755L34.8617 12.7084C34.8035 12.7072 34.747 12.7282 34.7037 12.767C34.6603 12.8059 34.6334 12.8598 34.6282 12.9178C34.623 12.9758 34.6401 13.0335 34.6759 13.0794C34.7116 13.1253 34.7635 13.156 34.8209 13.1651L35.2733 13.2116Z" fill="#3A4155"/>
<path d="M21.4026 56.5683C21.3981 56.0125 21.5383 55.465 21.8097 54.9799C22.0778 54.4962 22.472 54.0944 22.9501 53.8165C23.4425 53.5247 24.0055 53.3737 24.5778 53.3801C25.0606 53.3672 25.5403 53.4591 25.9842 53.6493C26.3814 53.8348 26.7373 54.0984 27.0302 54.4245L26.1574 55.3641C25.9469 55.1365 25.7013 54.9439 25.4301 54.7938C25.162 54.6588 24.8648 54.5918 24.5647 54.5988C24.3253 54.5938 24.0879 54.6427 23.8699 54.7416C23.6519 54.8405 23.4589 54.9871 23.3051 55.1706C22.9694 55.5587 22.7909 56.0585 22.8047 56.5715C22.7905 57.0898 22.9758 57.5935 23.3225 57.9792C23.4862 58.1637 23.688 58.3105 23.9141 58.4092C24.1402 58.5079 24.385 58.5563 24.6316 58.5509C24.9249 58.5549 25.2147 58.4865 25.4752 58.3517C25.7516 58.2023 26.0021 58.0092 26.217 57.78L27.065 58.618C26.7617 58.9697 26.3939 59.2599 25.9814 59.4731C25.5358 59.6795 25.0482 59.779 24.5574 59.764C23.9875 59.7697 23.427 59.6187 22.937 59.3275C22.4607 59.0492 22.0686 58.6474 21.8024 58.1642C21.5338 57.6757 21.3961 57.1258 21.4026 56.5683Z" fill="#3A4155"/>
<path d="M27.8439 56.5653C27.8383 56.0035 27.9839 55.4507 28.2654 54.9645C28.5469 54.4783 28.9539 54.0767 29.4439 53.8018C29.9561 53.5193 30.5316 53.3711 31.1166 53.3711C31.7016 53.3711 32.2771 53.5193 32.7894 53.8018C33.2764 54.076 33.6788 54.4785 33.9529 54.9656C34.2322 55.4522 34.3769 56.0043 34.372 56.5653C34.3735 56.9891 34.2889 57.409 34.1232 57.799C33.9639 58.1783 33.7338 58.5238 33.4453 58.8171C33.1462 59.1127 32.792 59.3464 32.4025 59.505C31.9875 59.6765 31.5424 59.7631 31.0934 59.7596C30.5092 59.7658 29.934 59.615 29.4279 59.3232C28.9425 59.0469 28.5407 58.6452 28.2644 58.1598C27.9857 57.6749 27.8406 57.1246 27.8439 56.5653ZM29.2461 56.5653C29.2356 57.0827 29.4264 57.5841 29.7784 57.9634C29.9453 58.1516 30.1513 58.3012 30.3819 58.4016C30.6125 58.5021 30.8623 58.551 31.1138 58.5451C31.3659 58.5546 31.6168 58.5083 31.8489 58.4094C32.081 58.3106 32.2885 58.1617 32.4563 57.9734C32.7985 57.5856 32.9809 57.0824 32.9668 56.5653C32.9784 56.0488 32.7885 55.548 32.4373 55.169C32.2688 54.9805 32.0614 54.8309 31.8293 54.7305C31.5973 54.63 31.3462 54.5812 31.0934 54.5874C30.8426 54.578 30.5929 54.6239 30.3618 54.7219C30.1308 54.82 29.9242 54.9676 29.7567 55.1545C29.4119 55.5419 29.229 56.047 29.2461 56.5653Z" fill="#3A4155"/>
<path d="M35.8203 52.5613V51.2402H37.323V52.5613H35.8203ZM35.8757 59.6216V53.5009H37.2779V59.6216H35.8757Z" fill="#3A4155"/>
<path d="M39.1016 59.6306V53.5099H40.505V54.4538C40.7043 54.1263 40.9847 53.8557 41.3189 53.6679C41.6531 53.4802 42.03 53.3815 42.4134 53.3817C42.7102 53.3662 43.0069 53.4152 43.283 53.5252C43.5592 53.6351 43.8085 53.8035 44.0135 54.0188C44.419 54.4964 44.627 55.111 44.5952 55.7368V59.6292H43.1932V56.1395C43.2189 55.74 43.0966 55.345 42.8498 55.0298C42.7281 54.8966 42.5783 54.7922 42.4112 54.724C42.2442 54.6559 42.064 54.6256 41.8839 54.6356C41.6978 54.6286 41.5124 54.6615 41.3402 54.7326C41.168 54.8036 41.013 54.911 40.886 55.0472C40.6205 55.3557 40.4845 55.7551 40.5064 56.1615V59.6189L39.1016 59.6306Z" fill="#3A4155"/>
</svg>
