<svg width="37" height="13" viewBox="0 0 37 13" fill="none" xmlns="http://www.w3.org/2000/svg">
<path d="M33.0949 0.150391H26.0479C26.285 1.60733 26.9169 2.92913 27.8451 3.90981C28.7733 4.89049 29.9456 5.47494 31.1793 5.57209H36.7901C36.8468 5.27591 36.8698 4.9719 36.8585 4.66831C36.8497 3.4732 36.4503 2.33005 35.7464 1.48503C35.0424 0.640017 34.0903 0.160732 33.0949 0.150391V0.150391Z" fill="url(#paint0_linear_299_9567)"/>
<path d="M26.6641 6.06445V12.8833H30.0851V9.272H33.0959C33.8936 9.25003 34.6655 8.92894 35.3035 8.35373C35.9415 7.77852 36.4136 6.97803 36.6536 6.06445H26.6641Z" fill="#006844"/>
<path d="M14.3799 0.150391V12.8013H17.3907C17.633 12.7836 17.8673 12.6911 18.071 12.5328C18.2747 12.3745 18.441 12.1557 18.5536 11.8976C20.6059 7.05039 21.225 5.57209 21.225 5.57209H21.6352V12.8013H25.0562V0.150391H22.043C21.8058 0.189658 21.5788 0.29095 21.3779 0.447115C21.1769 0.60328 21.007 0.810507 20.8801 1.05416C19.1696 5.24379 18.2087 7.37964 18.2087 7.37964H17.7985V0.150391H14.3799Z" fill="#006844"/>
<path d="M0.0107422 12.8834V0.232422H3.43174C3.43174 0.232422 4.38953 0.232422 4.93717 2.03997C6.30588 6.80412 6.4426 7.46167 6.4426 7.46167C6.4426 7.46167 6.71603 6.31167 7.94646 2.03997C8.49646 0.232422 9.45267 0.232422 9.45267 0.232422H12.8737V12.8834H9.45267V6.06544H9.04253L7.12696 12.8834H5.62153L3.7036 6.06544H3.29503V12.8834H0.0107422Z" fill="#006844"/>
<defs>
<linearGradient id="paint0_linear_299_9567" x1="26.0479" y1="5.04076" x2="36.8613" y2="5.04076" gradientUnits="userSpaceOnUse">
<stop stop-color="#00ADFF"/>
<stop offset="1" stop-color="#004EE1"/>
</linearGradient>
</defs>
</svg>
