<svg width="36" height="14" viewBox="0 0 36 14" fill="none" xmlns="http://www.w3.org/2000/svg">
<path d="M33.0295 0.394354H30.8161C30.5063 0.355273 30.1943 0.436309 29.9256 0.625594C29.657 0.81488 29.4459 1.10247 29.3232 1.44624L25.0938 13.0208H28.0834C28.0834 13.0208 28.5988 11.4736 28.7017 11.1019H32.3616C32.4645 11.5349 32.7222 12.9585 32.7222 12.9585H35.4031L33.0295 0.394354ZM29.5267 8.50284C29.7845 7.76039 30.6605 4.97454 30.6605 4.97454C30.8043 4.59339 30.9248 4.20022 31.0212 3.79813L31.227 4.91228C31.227 4.91228 31.7943 7.9453 31.8972 8.56417H29.5267V8.50284Z" fill="#3362AB"/>
<path d="M25.3001 8.87411C25.3001 11.4741 23.3413 13.2071 20.2998 13.2071C19.2077 13.2302 18.1223 12.9989 17.1035 12.526L17.516 9.67882L17.8767 9.8675C18.7107 10.3535 19.631 10.5873 20.5575 10.5486C21.3825 10.5486 22.2586 10.1769 22.2586 9.3109C22.2586 8.7543 21.8979 8.3826 20.7657 7.76373C19.6807 7.14109 18.2373 6.15241 18.2373 4.35996C18.2373 1.88448 20.2479 0.209012 23.0828 0.209012C23.9642 0.185304 24.8406 0.374588 25.6599 0.765616L25.2474 3.4892L25.0392 3.24203C24.3523 2.90442 23.616 2.73599 22.8738 2.74675C21.7911 2.80901 21.2757 3.36562 21.2757 3.8609C21.2757 4.4175 21.894 4.85147 22.8738 5.40807C24.5269 6.34109 25.3001 7.3892 25.3001 8.87411Z" fill="#3362AB"/>
<path d="M0.143555 0.515916L0.195412 0.268746H4.62841C4.90794 0.217846 5.19303 0.29899 5.42378 0.495135C5.65454 0.69128 5.81301 0.987161 5.86591 1.32063L6.8457 6.88667C5.86591 3.92063 3.6007 1.50648 0.143555 0.515916Z" fill="#F9B50B"/>
<path d="M13.083 0.392342L8.59813 12.9565H5.55663L2.97949 2.4348C4.65941 3.71995 6.02833 5.51292 6.94892 7.63385L7.25849 8.93385L10.0415 0.330078H13.083V0.392342Z" fill="#3362AB"/>
<path d="M14.271 0.330078H17.0996L15.2924 12.9565H12.4639L14.271 0.330078Z" fill="#3362AB"/>
</svg>
