<svg width="34" height="19" viewBox="0 0 34 19" fill="none" xmlns="http://www.w3.org/2000/svg">
<path d="M33.9584 9.34331C33.9584 11.1892 33.3701 12.9937 32.2677 14.5292C31.1654 16.0646 29.5984 17.2622 27.7645 17.9707C25.9307 18.6792 23.9121 18.867 21.9635 18.5103C20.015 18.1537 18.2237 17.2685 16.8158 15.9666C15.408 14.6646 14.4466 13.0043 14.0529 11.195C13.6593 9.38574 13.8511 7.50863 14.6041 5.80058C15.3572 4.09252 16.6377 2.63004 18.284 1.59771C19.9304 0.565379 21.8689 0.00944654 23.8549 6.84729e-05C25.1788 -0.00463946 26.4907 0.233471 27.7155 0.700761C28.9403 1.16805 30.0538 1.85534 30.9924 2.72325C31.9309 3.59117 32.676 4.62266 33.1849 5.75864C33.6939 6.89462 33.9567 8.11277 33.9584 9.34331Z" fill="#F9B50B"/>
<path d="M20.5052 9.39103C20.4902 8.7323 20.4214 8.07559 20.2993 7.42656H14.1126C14.1798 7.08722 14.2658 6.75133 14.3703 6.42024H19.886C19.7712 6.07714 19.6334 5.74105 19.4735 5.41391H14.7828C14.9399 5.07871 15.1434 4.79097 15.3501 4.40757H18.907C18.683 4.05033 18.4231 3.71362 18.1307 3.40198H16.1751C16.4924 3.05906 16.837 2.73879 17.2059 2.44384C15.3746 0.85553 12.9574 -0.0190963 10.4527 0.00031637C7.80684 0.0459889 5.28383 1.04652 3.41743 2.79024C1.55103 4.53397 0.487618 6.88413 0.452164 9.34356C0.448775 11.154 1.01237 12.9262 2.07419 14.4439C3.13601 15.9617 4.65015 17.1594 6.43188 17.8909C8.21361 18.6225 10.1859 18.8562 12.1081 18.5636C14.0303 18.2711 15.8194 17.4648 17.257 16.2433C17.626 15.9311 17.9705 15.5948 18.2879 15.2369H16.2262C15.9565 14.9373 15.7149 14.6167 15.5041 14.2788H19.0092C19.2391 13.9647 19.4295 13.627 19.5764 13.2725H14.8857C14.7089 12.9521 14.5705 12.6147 14.4732 12.2662H19.9889C20.3273 11.3401 20.5017 10.3691 20.5052 9.39103Z" fill="#C8191C"/>
<path d="M14.0605 11.7387L14.2176 10.8762C14.1328 10.897 14.0467 10.9131 13.9599 10.9244C13.5992 10.9244 13.5474 10.7331 13.5992 10.6367L13.9088 8.91177H14.4761L14.6332 7.95364H14.1178L14.2207 7.37891H13.1325C13.1325 7.37891 12.5142 10.6367 12.5142 11.0201C12.4991 11.1326 12.5109 11.2467 12.5489 11.3545C12.5868 11.4622 12.6499 11.5608 12.7336 11.6432C12.8173 11.7256 12.9196 11.7898 13.0331 11.8312C13.1466 11.8726 13.2686 11.8901 13.3902 11.8826C13.6223 11.8809 13.8511 11.8317 14.0605 11.7387Z" fill="white"/>
<path d="M14.4221 10.1559C14.3962 10.3883 14.4264 10.6232 14.5105 10.8434C14.5947 11.0636 14.7306 11.2636 14.9083 11.4288C15.0861 11.5941 15.3013 11.7204 15.5382 11.7986C15.7751 11.8767 16.0278 11.9048 16.2779 11.8808C16.6623 11.8967 17.0465 11.8472 17.4117 11.7347L17.6176 10.7766C17.2588 10.9209 16.8744 11.0021 16.4838 11.0161C15.2981 11.0161 15.504 10.2019 15.504 10.2019H17.6694C17.7469 9.90252 17.7994 9.59806 17.8266 9.29121C17.8406 9.09905 17.8101 8.90634 17.7371 8.72608C17.6642 8.54581 17.5505 8.38219 17.4037 8.24625C17.2569 8.1103 17.0805 8.00521 16.8863 7.93805C16.6921 7.87089 16.4846 7.84322 16.2779 7.85693C15.2471 7.808 14.4221 8.91 14.4221 10.1559ZM16.2779 8.71866C16.8452 8.71866 16.7415 9.3416 16.7415 9.38979H15.5558C15.6077 9.3416 15.7106 8.71866 16.2779 8.71866Z" fill="white"/>
<path d="M23.0307 11.7392L23.2366 10.6372C22.9464 10.771 22.6315 10.8523 22.3087 10.8768C22.1533 10.8756 22 10.8439 21.8588 10.7838C21.7176 10.7236 21.5917 10.6363 21.4895 10.5276C21.3872 10.419 21.3108 10.2914 21.2654 10.1533C21.22 10.0153 21.2065 9.86983 21.226 9.72659C21.226 8.52892 21.8443 7.90599 22.6175 7.90599C22.9654 7.92144 23.303 8.02059 23.5972 8.19372L23.7544 7.13992C23.3597 6.99479 22.9411 6.91377 22.5169 6.90039C21.2794 6.90039 20.0938 7.90672 20.0938 9.77551C20.0938 11.0214 20.7121 11.8356 22.0015 11.8356C22.3479 11.8541 22.6953 11.8216 23.0307 11.7392Z" fill="white"/>
<path d="M8.23566 7.81018C7.798 7.81078 7.36316 7.87535 6.94709 8.00151L6.78994 8.86398C7.1684 8.73046 7.57086 8.66552 7.97559 8.67264C8.33623 8.67264 8.6458 8.72084 8.6458 9.00784C8.6458 9.19918 8.59394 9.24737 8.59394 9.24737H8.13037C7.20244 9.24737 6.22266 9.58257 6.22266 10.7328C6.22266 11.6434 6.84101 11.8348 7.25351 11.8348C7.67492 11.8227 8.07749 11.6697 8.3873 11.4039L8.33544 11.7873H9.21151L9.62401 9.05604C9.6412 8.88455 9.61667 8.71167 9.55225 8.55018C9.48784 8.38869 9.38517 8.24273 9.25186 8.1231C9.11855 8.00347 8.958 7.91324 8.7821 7.85907C8.6062 7.8049 8.41945 7.78819 8.23566 7.81018ZM8.44151 10.0142C8.44151 10.1602 8.33859 10.9723 7.71944 10.9723C7.66489 10.9736 7.61062 10.9646 7.55994 10.9458C7.50926 10.927 7.46322 10.8988 7.42464 10.8629C7.38605 10.827 7.35572 10.7843 7.33548 10.7372C7.31525 10.69 7.30554 10.6396 7.30694 10.5889C7.30694 10.3494 7.46409 10.0142 8.28673 10.0142H8.44151Z" fill="white"/>
<path d="M10.6579 11.8351C10.8577 11.8664 11.0625 11.8561 11.2576 11.805C11.4526 11.7538 11.633 11.6632 11.7859 11.5395C11.9387 11.4158 12.0601 11.2622 12.1414 11.0897C12.2227 10.9171 12.2619 10.73 12.256 10.5417C12.256 9.29589 10.9675 9.53542 10.9675 9.05635C10.9675 8.81682 11.1733 8.72115 11.5348 8.72115C11.6919 8.72115 12.2568 8.76935 12.2568 8.76935L12.414 7.85869C12.076 7.78678 11.7297 7.75463 11.3831 7.76302C10.61 7.76302 9.78497 8.05075 9.78497 9.05635C9.78497 10.2065 11.1254 10.1102 11.1254 10.5417C11.1254 10.8295 10.7648 10.8769 10.507 10.8769C10.1752 10.8662 9.84607 10.8172 9.52726 10.7309L9.37012 11.6416C9.47226 11.7394 9.78183 11.8351 10.6579 11.8351Z" fill="white"/>
<path d="M31.8974 7.04297L31.6915 8.3845C31.5637 8.2438 31.4063 8.12877 31.2291 8.04641C31.0519 7.96405 30.8585 7.91608 30.6607 7.90543C29.6809 7.90543 28.8535 9.00743 28.8535 10.3008C28.8535 11.115 29.266 11.93 30.1939 11.93C30.5762 11.9225 30.9425 11.7863 31.2248 11.5466L31.1729 11.8818H32.258L33.0312 7.13498L31.8974 7.04297ZM31.3819 9.63036C31.3819 10.1576 31.1242 10.8762 30.5059 10.8762C30.1452 10.8762 29.9386 10.5885 29.9386 10.062C29.9386 9.24769 30.2992 8.76863 30.8147 8.76863C31.1753 8.8161 31.3819 9.05563 31.3819 9.63036Z" fill="white"/>
<path d="M2.41074 11.7898L3.02988 8.24063L3.13281 11.7898H3.85488L5.24638 8.24063L4.67988 11.7898H5.81288L6.68895 7.04297H4.93681L3.8541 9.9641L3.80224 7.04297H2.25595L1.37988 11.7898H2.41074Z" fill="white"/>
<path d="M18.9073 11.7877C19.2169 10.1584 19.268 8.81691 20.0411 9.05645C20.1022 8.65912 20.2236 8.27186 20.4018 7.90625H20.1959C19.7323 7.90625 19.3198 8.48098 19.3198 8.48098L19.4228 7.95372H18.3919L17.7217 11.7877H18.9073Z" fill="white"/>
<path d="M25.5052 7.81088C25.0675 7.81149 24.6327 7.87605 24.2166 8.00222L24.0595 8.86468C24.4379 8.73117 24.8404 8.66623 25.2451 8.67335C25.6058 8.67335 25.9153 8.72155 25.9153 9.00855C25.9153 9.19988 25.8635 9.24808 25.8635 9.24808H25.3999C24.472 9.24808 23.4922 9.58328 23.4922 10.7335C23.4922 11.6441 24.1105 11.8355 24.523 11.8355C24.9445 11.8234 25.347 11.6704 25.6568 11.4046L25.605 11.788H26.5848L26.9973 9.05675C27.0037 8.87916 26.9683 8.70241 26.8934 8.53892C26.8185 8.37543 26.706 8.22916 26.5638 8.11042C26.4216 7.99167 26.2531 7.90331 26.0702 7.85157C25.8873 7.79982 25.6945 7.78593 25.5052 7.81088ZM25.7629 10.0149C25.7629 10.1609 25.66 10.973 25.0408 10.973C24.9863 10.9743 24.932 10.9653 24.8813 10.9465C24.8306 10.9277 24.7846 10.8995 24.746 10.8636C24.7074 10.8278 24.6771 10.785 24.6569 10.7379C24.6366 10.6908 24.6269 10.6403 24.6283 10.5896C24.6283 10.3501 24.7855 10.0149 25.6081 10.0149H25.7629Z" fill="white"/>
<path d="M27.8253 11.7877C28.1349 10.1584 28.1859 8.81691 28.9591 9.05645C29.0201 8.65912 29.1416 8.27186 29.3197 7.90625H29.1139C28.6503 7.90625 28.2378 8.48098 28.2378 8.48098L28.3407 7.95372H27.3099L26.6396 11.7877H27.8253Z" fill="white"/>
</svg>
