<svg width="37" height="11" viewBox="0 0 37 11" fill="none" xmlns="http://www.w3.org/2000/svg">
<path d="M32.8346 0.336914H25.9961C26.2262 1.51442 26.8395 2.58271 27.7402 3.37529C28.6409 4.16788 29.7785 4.64024 30.9757 4.71875H36.4204C36.4754 4.47938 36.4977 4.23368 36.4867 3.98832C36.4782 3.02243 36.0906 2.09853 35.4075 1.41558C34.7244 0.732632 33.8005 0.345272 32.8346 0.336914Z" fill="#0085FF"/>
<path d="M26.5938 5.11719V10.6282H29.9135V7.70954H32.8352C33.6092 7.69178 34.3583 7.43227 34.9774 6.96739C35.5966 6.5025 36.0547 5.85554 36.2876 5.11719H26.5938Z" fill="#006844"/>
<path d="M14.6719 0.336914V10.5615H17.5936C17.8287 10.5471 18.0561 10.4724 18.2537 10.3444C18.4514 10.2165 18.6127 10.0396 18.722 9.83103C20.7136 5.91352 21.3144 4.71875 21.3144 4.71875H21.7124V10.5615H25.0321V0.336914H22.1081C21.878 0.36865 21.6577 0.450515 21.4627 0.576728C21.2677 0.702941 21.1028 0.870423 20.9797 1.06735C19.3198 4.45342 18.3873 6.17962 18.3873 6.17962H17.9893V0.336914H14.6719Z" fill="#006844"/>
<path d="M0.726562 10.6288V0.404297H4.0463C4.0463 0.404297 4.97574 0.404297 5.50717 1.86516C6.83537 5.71557 6.96804 6.247 6.96804 6.247C6.96804 6.247 7.23337 5.31757 8.42738 1.86516C8.9611 0.404297 9.88901 0.404297 9.88901 0.404297H13.2087V10.6288H9.88901V5.11857H9.491L7.63214 10.6288H6.17127L4.31011 5.11857H3.91363V10.6288H0.726562Z" fill="#006844"/>
</svg>
